<?xml version="1.0" encoding="utf-8"?>
<!-- Generator: Adobe Illustrator 25.4.1, SVG Export Plug-In . SVG Version: 6.00 Build 0)  -->
<svg version="1.1" id="Layer_1" xmlns="http://www.w3.org/2000/svg" xmlns:xlink="http://www.w3.org/1999/xlink" x="0px" y="0px"
	 viewBox="0 0 267 321" style="enable-background:new 0 0 267 321;" xml:space="preserve">
<style type="text/css">
	.st0{fill:#995845;}
	.st1{fill:#401D1D;}
	.st2{fill:#723D31;}
	.st3{fill:#F7E9E1;}
	.st4{fill:#D1A38C;}
	.st5{fill:#FFFFFF;}
	.st6{fill:#7D443B;}
	.st7{fill:#99A5CC;}
</style>
<g id="Layer_2_00000032622041811868397630000003128137888793785993_">
	<g id="_1">
		<path class="st0" d="M121.2,155.4c-0.2,0.3-1.6,1.8-2.8,3.2c-0.4,0.4-0.7,0.8-1,1.2l-0.3,0.4c-0.2-0.3-0.5-0.6-0.8-0.9
			c-0.7-0.8-1.5-1.9-2.4-3.1c-5.5-7.1-14.9-19.9-16.7-24.4c-2.3-5.6-3.6-11.6-5-17.4c-1.5-6.4-3.1-12.9-4.4-19.3
			c-0.2-1-0.2-1.9,0.5-2.8c1-1.1,2.4-2,3.6-3l7.8-6.2c-0.1-0.3-0.1-0.6-0.2-0.9c0-0.2,0.3-0.3,0.4-0.1c0.1,0.2,0.1,0.5,0.1,0.7
			c0.2-0.1,0.4,0.1,0.2,0.3l-0.2,0.1c1,5.7,2,11.4,3,17c1.8,10.3,3.2,20.7,7.3,30.6c2.5,5.9,5.1,12.2,7.8,18.3l0.1,0.3l0,0.1
			C119.4,151.6,120.3,153.5,121.2,155.4z"/>
		<path class="st1" d="M99,30.7c1.6-1.2,3.3-2.7,3.3-4.7c0-1.8-1.4-3.5-3.1-4.2c-3.3-1.5-7.1-0.4-10.2,1.5c0.4-0.6,0.6-1.2,0.6-1.8
			c0.1-1.8-1.3-3.5-3-4.2c-3.9-1.7-8.8-0.2-12.1,2.1c0.2-1-0.4-1.9-1.3-2.4c-1.7-0.8-3.8-0.1-5.3,0.7c-3.2,1.7-5.3,4.8-5.7,8.1
			c-1.1-0.1-2.3-0.2-3.4-0.1c-1.9,0.1-4.4,0.2-6,1.3c-1.1,0.8-1.7,2.5-0.1,3.1c0.5,0.2,0.9,0.2,1.4,0.2c-2.1,1-3.7,2.6-4.6,4.6
			c-0.3,0.7-0.8,1.7-0.2,2.5c0.2,0.3,0.5,0.4,0.9,0.5c0.3,0,0.9-0.1,1.2,0.1c0.4,0.2-0.2,0.6-0.4,0.8c-1.9,1.9-3,4.3-3.1,6.9
			c0,1.2,0.2,2,1.5,2.4c1.6,0.5,3.3,0.8,5,0.8c-0.8,2.1-0.8,5,2.5,4.9c0.8,0,1.7-0.2,2.5,0c1,0.3,1.4,1.2,2,1.8
			c0.4,0.5,1.1,0.9,1.8,0.9c0.4,0.6,0.9,1.2,1.6,1.5c0.8,0.4,2.1,0.9,2.6-0.2c0,0,0-0.1,0-0.1l0.1-0.1v1.2c0,0.1,0.1,0.2,0.2,0.2
			c0.1,0,0.2-0.1,0.2-0.2v-1.2c0.8,0.2,1.6,0.1,2.3-0.2c1.5-0.5,2.4-1.9,3.1-3.2c0.8-1.6,1.5-3.2,2.6-4.7c1.2-1.6,2.7-3,4.4-4.1
			c1.5-1,3.3-1.7,5.1-2.1c0.9-0.2,1.8-0.3,2.7-0.3c1.2,0,2.4,0.2,3.6,0.1c1.4-0.1,2.9-0.6,3.5-1.9c0.3-0.7,0.1-1.6,0.5-2.3
			c0.5-0.8,2-1,2.9-1.5c1.5-0.8,2.7-2.1,2.7-3.7C101,32.5,100.2,31.3,99,30.7z"/>
		<path class="st0" d="M38.8,113.7c-2.9-0.5-5.8-0.8-8.7-1c-1.1,6.1-2.5,12.2-4.2,18.2c-2.3,7.9-5.3,15.5-8.5,23.1
			c-1.9,4.4-3.8,8.7-5.6,13.1c0,0.1,0,0.2,0.1,0.2c0,0,0,0,0,0l5-0.1c1.1,0,1.9-0.1,2.5-1c0.7-1.1,1.4-2.3,2-3.5
			c0.7-1.2,1.3-2.4,2-3.7c2.7-5,5.7-9.8,9.7-14c2-2,3.7-4.2,5.2-6.6c1.4-2.4,2.7-4.9,3.7-7.4c2.1-5.2,3.5-10.7,4-16.2
			C43.7,114.5,41.2,114.1,38.8,113.7z"/>
		<path class="st2" d="M118.6,149.6c-1.8,2.1-3.4,4.3-4.6,6.7c1,1.2,1.8,2.3,2.4,3.1c0.7-0.2,1.4-0.5,2-0.7c1.2-1.4,2.6-2.9,2.8-3.2
			C120.3,153.5,119.4,151.6,118.6,149.6z"/>
		<path class="st3" d="M44.5,80.3c0,0,0,0.1,0,0.2c-4.5,2.4-8,6.1-9.8,10.6c-1.2,2.9-1.8,5.9-2.7,8.8c-0.9,3-2.1,5.9-3.1,8.9
			c-1.1,3.3-1.9,6.6-2,10.1c0,0.1,0.1,0.2,0.2,0.2c2.1,0.1,4.2,0.1,6.3,0c1.8-0.1,3.7-0.2,5.4-0.7c1.4-0.4,2.1-1.2,2.5-2.5
			c0.5-1.8,0.9-3.6,1.3-5.4c0.9-3.8,1.9-7.6,2.8-11.3c0.9-3.7,2-7.5,2.7-11.2c0.4-2.1,0.2-4.5-1.2-6.2C46,81.3,45.2,80.9,44.5,80.3z
			"/>
		<path class="st0" d="M165.6,107.1c-2.8,0.3-5.5,0.6-8.3,0.7c-1.4,0.1-2.7,0.1-4.1,0.2c-0.6,0-1.3,0-2,0h-0.5
			c0.4-1,0.9-1.9,1.3-2.9c0.1-0.2-0.2-0.4-0.3-0.2c-0.5,1-1,2-1.4,3.1c-0.3,0-0.6,0-1-0.1c0.1,0,0.1,0,0.1-0.1
			c0.2-0.5-0.6-0.6-0.8-0.2c-0.4,0.6,0.6,0.8,1.5,0.8c-2.6,6.1-3.7,14.2-7.5,19.8c-2.4,3.5-16.6,24.6-20.5,28.3
			c-0.1,0.1-2.1,6.3,0.4,7.6c0.1,0,5.3-3.8,5.3-3.9c7.9-6.6,22.5-21,26.1-24s4.8-7.1,5.8-11.2c1.4-5.9,4.7-11.8,6.1-17.7
			C165.8,107.2,165.7,107.1,165.6,107.1C165.6,107.1,165.6,107.1,165.6,107.1z"/>
		<path class="st0" d="M252.5,160.7c-0.9-2.1-1.8-4.2-2.6-6.3c-1.8-4.3-3.5-8.5-5.3-12.8c-1.7-4.1-3.3-8.2-5-12.3
			c-1.2-2.9-2.8-5.7-4.9-8.1c-0.5-0.6-1.1-1.2-1.7-1.7c-0.4-0.4-1.1-1.7-1.8-3.4c-2.1-5.1-5-13.9-6.3-15.2c-1.7-1.8-0.5,9.8-1.9,7.8
			c-0.1-0.1-0.2-0.1-0.3-0.1c-2.7,1.3-5.1,3-7.2,5.2l-0.3-0.4c-0.1-0.2-0.5,0-0.3,0.2l0.4,0.5c-0.2,0.2-0.4,0.4-0.6,0.6
			c-0.2,0.2,0.1,0.4,0.3,0.3c0.2-0.2,0.3-0.4,0.5-0.6l3.8,5.5c0.3,0.5,0.6,0.9,1,1.4c1.1,1.5,2,3.1,2.7,4.7c0.5,1.2,0.9,2.5,1.3,3.7
			c0.3,0.8,0.5,1.6,0.8,2.3c0.7,1.7,1.6,3.4,2.5,5c3.9,6.6,9.4,12.1,14.4,18c2.9,3.4,5.7,7,7.9,10.9c0.1,0.1,0.2,0.1,0.3,0.1
			c0,0,0.1,0,0.1-0.1c0.6-0.9,1.3-1.9,1.9-2.8c0.2-0.3,0.7-0.7,0.7-1.1C253.1,161.6,252.7,161.1,252.5,160.7z"/>
		<path class="st2" d="M233,119.5c-0.4-0.4-1.1-1.7-1.8-3.4c-0.6-0.3-1.2-0.5-1.9-0.7c-0.9-0.3-1.8-0.5-2.7-0.7
			c-0.7-0.1-1.4-0.3-2.1,0c-1.4,0.5-2.5,1.9-3.1,3.1c-0.5,1.1-0.9,2.2-1,3.3c1.1,1.5,2,3.1,2.7,4.7c0.5,1.2,0.9,2.5,1.3,3.7
			c2.1-2,4.3-4,6.6-5.8c0.9-0.7,1.8-1.3,2.7-2c0.3-0.2,0.7-0.5,1.1-0.7C234.2,120.6,233.6,120,233,119.5z"/>
		<path class="st0" d="M166.8,237.8c-7,0.1-11.2,0.3-18.2,0.6c0.2-1.4,0.4-2.8,0.7-4.2c0-0.2-0.3-0.3-0.4-0.1
			c-0.2,1.4-0.5,2.9-0.7,4.3c-2,0.1-4.1,0.2-6.1,0.3c-0.3,0-0.3,0.4,0,0.4c2-0.1,4-0.2,6-0.3c-1.5,9.7-4.9,54.8-5.9,59.5
			c-1.2,5.3-3.3,10.4-6.9,14.6c-0.1,0.1,0,0.4,0.2,0.3c2.8-1,5.8-1.9,8.6-3c0.8-0.3,3.2-0.8,3.7-1.5c0.7-1,0.7-2.4,0.9-3.5
			c0.9-5.5,15.9-61,18.4-67.2C167,238,167,237.9,166.8,237.8C166.9,237.8,166.8,237.8,166.8,237.8z"/>
		<path class="st0" d="M201.4,229.9c-5.1,4.3-8.1,7-13.1,11.5c-0.9-1.2-1.7-2.3-2.6-3.5c-0.1-0.2-0.5,0-0.4,0.2
			c0.9,1.2,1.7,2.4,2.6,3.6c-1.4,1.3-2.9,2.6-4.3,3.9c-0.2,0.2,0.1,0.4,0.3,0.3c1.4-1.3,2.8-2.6,4.3-3.9c6,8.1,36.3,43.9,39,48
			c3,4.6,5.1,9.7,5.5,15.1c0,0.2,0.3,0.3,0.4,0.1c1.4-2.5,3-4.9,4.2-7.4c0.4-0.8,1.8-2.5,1.6-3.3c-0.3-1.2-1.2-2.2-1.9-3.2
			c-3.3-4.6-32.6-55.1-35.3-61.3C201.7,229.8,201.5,229.8,201.4,229.9C201.4,229.8,201.4,229.9,201.4,229.9z"/>
		<path class="st1" d="M213,226.2c-4.6-8.6-9.6-17.3-11.1-26.9c-1.6-10.4,1.2-29.4-0.5-39.8c-0.8-4.9-2.4-9.6-3.9-14.4
			c-0.7-2.1-4-7.6-5.2-10.6l-0.5-0.2c-1.1-0.4-2.1-0.8-3.1-1.3c-1.1-0.5-2-1.3-2.7-2.1h-0.5c-3,0-6,0-9,0c-5.8,0-11.6,0.2-17.4,0.4
			c-0.5,1.6-0.9,3.3-1.4,4.9c-4,14.5-8,37.5-12,52c-2,7.1-4,14.2-5.6,21.3c-1.6,7.2-2.6,14.5-3.2,21.9c-0.6,7.2-0.4,28.7-0.4,36
			c0,3.6,0,7.3,0,10.9c0,0.9,0,1.9,0,2.8c0,0.3-0.2,1.2,0,1.4c0.2,0.4,0.9,0.3,1.3,0.3c1.8,0.1,3.7,0.2,5.5,0.1
			c7.8-0.3,15.5-2.5,23-4.3c7.4-1.9,15.1-3.1,22.7-3.8c3.9-0.3,7.8-0.4,11.8-0.4c4,0.1,36-5.4,37.1-6.1
			C234.4,257.7,218.3,236,213,226.2z"/>
		<path class="st4" d="M234,113.3c-1.2-2.1-2.5-4.2-3.9-6.2c-2.7-4.2-5.2-8.4-6.9-13c-0.8-2.1-1.5-4.3-2.7-6.3c-1-1.7-2.4-3.3-4-4.7
			l-0.3-0.2c-0.5-0.6-1.1-1.2-1.8-1.6c-1.8-1.3-3.9-2.3-6-3.4c-1.6-0.8-3.3-1.6-5-2.4c-0.7-0.3-1.4-0.6-2.1-0.9
			c-4.4-1.9-9-3.4-13.7-4.7l0,0l-0.9-0.3c-0.1,0-0.2,0-0.2,0.1c-0.1,0.2-0.2,0.5-0.3,0.7c-0.2,0.6-0.4,1.1-0.6,1.7
			c-3.4,1.2-6.8,2.4-10.3,3.6c-2.7,1-5.4,2.1-8.1,3c-9.4,2.9-12.1,10.3-13.9,14c-2.3,4.6-4.4,9.3-6.5,14c-1.1,2.3-2.2,4.7-3.3,7
			c-0.3,0.6-0.5,1.2,0,1.8c0.5,0.5,1.8,0.7,2.6,0.9c4,0.9,8.1,1.2,12.2,0.8l-0.1,11.4l0,6.2c5.5-0.1,11.1,0,16.5,0.4
			c6.1,0.3,12.1,0.9,18.1,1.3c1.6-3.8,3.4-7.7,5.2-11.4c2.6-5.4,5.5-10.7,8.5-15.9c2.7,5.2,6.2,10.1,10.4,14.5
			c0.1,0.1,0.2,0.1,0.2,0c5.3-2.1,10.7-4.2,15.9-6.5c0.6-0.3,1.4-0.7,1.6-1.3C235.1,114.9,234.4,114,234,113.3z"/>
		<path class="st0" d="M177.5,51.9c3.6-0.8,11.1-2.1,14.7-3.1l2.9,27.7c-5.3,0.8-10.6,2-15.8,3.6C179.5,70.7,177.3,61.3,177.5,51.9z
			"/>
		<path class="st0" d="M201.3,37.5c-1.7-3.7-3.5-6.1-7.6-7.5c-4.5-1.5-9.4-1.4-14-0.4c-2,0.4-4.9,2-6.8,3.5
			c-0.3,0.2-0.6,0.5-0.8,0.7c-2.4,2.1-4,5.8-4.3,7.4c-1.3,4-2.3,8-3.1,12.1c-0.2,1.1-0.4,2.3-0.6,3.4c-0.1,1-0.3,2.1-0.4,3.1
			c-0.2,1.5-0.2,3.2,0.8,4.4c0.8,1.1,2.2,1.6,3.5,1.6c1.8,0.1,3.6-0.4,5.3-0.8l7.1-1.7c1.7-0.4,3.4-0.8,5.1-1.4
			c0.1,0.4,0.2,0.7,0.3,1c0.5,1.1,1.6,1.7,2.6,2.4l1.9,1.2c0.7,0.4,1.3,1.1,2.1,1.4c0.7,0.3,1-0.3,1.1-0.9c0.2-1.3,0.4-2.5,0.4-3.8
			c0-1.5,0.2-2.9,0.7-4.3c0.7-2,2-3.8,3.6-5.6C202.4,48.8,202.6,40.4,201.3,37.5z"/>
		<path class="st3" d="M149.1,307.4c-0.1-0.7-0.3-1.9-1.1-2.3c-0.8-0.4-2.2,0-3,0.3c-0.6,0.2-1.2,0.4-1.7,0.8c0-0.3,0-0.5,0-0.8
			c-0.1-1.2-0.7-3.1-2.5-2.9c-0.7,0.1-1.3,0.8-1.8,1.2c-0.6,0.6-1.1,1.3-1.6,2c-0.6,0.8-1.1,1.6-1.8,2.4c-0.5,0.2-0.9,0.5-1.4,0.7
			c-2.3,1.1-9.1,3.5-10.9,4.8c-1,0.7-1.5,1.8-1.8,2.9c0,0.1-0.1,0.2-0.1,0.4c-0.2,0.7-0.3,1.4-0.4,2.1c0,0.1,0.1,0.1,0.1,0.2
			c1.5,1.5,25.9-2.6,26.5-3.3c0.3-0.4,0.3-1,0.4-1.4c0.1-0.5,0.1-0.9,0.2-1.4l0.1-0.4l0.1-0.4C148.7,311.1,149.3,308.6,149.1,307.4z
			"/>
		<path class="st3" d="M243,297l-1.2-1.5l-0.1-0.2l-0.1-0.2c-0.8-1-2.1-2.9-3-3.7c-0.6-0.5-1.6-1.2-2.5-1c-0.8,0.2-1.5,1.4-1.9,2
			c-0.3,0.5-0.5,1-0.6,1.6c-0.2-0.2-0.4-0.4-0.6-0.6c-1-0.8-2.8-1.8-3.9-0.5c-0.4,0.5-0.4,1.4-0.3,2c0,0.8,0.2,1.6,0.3,2.4
			c0.2,0.9,0.4,1.9,0.5,2.8c-0.1,0.5-0.3,0.9-0.5,1.4c-0.8,2.2-3.8,8.1-4.2,10.1c-0.2,1.2,0.3,2.2,0.9,3.2c0.1,0.1,0.1,0.2,0.2,0.3
			c0.4,0.6,0.9,1.2,1.3,1.7c0.1,0.1,0.1,0.1,0.2,0.1c2.2,0.2,16.4-17.8,16.2-18.7C243.7,297.8,243.2,297.4,243,297z"/>
		<path class="st0" d="M201.3,74.5c-4.4-1.9-9-3.4-13.7-4.7l0,0c-0.5,0.2-1,0.4-1.4,0.6c-0.2,0.6-0.4,1.1-0.6,1.7
			c-3.4,1.2-6.8,2.4-10.3,3.6c-0.3,0.9-0.5,1.8-0.5,2.7c0,2.1,1.8,3.3,3.7,4.1c4.7,2,10.2,1.4,15-0.2c2.4-0.8,4.8-1.7,6.9-3
			c1.5-0.9,2.6-2.3,3-3.9C202.8,75.2,202.1,74.8,201.3,74.5z"/>
		<path class="st2" d="M201.3,37.5c-1.7-3.7-3.5-6.1-7.6-7.5c-4.5-1.5-9.4-1.4-14-0.4c-2,0.4-4.9,2-6.8,3.5c2-0.2,4-0.1,5.8,0.9
			c2.3,1.3,2.6,3.6,2,5.8c-0.3,1-1.4,2.9,0.4,3.1c0.9,0.1,1.9-0.1,2.7,0c1.3,0,2.6,0.3,3.8,0.9c2.3,1.2,3.1,3.3,2.6,5.7
			c-0.4,2.1-1.6,3.9-1.9,6c-0.2,1.4,0,3,1,4.2c0.5,0.5,1.1,1,1.8,1.3c0.9,0.6,1.5,1.4,2.3,2c0.1,0.1,0.3,0.2,0.4,0.2
			c0-1.5,0.2-2.9,0.7-4.3c0.7-2,2-3.8,3.6-5.6C202.4,48.8,202.6,40.4,201.3,37.5z"/>
		<path class="st3" d="M189.8,52c-0.3-2-2.4-3.4-4.7-3.1c0,0-0.1,0-0.1,0c-0.2,0-0.1,0.4,0.1,0.4c2.5-0.4,4.4,1.4,4.3,3.6
			c-0.1,2.3-1.1,4.5-3.6,5.4c-2.3,0.8-5.1,0-6.3-2.1c-1.3-2.3,0.2-4.8,1.7-6.6c0.2-0.2-0.2-0.4-0.3-0.2c-1.7,2.1-3.3,4.9-1.4,7.4
			c1.5,2,4.6,2.6,7,1.5C189.1,57.2,190.2,54.5,189.8,52z"/>
		<path class="st1" d="M169.9,45c-0.1,1.2,0.4,2.2,1.2,2.2c0.7,0,1.4-0.9,1.5-2.1c0.1-1.2-0.4-2.2-1.2-2.2
			C170.7,42.9,170,43.8,169.9,45z"/>
		<path class="st0" d="M168,42c-1.4,1.9-3.5,3.2-5,5c-0.6,0.7-1.1,1.6-0.8,2.5c0.2,0.8,1,1.3,1.8,1.7c0.6,0.3,1.2,0.6,1.8,0.9
			c0.2,0.1,0.6,0.4,0.9,0.3c0.6-0.2,0.6-1.6,0.7-2c0.6-2.5,1-4.9,0.8-7.5c0-0.1-0.1-0.1-0.1-0.2c0.2-0.2,0.3-0.4,0.4-0.5
			S168.1,41.8,168,42z"/>
		<path class="st5" d="M164.6,53.1c-0.2,1.1-0.4,2.3-0.6,3.4c2.4-0.1,4.6-1.3,6-3.1C168.2,53.3,166.4,53.2,164.6,53.1z"/>
		<path class="st1" d="M176.5,39.5c-0.8-2.1-5.9-2.5-6.8-0.2c-0.9,2.2,2.9,1.4,4,1.5c0.8,0.1,1.6,0.8,2.4,0.3
			C176.6,40.7,176.8,40.1,176.5,39.5z"/>
		<path class="st0" d="M185.6,44.9c-1.5-1.4-3.6-0.1-4.6,1.2c-0.1,0.1,0,0.2,0.1,0.2c0,0,0.1,0,0.1,0c-0.4,1.3-0.8,2.6-1,4
			c-0.1,0.7-0.4,1.9,0.2,2.5c0.5,0.6,1.7,0.1,2.2-0.2c1-0.6,1.8-1.3,2.5-2.2C186.2,49,187.2,46.4,185.6,44.9z"/>
		<path class="st2" d="M185.3,44.6c-1-0.4-2.5,0.2-3.3,0.7c-0.2,0.1,0,0.4,0.2,0.3c0.9-0.6,2.6-1.2,3.3-0.1c0.5,0.9,0.6,1.8,0.3,2.8
			c-0.3,0.9-0.9,1.7-1.7,2.4c-0.6,0.6-1.5,1.5-2.4,1.6c-0.2,0-0.1,0.4,0.1,0.4c1.2-0.2,2.5-1.6,3.2-2.4c0.8-0.9,1.3-1.9,1.3-3.1
			C186.4,46.5,186.1,45,185.3,44.6z"/>
		<path class="st2" d="M183.6,46.6c-0.3,1.4-1.3,2.5-2.6,3.2c-0.1,0.1-0.1,0.2,0,0.3c0.1,0.1,0.2,0.1,0.2,0.1c1.4-0.7,2.4-2,2.8-3.4
			C184.1,46.4,183.7,46.3,183.6,46.6z"/>
		<path class="st1" d="M166.5,88.7c-1.6,4-5.9,6.6-6.8,10.9c-0.6,2.4-0.4,5-0.5,7.4c-0.1,2.7-0.2,5.4-0.3,8.2c0,0.2,0.4,0.2,0.4,0
			c0.1-2.7,0.2-5.3,0.3-8c0.1-2.6-0.1-5.3,0.6-7.8c1.1-4.1,5.2-6.7,6.8-10.5C167,88.5,166.6,88.5,166.5,88.7z"/>
		<path class="st1" d="M148.4,312.6l-0.1,0.4c-3.5,0.9-7.1,1.7-10.8,2.3c-5.3,0.9-10.6,1.2-16,1.5c0-0.1,0.1-0.2,0.1-0.4
			c5.4-0.3,10.8-0.6,16.2-1.5C141.4,314.3,144.9,313.5,148.4,312.6z"/>
		<path class="st0" d="M32.6,265.9c-0.4,0.2-0.9,0.5-1.3,0.7c-0.8,0.4-1.5,0.9-2.3,1.4c-0.4,0.3-0.9,0.6-1.3,0.9l-0.1,0
			c-1.8,1.3-3.6,2.6-5.5,3.9c2.2,9.6,3.9,17.6,4.1,19.5c0.5,5.3,0,10.8-2.2,15.8c-0.1,0.1,0.1,0.4,0.3,0.2c2.5-1.7,5-3.3,7.3-5.1
			c0.7-0.5,2.8-1.6,3.1-2.4c0.3-1.2-0.1-2.5-0.2-3.6C34.1,294.7,33.3,280.7,32.6,265.9z"/>
		<path class="st3" d="M36.8,306.2c-0.1-0.5-0.1-0.9-0.2-1.4l-0.1-0.4c0-0.1,0-0.2-0.1-0.4c-0.2-1.2-0.4-3.7-0.9-4.8
			c-0.3-0.7-0.8-1.8-1.7-1.9c-0.9-0.2-2.1,0.6-2.7,1c-0.5,0.3-1,0.7-1.4,1.2c-0.1-0.3-0.2-0.5-0.3-0.8c-0.5-1.1-1.6-2.8-3.2-2.1
			c-0.7,0.3-1,1.1-1.3,1.6c-0.4,0.7-0.7,1.5-0.9,2.3l-0.2,0.5c-0.2,0.6-0.4,1.3-0.7,1.9l-0.1,0.3c-0.4,0.4-0.8,0.7-1.1,1l-0.1,0.1
			c-0.4,0.4-1,0.8-1.7,1.3c-2.5,1.9-6.2,4.7-7.2,5.9c-0.8,1-0.9,2.1-0.8,3.3c0,0.1,0,0.2,0,0.4c0.1,0.7,0.2,1.5,0.2,2.1
			c0,0.1,0.1,0.1,0.2,0.2c1.9,1.1,24.1-9.1,24.4-9.9C37,307.2,36.9,306.7,36.8,306.2z"/>
		<path class="st0" d="M92.3,255.8c-0.3,0.4-0.6,0.8-0.8,1.1c-0.5,0.7-0.9,1.4-1.4,2.2c-0.3,0.4-0.5,0.9-0.7,1.3l0,0.1
			c-1,1.9-2,3.8-3,5.7c6.6,7.7,12.1,14.2,13.2,15.8c3.1,4.6,5.3,9.6,5.8,15c0,0.2,0.3,0.3,0.4,0.1c1.4-2.5,2.9-5,4.1-7.5
			c0.4-0.8,1.8-2.5,1.6-3.4c-0.3-1.2-1.3-2.2-2-3.1C107.7,281,100.1,268.7,92.3,255.8z"/>
		<path class="st3" d="M111.3,284.4c-0.6-0.5-1.6-1.2-2.5-1s-1.6,1.4-2,2c-0.3,0.5-0.5,1-0.7,1.6c-0.2-0.2-0.4-0.4-0.6-0.6
			c-1-0.8-2.9-1.9-3.9-0.6c-0.5,0.5-0.4,1.4-0.4,2c0,0.8,0.1,1.6,0.3,2.4c0.2,0.9,0.4,1.9,0.5,2.9c-0.2,0.5-0.3,0.9-0.5,1.4
			c-0.9,2.3-4.1,8.2-4.5,10.3c-0.2,1.2,0.2,2.2,0.9,3.3c0.1,0.1,0.1,0.2,0.2,0.3c0.4,0.6,0.9,1.2,1.3,1.8c0,0.1,0.1,0.1,0.2,0.1
			c2.2,0.2,17.1-17.9,17-18.8c-0.1-0.5-0.5-0.9-0.8-1.3c-0.3-0.4-0.6-0.8-0.8-1.1l-0.2-0.3l-0.2-0.3
			C113.7,287.4,112.3,285.2,111.3,284.4z"/>
		<path class="st1" d="M241.8,295.4c-1.8,3-3.7,5.9-5.9,8.7c-3,3.9-6.4,7.5-9.8,11.1c-0.1-0.1-0.1-0.2-0.2-0.3
			c3.5-3.6,7-7.2,9.9-11.2c2.1-2.8,4-5.6,5.7-8.5l0.1,0.2L241.8,295.4z"/>
		<path class="st6" d="M185.6,205.5c-6,13.3-15.9,25.5-17.1,40.2c-0.3,3.9,0.1,7.8,1.3,11.5c0.1,0.2,0.5,0.1,0.4-0.1
			c-4.7-14.3,3.4-28.3,10.2-40.7c2-3.5,3.9-7.1,5.6-10.8C186,205.4,185.7,205.3,185.6,205.5z"/>
		<path class="st0" d="M263.2,172.2c0.2-0.3,0.4-0.7,0.4-1c0.2-1.4-0.3-3-0.7-4.4c-0.4-1.3-2.7-4.5-3.2-4.8c0,0,0,0,0-0.1
			c-3.6-3.3-7.4-6.4-11.4-9.3c-0.3,0.4-0.6,0.8-0.9,1.1l0,0.1c-0.5,1.2-1.2,2.2-2.1,3.1l-0.6,0.4c0.4,1.1,0.2,2.5,0.2,3.7
			c0,0.2,0,0.5-0.1,0.7c-0.1,1-0.1,2.1,0,3.1c0.3,2,1.6,3.8,2.4,5.6c0.4,1,0.8,1.9,1.2,2.9c0.2,0.5,0.4,1.3,1,1.5
			c1.6,0.3,0.9-2.8,0.8-3.4c-0.4-1.4-0.8-2.8-1.3-4.1l0.2,0.1c1,0.5,3.2,2.1,3.4,2.2c2,2.1,3.4,4.9,4.9,7.2c0.3,0.4,0.6,1.1,1.2,1.1
			c0.7-0.1,0.9-0.8,0.9-1.3c0,0,0,0,0,0c0,0,0,0,0,0.1c0.1,0.2,0.2,0.4,0.4,0.6c0,0,0.1,0.1,0.1,0.1c0.3,0.4,0.9,0.6,1.5,0.5
			c0.5-0.2,0.6-0.7,0.7-1c0-0.3,0.1-0.5,0.1-0.8v0c0.1,0,0.2,0,0.3,0c0.5-0.2,0.8-0.8,0.9-1.3c0-0.7,0-1.3-0.2-1.9
			c0-0.1,0-0.2-0.1-0.3C263.1,172.3,263.2,172.2,263.2,172.2z"/>
		<path class="st2" d="M255.1,167.9c2.2,2.8,4.4,5.8,4.7,9.3c-0.2-0.2-0.3-0.4-0.4-0.6c-0.5-3.2-2.5-6-4.6-8.6
			C254.7,167.9,255,167.8,255.1,167.9z"/>
		<path class="st2" d="M257.1,166.3c2,2.9,4.8,6.1,5.2,9.6c-0.1,0-0.2,0-0.3,0v0c-0.4-3.5-3.2-6.7-5.2-9.6
			C256.8,166.3,257,166.1,257.1,166.3z"/>
		<path class="st2" d="M259,164.4c1.5,1.3,2.3,3,3,4.7c0.5,1,0.9,2,1.2,3c-0.1,0.1-0.1,0.1-0.2,0.2c0,0.1,0,0.2,0.1,0.3
			c-0.3-1.1-0.7-2.2-1.2-3.2c-0.8-1.7-1.5-3.5-3-4.8C258.7,164.5,258.9,164.3,259,164.4z"/>
		<path class="st0" d="M21.5,161.6c-0.5,0-0.6-0.8-1.1-0.9h-0.1c-1.3,0.2-2.7,0.1-4-0.2l-0.7-0.3c-0.9,0.9-5.3,0.7-7.9,4.9
			c-1,1.7-2.3,5.9-3.1,7.7c-0.3,0.7-1.3,2.9,0,3.3c0.4,0.1,0.9-0.1,1.1-0.4c0.6-0.6,1-1.6,1.5-2.4c-0.4,1.2-0.7,2.4-0.9,3.6
			c-0.3,1.2-0.4,2.4-0.5,3.7c0,0.7-0.1,2,0.6,2.4c0.5,0.3,0.9,0.1,1.1-0.4c0.1,0.5,0.3,1,0.9,1c1.1,0.1,1.4-1.6,1.5-2.3
			c0.8-2.8,1.3-5.8,2.8-8.4h0.4c-0.9,2-1.6,4.1-2,6.2c-0.2,0.7-1.4,4.5,0.2,4.6c0.7,0.1,1-1.1,1.1-1.5c0.5-1.2,0.8-2.4,1.2-3.6
			c0.4-1.4,0.9-2.9,1.6-4.3c-0.4,1.3-0.6,2.7-0.7,4c0,0.5-0.3,3.8,1.1,3.5c0.5-0.1,0.5-0.8,0.6-1.2c0.2-1.2,0.3-2.4,0.8-3.5
			C17.8,176.1,21.7,167.4,21.5,161.6z"/>
		<path class="st1" d="M199.1,88.6c-1.2,2.9-2.1,5.9-2.7,9c-0.3,1.5-0.6,3-0.8,4.5c-0.1,1-0.2,1.9-1.3,2.5c-0.6,0.3-1.3,0.5-2,0.6
			c0-11.1,0.9-24.5,12.1-31.2l0,0c2.7,0.7,5,2.5,6.1,4.8C204.9,79.5,201.1,84,199.1,88.6z"/>
		<path class="st1" d="M217,123.7c0,0-5.2-6.1-8.2-10.5c-0.4,0-3.6,0.2-4,0.2c-1.5-0.2-3.1-0.3-4.5-1c-1.2-0.6-2.1-1.4-2.8-2.4
			c-1.6-2.4-1.8-5.2-1.9-7.9c0-0.1-0.1-0.2-0.2-0.2c-0.9-0.1-1.8,0.1-2.7,0.3c-0.1,0-0.2,0.2-0.1,0.3c0,0,0,0,0,0.1c0,0,0,0,0,0
			c-1.3,8.8-2.3,17.8-2.5,26.7c0,1.6,0.1,3.3,1.1,4.7c0.9,1.2,2.3,2,3.8,2.2c1.9,0.4,3.8,0,5.7-0.5c2.3-0.7,4.5-1.5,6.8-2.3L223,128
			c0.2-0.2,0.4-0.4,0.5-0.7c0-1.2-1.9-4.2-2.4-5.4C219,122.8,217,123.7,217,123.7z"/>
		<path class="st1" d="M208.3,86c-4,5.1-5.5,11.4-4.2,17.5c0,0.2,0.4,0.1,0.4-0.1c-1.2-6,0.3-12.3,4.2-17.2
			C208.7,86,208.4,85.8,208.3,86z"/>
		<path class="st0" d="M80.3,56.9c0-0.1-0.1-0.2-0.2-0.2l-7.2-1c-1.7-0.2-3.4-0.6-5.1-0.5l0,0c0.1-0.3-0.4-0.4-0.5-0.1l0,0.1
			c-0.1,0-0.3,0-0.4,0c-0.3,0.1-0.2,0.5,0.1,0.4c0.1,0,0.1,0,0.2,0c-2.1,8.5-3.4,17.1-3.9,25.7c0,0.1,0.1,0.2,0.2,0.3c0,0,0,0,0,0
			c3.9-0.1,7.8-0.2,11.7-0.3c1.5-0.1,1.5-0.5,1.8-1.7c0.1-0.7,0.7-4.5,1.4-8.9c0.4-2.5,0.8-5.2,1.1-7.5C80,59.8,80.3,57.1,80.3,56.9
			z"/>
		<path class="st2" d="M79.2,63.2c-0.8-0.2-1.6-0.4-2.4-0.7c-0.9-0.3-1.8-0.5-2.7-0.1c-0.1-0.1-0.2-0.1-0.3,0c0,0-0.1,0.1-0.1,0.1
			c-0.1,1.9,0,3.7,1.2,5.3c0.9,1.1,2.1,2.2,3.4,3c0.4-2.5,0.8-5.2,1.1-7.5C79.4,63.2,79.3,63.2,79.2,63.2z"/>
		<path class="st0" d="M93.7,47.5c0-0.9,0-1.9-0.1-2.9c0-0.7-0.1-1.4-0.2-2.1c-0.3-2-0.8-4-1.7-5.8c-0.7-1.6-1.7-3.1-3.1-4.3
			c-1.5-1.1-3.3-1.8-5.2-1.9c-3.8-0.4-7.7,0.7-10.9,2.4c-3.7,2-7.4,5.2-8.2,9.1c-0.3,1.4-0.2,2.8,0.4,4.1c0,0-0.1,0.1-0.1,0.2
			c0.6,2.1,1.1,4.2,1.4,6.3c0.4,2.1,0.5,4.2,1.2,6.3c1,3,9.5,7.4,12.4,9.1c3.1,1.8,6.1,2.3,8.8-0.2c3-2.8,3.9-5.7,4.8-9.4
			C94.3,53.5,93.7,48.5,93.7,47.5z"/>
		<path class="st1" d="M81,51.8c0,1.1-0.6,2-1.3,2c-0.8,0-1.4-0.9-1.4-2c0-1.1,0.6-2,1.3-2C80.4,49.8,81,50.7,81,51.8z"/>
		<path class="st1" d="M91.6,49.8c0,1.1-0.6,2-1.3,2c-0.8,0-1.4-0.9-1.4-2s0.6-2,1.3-2C91,47.9,91.6,48.7,91.6,49.8z"/>
		<path class="st2" d="M86.3,49.1c-0.1-0.2-0.5-0.2-0.4,0c0.4,1.5,0.8,3.1,1.1,4.7c0.2,0.9,0.4,1.8,0,2.7c-0.4,0.7-0.9,1.3-1.6,1.8
			c-0.2,0.2,0.1,0.4,0.2,0.3c1.1-1,2-2,2-3.5C87.5,53.1,86.9,51,86.3,49.1z"/>
		<path class="st5" d="M88.6,60.2c-2.2,0.4-4.5,0.8-6.7,1.1c-0.1,0-0.2,0.1-0.2,0.2c0,0,0,0,0,0c0.3,0.3,0.5,0.6,0.8,0.8
			c0,0,0,0,0.1,0c0.9,0.7,2.2,1,3.4,0.9c1.6-0.3,2.6-1.7,2.8-2.9C88.8,60.3,88.7,60.2,88.6,60.2C88.6,60.2,88.6,60.2,88.6,60.2z"/>
		<path class="st0" d="M71.6,53c-0.3-0.5-1-0.6-1.3-0.2c-1-1.2-3.1-1.8-4.1-0.2c-1.1,1.8,0.3,4.5,1.8,5.9c1.7,1.6,3.6-0.7,3.9-2.1
			c0.1-0.6,0.1-1.3,0-1.9C71.9,54,71.9,53.4,71.6,53z"/>
		<path class="st2" d="M70.8,57.1c-1.1-0.2-1.3-1.7-1.5-2.5c-0.2-0.6-0.5-1.2-1-1.7c-0.2-0.2-0.5,0.1-0.3,0.2c0.9,0.8,1,1.9,1.4,2.9
			c0.3,0.6,0.6,1.3,1.4,1.4C71,57.5,71,57.1,70.8,57.1z"/>
		<path class="st1" d="M82.3,46.2c-0.2-0.7-1.1-0.8-1.7-1c-1.9-0.4-4-0.1-5.2,1.5c0,0,0,0.1,0,0.1c-0.5,0.7-0.8,1.6,0.3,1.9
			c1.1,0.3,2.3-0.5,3.4-0.5c1-0.1,1.8,0,2.6-0.6C82,47.3,82.4,46.7,82.3,46.2z"/>
		<path class="st1" d="M93.5,42.5c-0.3-0.1-0.6-0.2-0.9-0.2c-2-0.4-4-0.1-5.2,1.5c0,0,0,0.1,0,0.1c-0.5,0.7-0.8,1.6,0.3,1.9
			s2.3-0.5,3.4-0.5c1-0.1,1.8,0,2.6-0.6l0.1-0.1C93.6,43.9,93.6,43.2,93.5,42.5z"/>
		<path class="st0" d="M98.1,79.3C96,77,92.5,75.9,89.2,75c-3.9-1.1-7.9-1.7-12-1.9c-2.1-0.1-4.2-0.1-6.3,0c-0.3,0-2.4,0-2.3,0.6
			l-10.9,3.7c-3.6,1.2-7.4,2.3-10.7,4c-3,1.5-5.1,3.6-6.3,6.3c-1.4,3.1-1.7,6.5-1.9,9.7c-0.5,7.4-0.9,14.8-1.2,22.1
			c-0.1,3.7,3,7.3,3,11c0,1.7-3.4,3.6-3.2,5.3c0.1,1.1,1,1.5,2.3,1.6c8.5,0.4,17-1.4,25.4-2.2c2.1-0.2,4.3-0.4,6.4-0.4
			c1.9,0,3.9,0.2,5.8,0c1.3-0.2-1-1.9-0.5-2.9c0.8-1.7,4.6-2.2,5.4-4c3.1-6.9,6.2-13.8,9.4-20.7c1.6-3.5,3.2-6.9,4.9-10.4
			c1.5-3.2,3.3-6.4,3.8-9.9C100.5,84.4,100,81.6,98.1,79.3z"/>
		<path class="st4" d="M105.9,273.1c-7.5-17.9-14.9-35.8-18-54.8c-3.1-18.8-2.7-37.9-4.1-56.8c-0.8-10.5-2.1-20.9-4.9-31.1
			c0-0.1-0.1-0.1-0.2-0.1l-21.4,0.2l-10.7,0.1l-5.3,0c-0.9,0-2.5-0.2-3.2,0.4c0-0.2,0.1-0.4,0.1-0.6c0-0.2-0.4-0.2-0.4,0
			c-1.5,10.3-5.6,20.1-9,29.9c-3.3,9.8-5.8,19.8-7.3,30c-1.5,10.1-2.4,20.3-2.7,30.5c-0.4,10.4-0.5,20.8-0.3,31.2
			c0.2,11.7,1.1,23.5,4,35c0,0.1,0.1,0.1,0.2,0.1l11.9-2.4c0.1,0,0.1-0.1,0.1-0.2c-0.1-6.1,1.3-12.1,2.7-18.1
			c1.5-6,2.6-11.9,3.1-18.1c0.5-6.3,1.1-12.6,2.4-18.8c1.2-6.1,8.4-29.2,9.2-31.5c1.6,5.1,11.2,34,14.8,40.2l11.4,19.2L91.2,279
			c0.1,0.1,0.2,0.1,0.3,0.1l14.4-5.7C105.9,273.3,105.9,273.2,105.9,273.1z"/>
		<path class="st1" d="M94.8,34.6c-1.1-1.7-3-2.7-5-3.3c-4.8-1.5-10.6-2.7-15.5-1.1c-4.3,1.4-8.1,4.8-10.6,8.1
			c-1.6,2-2.5,4.4-2.5,6.9c0,2.9,0.2,5.8,0.3,8.7c-0.4-0.3-0.7-0.7-0.8-1.1c0-0.1-0.1-0.2-0.2-0.1s-0.2,0.1-0.1,0.2
			c0.6,1.7,2.9,2.2,4.5,1.4c0.7-0.4,1.3-0.9,1.6-1.6c0.2,0.1,0.4,0.1,0.5,0.1c0.8,0,1.3-0.6,1.7-1.2c0.4,0.6,1.1,1,1.9,0.5
			c1.1-0.7,1.3-2.4,1.4-3.5c0.4-2.6,0.1-5.2,0.5-7.8c0.1,0.7,0.1,1.5,0.8,2c0.7,0.5,1.5,0.7,2.4,0.5c2.3-0.3,3.1-2.5,3.5-4.4
			c0.7,1.1,2.3,1.5,3.5,0.9c0.7-0.3,1.1-0.9,1.2-1.6c1.8,1.2,3.7,2.4,6,2.7c1.8,0.2,3.8-0.3,4.9-1.7C95.8,37.8,95.7,36,94.8,34.6z"
			/>
		<path class="st1" d="M23.3,306.8c-0.3-0.9-0.8-1.7-1.6-2.4c-0.4,0.4-1,0.8-1.7,1.3c0.5,0.8,1.2,1.5,2,1.9c0.3,0.2,0.7,0.2,1.1,0
			C23.4,307.5,23.4,307.1,23.3,306.8z"/>
		<path class="st1" d="M26.6,302.9c-0.6-0.9-1.7-1.4-2.8-1.8c-0.2,0.6-0.4,1.3-0.7,1.9c0.8,0.5,1.7,1.1,2.6,1.1
			c0.4,0.1,0.8-0.1,1-0.3C27,303.6,26.8,303.2,26.6,302.9z"/>
		<path class="st1" d="M104.1,295.3c-0.7-0.7-1.7-1.1-2.7-1.3c-0.2,0.5-0.4,1.2-0.7,1.9c0.9,0.4,1.9,0.8,2.7,0.7
			c0.4,0,0.7-0.2,0.9-0.5C104.6,295.8,104.4,295.5,104.1,295.3z"/>
		<path class="st1" d="M104.8,290.5c-1-0.5-2.3-0.5-3.4-0.3c0.2,0.7,0.3,1.3,0.5,2c1,0.1,2.1,0.1,2.9-0.2c0.4-0.1,0.6-0.4,0.7-0.7
			C105.5,290.8,105.1,290.6,104.8,290.5z"/>
		<path class="st1" d="M50.5,194l-4.1-14.3l-2-7.1c-0.7-2.4-1.4-4.8-1.7-7.3c0-0.2-0.4-0.2-0.4,0c0.2,2.3,0.9,4.5,1.5,6.7l2.1,7.4
			c1.4,4.9,2.8,9.8,4.2,14.7c0,0.1,0.1,0.2,0.2,0.1C50.4,194.2,50.5,194.1,50.5,194z"/>
		<path class="st3" d="M113.1,116.2c-0.4-2.2-1-4.3-2-6.3c-0.9-2-2.3-3.7-3.1-5.7c-1-2.3-0.4-4.8,0-7.2c0.4-2.1,0.6-4.3,0.5-6.5
			c-0.2-3.8-1.5-7.6-4.2-10.5c-2.8-3.1-6.7-4.4-11-5C91,74.6,82,72.3,79.9,72.8c-1.9,0.4-3.2,3-4.4,4.4c-1.5,1.8-2.8,3.6-4.2,5.5
			c-3,4.2-5.8,8.6-8.3,13.1c-1.2,2.2-2.4,4.5-3.5,6.8c-1,2.1-2.1,4.2-3.8,5.9c-0.8-11.6,2.4-22.9,7.8-33.5c0-0.1,0-0.1,0-0.2
			c0-0.1-0.1-0.2-0.2-0.2c0,0,0,0-0.1,0c-4.3,1.1-9.3,1.9-13.4,3.5c-3.4,1.3-7,2.8-9.2,5.6c-2.1,2.6-2.6,5.9-2.9,9.1
			c-0.1,1.7-0.2,3.4-0.4,5.1c1.4,7.1-1.8,13.9-2.7,20.9c-0.3,1.9-0.3,3.7,0.1,5.6c0.5,2.2,1.3,4.2,1.3,6.4c0,0.3,0,0.6,0,0.9
			c0.6,0.1,1.3,0.2,2,0.2c2.3,0,4.6-0.4,6.9-0.5c2.3-0.1,4.6,0.1,6.8,0.6c2.3,0.5,4.6,1.3,6.9,1.8c2.3,0.5,4.6,0.7,7,0.6
			c1,0,1.9-0.1,2.9-0.3c1,0.1,2.1,0.2,3.1,0.2c2.2,0,4.3-0.5,6.3-1.3c2.2-0.9,4.4-1.9,6.5-3c0.1,0,0.1-0.1,0.2-0.1
			c0.5-0.2,1-0.5,1.4-0.8c3.3-2.4,4.1-6.3,4.6-9.9c2.3,3.8,4,7.8,5.3,12c0,0.1,0.1,0.2,0.2,0.1c4.6-1.5,9.1-3.3,13.4-5.4
			c1-0.5,2.2-1,3.1-1.6c0.7-0.5,0.7-1.3,0.8-2C113.5,120.2,113.4,118.2,113.1,116.2z"/>
		<path class="st6" d="M62,47.5c-1,0.7-2.5,0.5-3.2-0.4c-0.1-0.1-0.1-0.1-0.2-0.2c-0.8-1.1-0.5-2.4,0-3.6c0-0.1,0-0.2-0.1-0.2
			c-0.1,0-0.2,0-0.2,0c-0.8,0.7-1.9,1.3-2.9,0.6c-0.8-0.6-0.7-1.4-0.4-2.2c0.4-1.3,1.1-2.6,2-3.7c0.1-0.2-0.2-0.4-0.3-0.2
			c-0.7,0.9-1.3,1.9-1.7,3c-0.3,0.8-0.7,1.8-0.4,2.7c0.5,1.7,2.4,1.3,3.6,0.6c-0.4,1.2-0.4,2.5,0.5,3.6c0.9,1.1,2.5,1.3,3.7,0.5
			c0,0,0,0,0,0C62.4,47.7,62.2,47.4,62,47.5z"/>
		<path class="st6" d="M92.7,33.7c-1.8-4.1-6.3-6.6-11.1-6.2c-0.2,0-0.3,0.4,0,0.4c4.6-0.5,9,1.9,10.8,5.9
			C92.4,34.1,92.8,34,92.7,33.7z"/>
		<path class="st2" d="M64.1,88c-3.1,4-5.5,8.5-6.9,13.2c0,0.1,0,0.2,0.1,0.2c0.1,0,0.2,0,0.2-0.1c1.4-4.7,3.7-9.1,6.8-13.1
			C64.6,88,64.3,87.8,64.1,88z"/>
		<path class="st7" d="M96.9,75.6c-5.5,2.8-10.7,6.8-12.6,12.5c-1,3.1-0.4,6.1-0.5,9.2c0,1.9-0.7,3.6-1,5.4c-0.2,1.3,0,2.7,0.6,3.9
			c0.8,1.7,2,3.3,3,5l3.4,5.3c0.1,0.1,0.2,0.1,0.3,0.1c0.1-0.1,0.1-0.2,0.1-0.2c-1.8-2.8-3.7-5.6-5.4-8.4c-0.9-1.4-1.7-3-1.7-4.7
			c0-1.7,0.7-3.2,1-4.9c0.4-3-0.4-6.1,0.2-9.1c0.7-2.9,2.1-5.5,4.3-7.7c2.4-2.5,5.4-4.4,8.6-6C97.3,75.8,97.1,75.5,96.9,75.6z"/>
		<path class="st0" d="M130.3,153.9c-0.5-1.2-1.4-2.4-2.1-3.5c-0.1-0.1-0.2-0.1-0.3-0.1c-0.1,0.1-0.1,0.2-0.1,0.2c0,0,0,0-0.1,0
			c-1.7,1.4-3.8,2.4-5.6,3.6c-1.7,1.1-6.9,5.3-8.3,6.7c-2.8,2.7-3.4,8.2-3.3,8.8c0.1,0.5,0.5,0.8,1,0.9c-0.1,1,0,2.1,1,2.8
			c0.7,0.4,1.3,0.4,1.7,0.1c0.2,0.6,0.4,1.4,1.1,1.5c1,0.2,1.4-0.7,1.7-1.7c0.2,0.1,0.5,0.2,0.7,0.2c1.4,0.1,1.8-1.3,2-2.3
			c0.2-0.8,0.4-1.6,0.7-2.3c0.3-0.2,0.6-0.3,0.6-0.4c1-0.6,2.1-1.1,3.3-1.4l0.2-0.1c-0.5,0.8-1.1,1.6-1.7,2.3
			c-0.5,0.6-0.9,1.4-0.4,2.1s1.3,0.5,1.9,0.1c2.3-1.3,4.5-5.7,5-8c0.3-1.5-0.1-5.4,0.1-6.7l0.1-0.2
			C130.4,155.7,130.7,154.9,130.3,153.9z"/>
		<path class="st7" d="M75.6,110.5c-3,1.6-6.2,2.7-9.6,3.2c-0.2,0-0.1,0.4,0.1,0.4c3.4-0.5,6.7-1.6,9.7-3.2c0.1-0.1,0.1-0.2,0.1-0.3
			C75.8,110.5,75.7,110.5,75.6,110.5L75.6,110.5z"/>
		<path class="st7" d="M42.5,86.5c-1.5,3.8-3.2,7.6-4.3,11.5c-1.1,3.8-0.9,7.6-0.7,11.5c0,0.2,0.4,0.2,0.4,0
			c-0.2-3.9-0.4-7.9,0.8-11.7c1.1-3.8,2.7-7.5,4.2-11.2C43,86.4,42.6,86.3,42.5,86.5z"/>
		<path class="st1" d="M80.3,148.7c-5.4-1.8-9.5-5.9-11-11c0-0.1-0.1-0.2-0.2-0.1c-0.1,0-0.2,0.1-0.1,0.2c1.5,5.2,5.7,9.5,11.3,11.3
			C80.5,149.1,80.6,148.7,80.3,148.7z"/>
		<path class="st2" d="M16.4,162.8c-1.2,2.6-3.3,4.9-6,6.4c-0.2,0.1-0.5-0.2-0.2-0.3c2.6-1.5,4.7-3.6,5.9-6.2
			C16.2,162.4,16.5,162.6,16.4,162.8z"/>
		<path class="st2" d="M10,172.2c-1.4,3.1-2.3,6.3-2.7,9.6c0,0.2,0.4,0.2,0.4,0c0.4-3.3,1.3-6.5,2.7-9.5
			C10.5,172.1,10.1,172,10,172.2z"/>
		<path class="st2" d="M127.3,162.6c-0.1-0.9-0.8-1.8-1.9-1.6c-0.8,0.1-1,0.7-1.2,1.4c-0.2-0.2-0.4-0.3-0.6-0.4
			c-1.7-0.6-1.9,1.6-2.1,2.6c-0.2,1.3-0.9,2.2-1.4,3.4c-0.3,0.6-0.3,1.3,0,1.9c0,0.1,0.2,0.1,0.2,0.1c0.5,0.2,1.1,0.1,1.6-0.2
			c0.7-0.4,1.2-1.1,1.4-1.8c0,0,0.1-0.1,0.1-0.1C125.8,167.6,127.6,164.6,127.3,162.6z"/>
		<path class="st2" d="M129.1,155.9c-1.1-0.1-1.5,1-1.3,1.8c0,0.3,0.5,1.9,0.9,3.2c0.2,0.3,0.4,0.6,0.5,0.9c0.2,0.5,0.3,1,0.3,1.5
			c0.1,0,0.2,0,0.2-0.1c0.9-1.4,1.1-2.9,1.1-4.5C130.8,157.7,130.6,156,129.1,155.9z"/>
		<path class="st2" d="M119.9,163.4c-1.6,2.9-3.2,5.8-3.3,9.1c0,0.1,0.1,0.2,0.2,0.2s0.2-0.1,0.2-0.2c0.1-3.2,1.6-6.1,3.2-9
			C120.4,163.4,120.1,163.2,119.9,163.4z"/>
		<path class="st2" d="M116.6,162.7c-1.7,3.2-2.7,6.6-2.9,10.1c0,0.2,0.4,0.2,0.4,0c0.2-3.5,1.1-6.8,2.8-9.9
			C117.1,162.7,116.8,162.5,116.6,162.7z"/>
		<path class="st2" d="M114.5,161.7c-1.4,2.4-2.3,5.1-2.8,7.8c0,0.2,0.3,0.3,0.4,0.1c0.5-2.7,1.4-5.3,2.8-7.7
			C115,161.7,114.6,161.5,114.5,161.7z"/>
	</g>
</g>
</svg>
