<?xml version="1.0" encoding="utf-8"?>
<!-- Generator: Adobe Illustrator 25.4.1, SVG Export Plug-In . SVG Version: 6.00 Build 0)  -->
<svg version="1.1" id="Layer_1" xmlns="http://www.w3.org/2000/svg" xmlns:xlink="http://www.w3.org/1999/xlink" x="0px" y="0px"
	 viewBox="0 0 267 321" style="enable-background:new 0 0 267 321;" xml:space="preserve">
<style type="text/css">
	.st0{fill:#F7E9E1;}
	.st1{fill:#FFFFFF;}
	.st2{fill:#798650;}
	.st3{fill:#8FA662;}
	.st4{fill:#5D6637;}
	.st5{fill:#99A5CC;}
	.st6{fill:#C15525;}
	.st7{fill:#B36744;}
	.st8{fill:#FFA57A;}
	.st9{fill:#DD6B4B;}
	.st10{fill:#401D1D;}
	.st11{fill:#FFB785;}
	.st12{fill:#ED965A;}
	.st13{fill:#CCD2E6;}
	.st14{fill:#5D5F9C;}
</style>
<g id="Layer_2_00000097465120950817771440000001657763068922041257_">
	<g id="_1">
		<polygon class="st0" points="209.3,31.5 207.6,50.5 206.3,65.7 204.2,89.3 192.5,222.5 190.2,222.2 201.9,89.7 204,65.7 
			205.3,50.6 207,31.5 		"/>
		<path class="st1" d="M54.9,193.4c0,0-22.2,47.3-26.3,61s5.4,38.2,93.5,39.9s102.6-3,106.1-5.4s13-2.7,16-22.5
			c2.9-19.9,3.8-52.8,3.8-52.8L54.9,193.4z"/>
		<polygon class="st0" points="159.1,31.5 157.1,53.6 156,65.7 153.6,93.3 141.6,228.8 136.7,228.1 148.7,92.6 151.1,65.7 
			152.1,53.9 154.1,31.5 		"/>
		<polygon class="st0" points="262,31.5 260.5,48.2 259,65.7 256.8,89.8 245.6,216.2 240.8,215.5 252,88.5 254,65.7 255.6,47.8 
			257.1,31.5 		"/>
		<polygon class="st0" points="57.3,31.5 54.8,59.9 54.2,65.7 51.9,92.2 41.8,205.6 41.3,212.1 36.3,212.1 36.9,205.6 46.9,92.7 
			49.3,65.7 49.8,60.2 52.3,31.5 		"/>
		<polygon class="st0" points="171.9,212.1 62,212.1 41.3,212.1 36.3,212.1 36.9,205.6 41.8,205.6 61.5,205.6 171.9,205.5 		"/>
		<rect x="48" y="115.6" class="st0" width="203.3" height="3.1"/>
		<rect x="52.4" y="31.5" class="st0" width="203.3" height="3.1"/>
		<polygon class="st0" points="105.7,31.5 103.4,56.9 102.7,65.7 100.9,85.6 100.9,85.6 88.4,227.5 86.2,227.1 98.6,85.5 
			100.4,65.7 101.1,57 103.4,31.5 		"/>
		<path class="st2" d="M71,74.5c-2.7,18.1-4.9,36.4-6.5,54.8c-1.6,18.4-2.7,36.9-3.2,55.5c-0.3,10.4-0.4,20.9-0.4,31.4
			c0,0.1,0.1,0.2,0.1,0.2c0.1,0,0.1-0.1,0.1-0.2c-0.1-18.5,0.3-37,1.3-55.4c1-18.5,2.6-37,4.7-55.4c1.2-10.3,2.5-20.5,4.1-30.7
			C71.3,74.4,71,74.3,71,74.5z"/>
		<path class="st2" d="M174.4,70c-7.7,5.9-15.2,12.2-22.5,18.7c-7.4,6.6-14.6,13.4-21.6,20.6c-7,7.1-13.8,14.6-20.4,22.3
			c-6.7,7.8-13.2,15.8-19.4,24.2c-6.3,8.3-12.3,16.9-18.2,25.7c-0.7,1.1-1.5,2.2-2.2,3.4c-0.1,0.2,0.1,0.4,0.2,0.3
			c5.8-8.9,11.8-17.5,18-25.9c6.2-8.4,12.6-16.5,19.2-24.3c6.6-7.8,13.4-15.3,20.3-22.6c7-7.3,14.2-14.3,21.5-20.9
			c7.3-6.7,14.8-13,22.4-19c0.9-0.7,1.9-1.5,2.8-2.2c0.1-0.1,0.1-0.2,0-0.3C174.5,69.9,174.4,69.9,174.4,70z"/>
		<path class="st3" d="M75.1,65.9c-0.6-1.1-1.5-1.8-2.5-2.1c-0.1,0-0.2,0-0.3-0.1l0,0c-1.2-0.2-2.4,0.6-3.3,1.7
			c-2,2.2-2.8,5.8-2.6,9.1c0.1,2.2,0.6,4.3,1.4,6.2c0.4,1,1.1,2.5,2,2.5c0.1,0,0.2,0,0.3-0.1c0,0.1,0.1,0.1,0.1,0.1c2.5-1,4-4,5-7
			C76.3,73,76.9,68.9,75.1,65.9z"/>
		<path class="st4" d="M72.6,63.9c-0.9,6.4-1.7,12.9-2.5,19.3c-0.1,0-0.2,0.1-0.3,0.1c0.8-6.5,1.6-13,2.5-19.4l0,0
			C72.4,63.8,72.5,63.9,72.6,63.9z"/>
		<path class="st3" d="M63.4,83.2c-1-0.3-2-0.2-2.9,0.4c-0.1,0.1-0.2,0.1-0.2,0.2l0,0c-1,0.9-1.6,2.4-1.8,4
			c-0.5,3.4,0.4,6.9,2.1,9.4c1.1,1.6,2.5,2.9,4,3.7c0.7,0.4,2,1.1,2.7,0.3c0.1-0.1,0.1-0.2,0.2-0.3c0,0,0.1,0,0.1-0.1
			c1.5-2.8,1.4-6.5,0.8-9.7C67.6,87.8,66.2,84.1,63.4,83.2z"/>
		<path class="st4" d="M60.5,83.6c2.2,5.8,4.5,11.6,6.8,17.3c-0.1,0.1-0.1,0.2-0.2,0.3c-2.3-5.8-4.6-11.6-6.9-17.4l0,0
			C60.4,83.8,60.5,83.7,60.5,83.6z"/>
		<path class="st3" d="M78.9,101.3c-0.1-1.3-0.5-2.6-1.1-3.6c-0.1-0.1-0.1-0.2-0.2-0.2l0,0c-0.9-1.1-2.2-1.3-3.4-1.2
			c-2.5,0.3-4.8,2.5-6.1,5.5c-0.8,1.9-1.3,4-1.5,6.2c-0.1,1.1-0.2,2.9,0.6,3.5c0.1,0.1,0.2,0.1,0.3,0.2c0,0.1,0,0.1,0.1,0.1
			c2.4,1.1,5-0.1,7.1-1.9C76.9,108,79.2,105.1,78.9,101.3z"/>
		<path class="st4" d="M77.8,97.7c-3.5,4.6-6.9,9.2-10.3,13.9c-0.1,0-0.2-0.1-0.3-0.2c3.4-4.7,6.9-9.4,10.4-14l0,0
			C77.7,97.6,77.7,97.6,77.8,97.7z"/>
		<path class="st3" d="M60,113c-1-0.3-2-0.2-2.9,0.4c-0.1,0.1-0.2,0.1-0.2,0.2l0,0c-1,0.9-1.6,2.4-1.8,4c-0.5,3.4,0.4,6.9,2.1,9.4
			c1.1,1.6,2.5,2.9,4,3.7c0.7,0.4,2,1.1,2.7,0.3c0.1-0.1,0.1-0.2,0.2-0.3c0,0,0.1,0,0.1-0.1c1.5-2.8,1.4-6.5,0.8-9.7
			C64.2,117.6,62.8,113.9,60,113z"/>
		<path class="st4" d="M57.1,113.4c2.2,5.8,4.5,11.6,6.8,17.3c-0.1,0.1-0.1,0.2-0.2,0.3c-2.3-5.8-4.6-11.6-6.9-17.4l0,0
			C56.9,113.6,57,113.5,57.1,113.4z"/>
		<path class="st2" d="M57.8,145.1c-1-0.3-2-0.2-2.9,0.4c-0.1,0.1-0.2,0.1-0.2,0.2l0,0c-1,0.9-1.6,2.4-1.8,4
			c-0.5,3.4,0.4,6.9,2.1,9.4c1.1,1.6,2.5,2.9,4,3.7c0.7,0.4,2,1.1,2.7,0.3c0.1-0.1,0.1-0.2,0.2-0.3c0,0,0.1,0,0.1-0.1
			c1.5-2.8,1.4-6.5,0.8-9.7C62,149.7,60.6,145.9,57.8,145.1z"/>
		<path class="st4" d="M54.9,145.5c2.2,5.8,4.5,11.6,6.8,17.3c-0.1,0.1-0.1,0.2-0.2,0.3c-2.3-5.8-4.6-11.6-6.9-17.4l0,0
			C54.7,145.6,54.8,145.5,54.9,145.5z"/>
		<path class="st2" d="M75.5,131.1c-0.1-1.3-0.5-2.6-1.1-3.6c-0.1-0.1-0.1-0.2-0.2-0.2l0,0c-0.9-1.1-2.2-1.3-3.4-1.2
			c-2.5,0.3-4.8,2.5-6.1,5.5c-0.8,1.9-1.3,4-1.5,6.2c-0.1,1.1-0.2,2.9,0.6,3.5c0.1,0.1,0.2,0.1,0.3,0.2c0,0.1,0,0.1,0.1,0.1
			c2.4,1.1,5-0.1,7.1-1.9C73.5,137.9,75.7,134.9,75.5,131.1z"/>
		<path class="st4" d="M74.3,127.5c-3.5,4.6-6.9,9.2-10.3,13.9c-0.1,0-0.2-0.1-0.3-0.2c3.4-4.7,6.9-9.4,10.4-14l0,0
			C74.2,127.4,74.3,127.4,74.3,127.5z"/>
		<path class="st3" d="M182.4,70.9c0.3-1.3,0.3-2.6,0-3.9c0-0.1-0.1-0.2-0.1-0.3l0,0c-0.5-1.5-1.7-2.4-2.8-2.9
			c-2.4-1.1-5.1-0.2-7.2,1.8c-1.3,1.3-2.4,3-3.2,4.9c-0.4,0.9-1,2.6-0.5,3.6c0.1,0.1,0.1,0.2,0.2,0.3c0,0.1,0,0.1,0,0.2
			c1.9,2.3,4.6,2.5,7.1,2C178.6,76,181.6,74.5,182.4,70.9z"/>
		<path class="st4" d="M182.4,67c-4.5,2.4-9,4.8-13.5,7.3c-0.1-0.1-0.1-0.2-0.2-0.3c4.5-2.5,9.1-5,13.6-7.4l0,0
			C182.4,66.7,182.4,66.8,182.4,67z"/>
		<path class="st2" d="M162.4,100.7c0.9-0.6,1.6-1.6,2-2.9c0-0.1,0.1-0.2,0.1-0.3l0,0c0.4-1.6,0-3.2-0.6-4.6c-1.2-3-3.7-4.8-6.2-5.2
			c-1.6-0.2-3.3,0-4.8,0.7c-0.8,0.3-2,1-2.2,2.1c0,0.1,0,0.3,0,0.4c0,0-0.1,0.1-0.1,0.2c0.3,3.4,2.1,6.1,4.2,7.9
			C157,100.9,159.9,102.5,162.4,100.7z"/>
		<path class="st4" d="M164.4,97.8c-4.5-2.4-9.1-4.7-13.6-7c0-0.1,0-0.3,0-0.4c4.6,2.3,9.2,4.6,13.7,7l0,0
			C164.5,97.6,164.4,97.7,164.4,97.8z"/>
		<path class="st2" d="M131,131.8c0.9-0.6,1.6-1.6,2-2.9c0-0.1,0.1-0.2,0.1-0.3l0,0c0.4-1.6,0-3.2-0.6-4.6c-1.2-3-3.7-4.8-6.2-5.2
			c-1.6-0.2-3.3,0-4.8,0.7c-0.8,0.3-2,1-2.2,2.1c0,0.1,0,0.3,0,0.4c0,0-0.1,0.1-0.1,0.2c0.3,3.4,2.1,6.1,4.2,7.9
			C125.6,132,128.5,133.6,131,131.8z"/>
		<path class="st4" d="M132.9,128.9c-4.5-2.4-9.1-4.7-13.6-7c0-0.1,0-0.3,0-0.4c4.6,2.3,9.2,4.6,13.7,7l0,0
			C133,128.7,133,128.8,132.9,128.9z"/>
		<path class="st2" d="M110.8,155.5c0.9-0.6,1.6-1.6,2-2.9c0-0.1,0.1-0.2,0.1-0.3l0,0c0.4-1.6,0-3.2-0.6-4.6c-1.2-3-3.7-4.8-6.2-5.2
			c-1.6-0.2-3.3,0-4.8,0.7c-0.8,0.3-2,1-2.2,2.1c0,0.1,0,0.3,0,0.4c0,0-0.1,0.1-0.1,0.2c0.3,3.4,2.1,6.1,4.2,7.9
			C105.4,155.7,108.3,157.3,110.8,155.5z"/>
		<path class="st4" d="M112.8,152.6c-4.5-2.4-9.1-4.7-13.6-7c0-0.1,0-0.3,0-0.4c4.6,2.3,9.2,4.6,13.7,7l0,0
			C112.9,152.4,112.8,152.5,112.8,152.6z"/>
		<path class="st3" d="M163.7,70.3c-0.4-1.3-1-2.3-1.9-3l-0.2-0.2l0,0c-1.1-0.6-2.4-0.3-3.5,0.3c-2.4,1.3-4,4.4-4.5,7.7
			c-0.3,2.1-0.3,4.3,0,6.5c0.2,1.1,0.5,2.8,1.3,3.1c0.1,0,0.2,0.1,0.3,0c0,0.1,0.1,0.1,0.1,0.1c2.6,0,4.7-2.2,6.3-4.7
			C163.3,77.6,164.8,73.9,163.7,70.3z"/>
		<path class="st4" d="M161.8,67.4c-2.3,5.8-4.5,11.6-6.6,17.5c-0.1,0-0.2,0-0.3,0c2.2-5.9,4.4-11.8,6.7-17.6l0,0L161.8,67.4z"/>
		<path class="st3" d="M131.9,95.9c-0.6-1.1-1.4-1.9-2.4-2.3c-0.1,0-0.2-0.1-0.3-0.1l0,0c-1.2-0.3-2.4,0.4-3.4,1.3
			c-2.1,2-3.1,5.5-3.1,8.9c0,2.2,0.4,4.3,1.1,6.3c0.3,1,1,2.6,1.8,2.6c0.1,0,0.2,0,0.3,0c0,0.1,0.1,0.1,0.1,0.1
			c2.5-0.8,4.2-3.6,5.4-6.5C132.8,103.1,133.6,99.1,131.9,95.9z"/>
		<path class="st4" d="M129.6,93.7c-1.2,6.3-2.4,12.7-3.5,19c-0.1,0-0.2,0-0.3,0c1.1-6.4,2.3-12.8,3.5-19.1l0,0
			C129.4,93.6,129.5,93.6,129.6,93.7z"/>
		<path class="st3" d="M110.3,116.1c-0.7-0.9-1.7-1.5-2.7-1.6c-0.1,0-0.2,0-0.3,0l0,0c-1.2,0-2.3,1-3.1,2.2
			c-1.7,2.5-2.2,6.2-1.7,9.5c0.4,2.1,1.1,4.1,2,5.9c0.5,0.9,1.3,2.3,2.2,2.1c0.1,0,0.2-0.1,0.3-0.1c0,0,0.1,0.1,0.1,0
			c2.3-1.4,3.6-4.7,4.3-7.8C112.3,122.9,112.4,118.7,110.3,116.1z"/>
		<path class="st4" d="M107.7,114.5c-0.2,6.5-0.4,13.1-0.6,19.6c-0.1,0.1-0.2,0.1-0.3,0.1c0.1-6.6,0.3-13.1,0.6-19.7l0,0
			C107.5,114.5,107.6,114.5,107.7,114.5z"/>
		<path class="st5" d="M148.7,184.2c-0.4,6.8-1.2,13.5-2.6,20c-1.3,6.5-3.1,13-5.4,18.9c-1.1,2.9-2.6,5.5-4.5,7.5
			c-1.9,1.8-4,3.3-6.2,4.2c-9.5,4.3-19.7,2.2-29.3-0.4c-4.9-1.4-9.8-3-14.7-4.1c-5.1-1.2-10.2-1.9-15.3-2.1
			c-5.2-0.2-10.5,0.3-15.6,1.2c-4,0.7-8.3,1.9-12.3,0.7c-1.1-0.3-2.2-0.9-3.1-1.7c4.1-7.4,5.8-16.8,6.9-25.9
			c0.6-5.6,1-11.2,1.6-16.8c0.6-5.4,1.2-11.1,3.5-15.7c1.2-2.5,3.1-4.4,5.2-5.4c2.1-1,4.4-1.2,6.7-1.1c2.5,0.1,4.9,0.4,7.4,0.6
			l8.1,0.8l32.4,3l16.1,1.5l8.1,0.8l4.1,0.4c1.3,0.1,2.6,0.2,3.9,0.5c2.3,0.5,4,2.3,4.7,5.3C148.9,178.8,148.9,181.6,148.7,184.2z"
			/>
		<path class="st6" d="M135.8,168.1c0-0.3-0.8,1.2-0.7,0.9c0.2-0.2,0.5-0.4,0.8-0.6c-0.6-6.5-4.8-8.8-8.3-10.1
			c-4.5-1.7-9.6-2-14.1-0.4c-2,0.7-3.9,1.8-5.7,3.4c-0.8,0.8-1.6,1.6-2.3,2.6c-0.8,1-1.4,2.2-2.1,3.3c-1.6,2.4-3.9,2.9-6.1,4
			c-4,2-7.6,5.3-10.3,9.7c-0.7,1.1-1.4,2.3-2.1,3.4c-0.8,1.1-1.8,2.1-2.8,2.9c-1.5,1.1-3.6,2.6-3.6,5.3c0,2.4,1.7,4.2,3.2,5.1
			c4,2.4,8.7,1.4,12.6-0.8c4.4-2.5,8.4-6.4,12.5-9.7c4.4-3.5,8.9-6.7,13.4-9.8c2.3-1.6,4.6-3.1,6.8-4.6c1.1-0.7,2.2-1.5,3.4-2.2
			c1.1-0.6,2.3-1.1,3.5-1.4c0.7-0.1,1.4-0.5,1.9-1.1C135.8,168,135.8,168.1,135.8,168.1z"/>
		<path class="st5" d="M258.3,162.2c0-0.1-0.1-0.2-0.1-0.2c-10.4-1.5-20.9-2.4-31.4-2.9c-10.5-0.4-21-0.4-31.5,0.3
			c-2.6,0.2-5.3,0.3-7.9,0.6c-2.5,0.2-5.1,0.4-7.6,0.8c-2.1,0.4-22.8,0.1-24.7,1.5c-1.6,1.3-3.1,3-4.3,5c-2.5,4.2-4.1,9.2-5.6,14.1
			c-5.4,18.5-8.4,38.1-8.7,58c0,1.4,0,2.8,0,4.2c-0.7-0.3-1.3-0.7-2-1.2c-0.2-0.1-0.3,0.2-0.1,0.3c0.7,0.5,1.4,0.9,2.1,1.2v0.3
			c0,0.1,0.1,0.2,0.1,0.2s0.1-0.1,0.1-0.2c0-0.1,0-0.1,0-0.2c8.6,4.1,36.6,2.2,45.3,0.3c5.2-1.1,10.4-1.9,15.7-1.2
			c5.3,0.7,10.5,2.5,15.6,4.3c5,1.8,10,3.6,15.2,4.5c4.5,0.8,9.6,1.2,13.9-1.1c1.8-0.9,3.4-2.5,4.6-4.5c1.5-2.7,2-6.1,2.4-9.4
			l3.5-23.3c1.1-7.7,2.3-15.3,3.4-23c1.1-7.6,2-15.2,2-23C258.5,165.9,258.4,164.1,258.3,162.2z"/>
		<path class="st7" d="M205.9,181c-0.7-4.6-3.8-7.5-6.7-9.4c-3.6-2.2-7.7-3.2-10.8-6.6c-1-1.1-1.6-2.2-1.4-4
			c0.1-1.5,0.4-2.9,0.6-4.4c0.3-2.7,0.2-5.5-0.3-8.2c-1.9-9.7-9-15.8-16.4-13.9c-0.6,0.2-1.2,0.4-1.8,0.6c0,0,0,0,0,0
			c-2.2-0.2-4.4-0.4-6.6,0.2c-2.1,0.5-4,1.9-5.5,4c-1.6,2.3-3,4.8-4.2,7.6c-0.6,1.4-1.2,2.9-1.7,4.4c-0.5,1.4-0.9,3-1.7,4.2
			c-0.8,1.2-1.7,2.1-2.5,3.2c-0.8,1-1.4,2.1-2,3.3c-1.1,2.3-1.7,5-1.7,7.7c-0.1,3.3,0.6,6.5,1,9.7c0.2,1.4,0,3.1,0.5,4.4
			c0.4,1.1,1.1,1.9,1.9,2.5c2.1,1.6,4.5,4.5,6.9,4.8c2.7,0.4,5.7-2.1,8.4-2c0.3,1.1,0.8,2.2,1.3,3.2c0.8,1.7,1.9,3.4,3.5,3.6
			c1.7,0.2,3.1-1.4,4.5-2.4c1.9-1.5,4-1.5,6.1-2.1c2.1-0.6,4.1-1.9,6.1-2.8c2.1-1,4.3-1.5,6.6-1.5c2.3,0.1,4.3,1,6.5,1.9
			c1.8,0.8,3.7,1.7,5.6,1.2C204.9,189.6,206.5,185,205.9,181z"/>
		<path class="st8" d="M140.2,83.1c0.9,6.7,4.6,33,5.4,39.7c0.5,3.6,0.8,7.3,1,10.9c0.1,3.7-0.3,7.4-0.2,11.1
			c0.1,3.8,0.6,7.5,1,11.2c0.4,3.8,7.6,44.7,8,51.8c0.3-0.5,0.6-1.1,1-1.5c0.1-0.2,0.3,0.1,0.2,0.2c-0.4,0.6-0.8,1.2-1.2,1.9
			c0,0.6,0.1,1.3,0.1,2c0,0.2-0.3,0.3-0.3,0c0-0.5,0-1-0.1-1.5c-0.6,1.2-1,2.5-1.2,3.9c0.6-0.6,1.2-1.3,1.8-2
			c0.1-0.2,0.3,0.1,0.2,0.3c-0.7,0.8-1.3,1.5-2,2.3c-0.1,0.5-0.1,1.1-0.2,1.6c0,0.2-0.3,0.2-0.3-0.1c0-0.4,0.1-0.8,0.1-1.2
			c-1.9,2-3.9,3.7-6,5.3c-0.6,0.5,2.3,2.1,1.7,2.5c-0.7,0.4-1.4,1-2.1,1.1c-1.5,0.3-2-1.5-2.3-3.1c-1.9-9.2-10.7-68.8-10.9-73.8
			c-0.1-4.6-0.1-9.2,0.1-13.8c0.4-10.1,1.1-40.3,0.7-50.4C136.1,81.4,138.5,83.3,140.2,83.1z"/>
		<path class="st8" d="M224.5,99.4c-2.8,5.6-20.7,40.2-21.9,43.5c-1.2,3.3-2,6.9-3.2,10.2s-2.8,6.5-4.3,9.7
			c-1.6,3.2-20.2,36.1-22.7,42.3c-0.1-0.7-0.3-1.3-0.4-2c-0.1-0.2-0.3-0.1-0.3,0.1c0.2,0.8,0.4,1.6,0.5,2.4
			c-0.2,0.6-0.5,1.2-0.7,1.7c-0.1,0.2,0.2,0.4,0.2,0.2c0.2-0.4,0.3-0.9,0.5-1.3c0.1,1.4,0.1,2.9-0.1,4.3c-0.3-0.9-0.7-1.9-1-2.8
			c-0.1-0.2-0.3,0-0.2,0.2c0.4,1.1,0.7,2.1,1.1,3.2c-0.1,0.5-0.2,1.1-0.4,1.6c-0.1,0.2,0.2,0.3,0.3,0.1c0.1-0.4,0.2-0.8,0.3-1.2
			c1.1,2.8,2.4,5.5,3.8,8.1c0.4,0.8-2.8,0.6-2.3,1.3s0.9,1.6,1.6,2.1c1.3,1.1,2,1.7,2.8,0.4c4.5-7.4,21.8-40.7,25.6-49.2
			c1.9-4.3,6.2-11.4,7.9-15.8c1.6-4.1,14.8-48.1,18.3-57.1C228.7,100.8,226.1,100.6,224.5,99.4z"/>
		<path class="st8" d="M189.2,191.8c-0.3-0.9-1-1.3-1.7-1.6c-1-0.4-2-0.7-3-0.9c-2.3-0.5-4.5-0.7-6.8-0.9
			c-4.8-0.4-21.3-1.6-32.1,0.6c-1.9,0.4-3.9,0.5-4.6,3.4c-0.7,3.1-0.6,6.6-0.7,9.8c-0.6,13.9-1.5,27.8-2.8,41.6
			c-0.5,4.8-0.9,9.5-1.5,14.2h0c-2-0.1-4,0.1-6-0.3c-1.1-0.2-2.1-0.6-3.1-1.2c-0.2-0.1-0.3,0.2-0.1,0.3c1.7,1.2,3.7,1.5,5.6,1.5
			c1.2,0,2.4,0,3.7,0.1c-0.3,2.9-0.7,5.8-1,8.7c0,0.2,0.2,0.2,0.3,0c0.4-2.9,0.7-5.8,1-8.7c0.8,0,1.7,0.1,2.5,0.3
			c4.5,0.7,8.8,2.5,13.3,3.6c2.2,0.5,4.4,0.8,6.7,0.9c2.3,0.1,4.6,0.1,6.7,1c1.8,0.7,3.5,2.2,5.4,2.1c1.7-0.1,2.6-1.9,3.2-3.9
			c3.3-11.9,6.3-24.1,9.3-36.2c1.5-6,3-11.9,4.2-18c0.6-2.9,1.1-5.8,1.5-8.8c0.2-1.6,0.4-3.1,0.5-4.7
			C189.5,193.8,189.6,192.7,189.2,191.8z"/>
		<path class="st8" d="M177.8,169.9c-0.1,0.5-0.1,1-0.2,1.7c-0.3,2.1-0.8,5.1-1.4,8.5c-0.9,5.1-2,11.2-3,16.1
			c-0.4,0.2-2.3,5.8-4.1,8.2c-1.9-1.5-4.1-2.7-5.8-4.2c-1.1-0.9-2.3-1.8-3.4-2.8c-0.5-0.4-0.9-1.1-0.6-1.9c0.3-2.4,0.7-4.8,1-7.1
			c0-0.1,0-0.2,0-0.3c0.2-1.5,0.4-3.1,0.6-4.6l0.4-3.1c0.7-4.8,1.3-9.5,1.9-14.2c-0.1,0-0.1,0-0.2-0.1c0-0.1,0-0.1,0-0.2
			c0.1-0.2,0.3-0.4,0.5-0.3c0.6,0,0.5,0.2,1.1,0.4l4.1,1.2c2.7,0.8,6.1,1.5,8.8,2.3C178.6,169.8,177.6,171.9,177.8,169.9z"/>
		<path class="st9" d="M172.1,174.2c-1.4,1.7-2.5,3.8-4.1,5.3c-1.6,1.4-3.4,2.5-5.2,3.3c-0.5,0.2-1,0.4-1.4,0.6
			c-0.1,0.1-0.2,0.1-0.3,0.2c-0.2,1.5-0.4,3.1-0.6,4.6c3.8,1.2,7.6-1.8,10.8-4.3c0.9-0.7,1.8-1.4,2.8-2c0.8-0.5,1.7-0.9,2.2-1.9
			l1.4-8.5C175.6,171.5,173.6,172.4,172.1,174.2z"/>
		<path class="st8" d="M180.7,145.9c-4.3-3-8.3-7.5-13.4-7.4c-2.9,0.1-8.2,0.7-9.4,5c-0.2,0.8-0.7,1.5-1.4,1.7
			c-0.4,3.8-0.2,7.9-0.6,11.2c-0.5,4.9-1.1,11.7-0.2,16.6c0.4,2.3,0.5,4.9,3.3,9.5c0.9,1.4,1.7,2.9,3.1,3.4c1.5,0.7,3.2,0.3,4.7-0.4
			c1.7-0.8,6.4-5.9,7.4-7.5c1.2-1.8,1.9-3.8,2.5-6c0.6-2.3,1.2-4.7,1.8-7c1.4-5.7,4.3-13,2.7-18.9
			C180.9,146.1,180.8,146,180.7,145.9z"/>
		<path class="st7" d="M182.7,149.5c0-2.4-0.3-4.9-1.4-6.8c-1-2-2.6-3.3-4.1-4.4c-3.2-2.4-7-3.6-10.7-2.7c-2,0.5-3.9,1.5-5.7,2.5
			c-0.9,0.5-1.8,1.1-2.7,1.8c-0.7,0.5-1.4,1.1-1.8,2c-0.5,1.2-0.5,2.8-0.6,4.1c-0.2,1.7-0.4,3.3-0.6,5c-0.2,1.7-0.3,3.3-0.4,5
			c0,1.1,0.1,2.2,0.4,3.2c0.3-0.5,0.3-1,0.5-1.6c0.2-0.6,0.4-1.1,0.5-1.7c0-0.3,0.1-0.5,0.1-0.7c0.4-2.2,0.7-4.4,1.3-6.5
			c1.2-3.7,3.9-7.2,6.8-8.2c1.6-0.6,3.3-0.7,5-0.4c1.3,1.1,2.4,2.3,3.1,4.1c0.7,1.8,1.1,4,1.7,5.9c0.3,0.9,0.6,1.7,1,2.5
			c0.5,0.9,1.2,1.5,1.8,2.3c0.8,1,1,2.2,1.3,3.5c0.2,1.9,1,5.3,1.1,6.6c0.1,0,0.2,0,0.3-0.1C181.4,160.1,182.8,154.9,182.7,149.5z"
			/>
		<path class="st7" d="M178.6,164.9c-0.4-0.6,0.6,1,0.6,0.3c0-0.1,0-0.1,0-0.2C179.1,164.9,178.9,164.9,178.6,164.9z"/>
		<path class="st8" d="M175.7,167.2c-0.2,1.5-0.2,4.5,1.3,4.5c0.8,0,1.6-0.2,2.3-0.9c0.7-0.8,1.3-1.7,1.7-2.8
			c0.6-1.4,1.4-4.5-0.1-5.6c-1.2-0.9-2.5,0.6-3.2,1.9c-0.2-0.4-0.6-0.4-0.9-0.1c0,0,0,0,0,0C176.2,164.8,175.8,166.2,175.7,167.2z"
			/>
		<path class="st9" d="M179.8,164.5c-0.6,0.2-0.9,0.8-1.2,1.5c-0.5,1-0.9,2-1.5,2.8c-0.1,0.2,0.1,0.4,0.2,0.3
			c0.4-0.6,0.8-1.2,1.1-1.9c0.4-0.7,0.7-2,1.4-2.2C180.1,164.8,180,164.5,179.8,164.5z"/>
		<path class="st10" d="M162,159.1c-0.1-0.1-0.3-0.1-0.5-0.1c-0.5,0-0.8,0.2-1.2,0c-0.5-0.2-1-1-1.6-1c-0.3,0-0.6,0.3-0.6,0.7
			c0,0.2,0,0.3,0.1,0.5c0.6,1.3,1.3,2.4,2.6,2.1C161.3,161.1,162.9,159.9,162,159.1z"/>
		<path class="st10" d="M173.2,160.8c-0.1-0.1-0.3-0.1-0.5-0.1c-0.5,0-0.8,0.2-1.2,0s-1-1-1.6-1c-0.3,0-0.6,0.3-0.6,0.7
			c0,0.2,0,0.3,0.1,0.5c0.6,1.3,1.3,2.4,2.6,2.1C172.4,162.9,174.1,161.6,173.2,160.8z"/>
		<path class="st7" d="M163.8,150.1c-1.6-1.6-3.6-0.7-5,0.7c-0.2,0.3-0.4,0.6-0.6,0.9c-0.2,0.6-0.3,1.6,0.3,2
			c0.7,0.5,1.8-0.3,2.5-0.4c0.6-0.1,1.1,0,1.7,0.2c0.4,0.2,0.8,0.5,1.2,0.4C165.4,153.5,164.5,150.9,163.8,150.1z"/>
		<path class="st7" d="M169.6,154.3c0.4,0.2,0.8,0,1.3-0.1c0.6-0.1,1.1,0,1.7,0.2c0.7,0.3,1.7,1.3,2.4,1c0.6-0.2,0.7-1.2,0.5-1.9
			c-0.1-0.4-0.3-0.7-0.4-1c-1.2-1.7-3.1-3.1-4.8-1.9C169.3,151.3,168.2,153.5,169.6,154.3z"/>
		<path class="st9" d="M166.2,154.8c-0.7,3.8-4.3,8.3-2,12.3c0.1,0.2,0.3-0.1,0.2-0.3c-2.2-3.8,1.3-8.3,2-12c0-0.1,0-0.2-0.1-0.2
			C166.3,154.7,166.2,154.7,166.2,154.8L166.2,154.8z"/>
		<path class="st9" d="M163.3,169.9c-0.6,0.1-0.9,0.8-1,1.6c-0.1,0.8-0.1,1.6,0,2.4c-0.1,1.7-0.5,4,0.9,4.5c1.5,0.5,2.1-2.6,2.2-4
			C165.5,172.7,165,169.5,163.3,169.9z"/>
		<path class="st1" d="M184.3,242.3c0-0.2,0.1-0.3,0.1-0.5c0.1-1.5,0.1-3,0.1-4.5c0-1.8,0.1-3.6,0.3-5.4c0.2-1.7,0.6-13.7,0.6-13.7
			s-2.5-5.8-3.8-8.5c-1.5-3.1-2.8-6.5-3.1-10.2c0,0,0-0.1,0-0.1c0-0.1,0.1-0.2,0.1-0.3c1.3-3.3,1.4-7.1,1.4-10.7
			c0-0.1-0.1-0.2-0.1-0.2c-0.1,0-0.1,0.1-0.1,0.2c-0.1,3.1-0.1,6.4-1,9.3c-1,3.3-3,5.5-5.5,6.5c-2.7,1-5.6,0.5-8.4,0
			c-2.8-0.5-5.6-1.2-8.3-2.2c-3-1.1-5.9-2.5-8.7-4.1l1-1.7c1.8-3,2.8-4.7,4.1-8.1c0.1-0.2-0.2-0.4-0.2-0.2c-1.6,4.1-3.1,6.3-5.2,9.9
			c-0.1,0-0.1,0.1-0.1,0.2c-1,1.8-2.1,3.6-3.1,5.5c-1.5,2.8-2.7,5.8-3.6,9.1c-1.1,4-1.7,8.1-2.4,12.2c-0.9,4.7-1.7,9.4-2.6,14.1
			c0,0.1,0,0.2,0.1,0.2c1.5,0.4,3,0,4.5,0c1.7-0.1,3.2,0.6,4.8,1.3c3,1.4,5,6.3,8.2,6.5c3.3,0.2,1.1,3.3,4.3,3.4
			c1.7,0,9.9-7.3,11.6-6.9c1.6,0.4,3.1,1,4.7,1.6c2.9,1,5.9,1.5,9,1.5C183.5,245.2,184,243.7,184.3,242.3z"/>
		<path class="st6" d="M132.1,162.2c-1.3-1.5-3-2.3-4.6-3.2c-0.4,0.5-0.9,0.7-1.4,0.7h-3c-0.9,0-1.7-0.8-1.9-1.9
			c-1.8,0.5-3.6,1.3-5.2,2.4c-3.1,1.9-5.8,4.9-9,6.4c-5.7,2.6-12.9,1.5-17.2,8.1c-1,1.6-1.8,3.4-2.8,5.1c-1,1.6-2.1,3-3.4,4
			c-2.5,2.1-5.4,3.4-8.1,4.8c-1.6,0.8-3.1,1.7-4.6,2.7c-0.8,0.5-1.5,1-2.3,1.5c-0.6,0.4-1.3,0.7-1.7,1.4c-0.8,1.4,0,3.1,0.7,4.1
			c1.1,1.4,1.8,3.2,2.2,5.2c0.7,3.5,0.6,7.2,1.8,10.5c0.5,1.4,1.2,2.5,2.1,3.4c1,0.9,2.1,0.9,3.3,0.8c0.7-0.1,1.4-0.2,2,0.1
			c0.9,0.4,1.1,1.5,1.4,2.6c0.5,1.6,1.3,3,2.3,4.1c0.3,0.4,0.7,0.6,1.1,0.4c0.6-0.4,1.1-1.2,1.7-1.8c2.6-2.8,5.6-5.1,8.7-6.8
			c1.5-0.8,3.1-1.5,4.6-2.3c2.7-1.5,4.7-4,6.5-7c1.8-3,3.4-6.2,5.5-8.9c2.4-3.1,5.3-5.1,8.4-6.8c1.4-0.7,2.8-1.6,4.1-2.7
			c1.2-1.2,2.4-2.6,3.3-4.2c2.2-3.6,4.3-7.5,6.4-11.2c0.5-0.8,0.9-1.6,1.4-2.4C134.4,168.2,134.1,164.5,132.1,162.2z"/>
		<path class="st11" d="M125.4,189.2c-2-1.9-4.6-4-6.6-5.9l-3-2.9c-0.4-0.4-0.9-1.1-1.4-1.3c-0.2-0.1-0.4-0.1-0.5,0.1
			c-0.1,0.1-0.1,0.2,0,0.2c0,0,0.1,0.1,0.1,0.1c-2.7,9.3-6.5,17.8-10.1,26.4c-0.4,0.5-0.3,1.4,0,2c0.6,1.4,1.4,2.7,2,4.1
			c1.4,2.7,3.6,5.6,4.7,8.7c0,0.1,0.1,0.1,0.1,0.1c0,0,0,0,0,0c1.4-2.2,2.7-4.5,3.9-6.9c1.2-2.3,2.3-4.6,3.4-6.9
			c0.2-0.3,0.3-0.6,0.5-1c0.4-1,0.9-1.9,1.3-2.9c2-4.4,3.9-8.9,5.6-13.5C124.7,191.4,126.1,189.8,125.4,189.2z"/>
		<path class="st11" d="M135.5,168.2c-1.3,0-1.9-1.3-2-2.6c-0.5-0.1-0.9-0.2-1-0.6l-0.7-0.5c-1.3-0.9-2.9-1.3-4.4-1.1
			c-2.8,0.4-5.6,2-7.9,4c-5.3,4.4-9.4,21.4-5.7,29.3c1.7,3.6,9.2,8.7,11.5,9.4c0.7,0.3,1.5,0.5,2.3,0.5c3.2,0.1,3.4-4.3,3.9-6.4
			c0-0.1,0.1-0.2,0.1-0.4c0-0.1,0-0.1,0-0.2c0-0.2,0.1-0.4,0.1-0.6c0.1-0.5,0.2-1.1,0.3-1.8c0.2-0.9,0.3-1.9,0.5-2.7
			c0,0,0-0.1,0-0.1c0.3-1.7,1-7.4,1.7-13.3l0-0.2c0.1-1.2,0.3-2.4,0.4-3.6l0,0c0.4-3.7,0.8-7.2,1-9.3
			C135.7,168.1,135.6,168.2,135.5,168.2z"/>
		<path class="st11" d="M136,192.7c0.1-0.7-1.8-9.5-1.8-11.2c0-0.1-1.7,5.7-2.3,8c-0.3,1-0.4,2-0.5,3.1c0,0.4,0.1,0.7,0.2,1.1
			c0.1,0.4,0,0.8-0.1,1.1c0-0.1-0.1-0.1-0.2,0c0,0,0,0.1,0,0.1c0,0,0,0.1,0,0.1c0,0.1,0,0.1,0,0.2c0.1,0.1,0.1,0.1,0.2,0.1
			c0,0,0.1,0,0.1,0c0.2,0,0.5-0.1,0.7-0.1c0.6-0.1,1.2-0.2,1.7-0.4C134.9,194.5,135.9,193.9,136,192.7z"/>
		<path class="st6" d="M132.3,176.4c-1-0.1-2.8,0.4-2.2,2c0.3,0.9,1.3,1.4,1.9,1.7c0.8,0.4,1.6,0.9,2.4,1.2l0-0.2
			c0.1-1.2,0.3-2.4,0.4-3.6l0,0C134.1,176.7,133.2,176.4,132.3,176.4z"/>
		<path class="st11" d="M192.7,226.2c-7.1,4.4-30.4,19.4-31.6,20.2c-1.3,0.8-3.5,2.3-4.8,1.3c-1.2-0.9-26.4-26.2-28.3-29.1
			c-0.9-1.4-2-2.7-3.2-3.7l-0.1-0.1c-2.1-1.9-6-3.8-8.4-4.3c0-0.1-0.1-0.1-0.1-0.2c-0.1-0.1-0.1-0.2-0.1-0.4c-0.1-0.4-0.1-0.9,0-1.3
			l0.1-2.1c0.1-1.4,0.2-2.8,0.3-4.2c0.1-0.9,0.2-1.9-0.3-2.7c-0.5-0.7-1.3-0.9-2-1.1l-5.9-2.1c0.4-0.9,0.8-1.9,1.1-2.9
			c0.1-0.2-0.2-0.4-0.2-0.2c-0.3,1-0.7,2-1.2,3l-0.2-0.1c-0.1,0-0.1,0-0.2,0.1c0,0.1,0,0.2,0.1,0.2l0,0l0.2,0.1
			c-1.8,3.5-4.2,6.4-7.1,8.2c-3.6,2.4-7.6,4.1-10.6,8c-2.9,3.8-4.8,8.8-6.3,13.8c-0.9,3.1-1.7,6.2-2.3,9.3c-0.6,2.7-1,5.5-1.5,8.2
			l-0.2,1.3c-0.6,3.8-1.2,7.6-1.8,11.4c-0.9-0.1-2,0.1-2.4,1.4c-0.1,0.2,0.2,0.3,0.3,0.1c0.3-1.1,1.2-1.3,2.1-1.2
			c-0.4,2.9-0.9,5.7-1.4,8.5c0,0.2,0.2,0.3,0.3,0.1l1.4-8.6c0.8,0.2,1.5,0.4,2.3,0.7c1.8,0.6,3.6,1.1,5.4,1.7
			c3.7,1.2,7.4,2.4,11.1,3.7c3.7,1.3,7.4,2.7,11,4.1c0.9,0.3,1.7,0.7,2.6,1c0.9,0.4,1.8,0.8,2.7,1c1.4,0.2,2-0.9,2.4-2.4
			c1.3-4.9,2.5-9.8,3.8-14.7c0.6-2.4,1.4-12.4,2-14.8c0.3,0.5,30.6,26.2,31.8,27c2.5,1.9,5.2,0.8,7.7-0.4
			c2.7-1.3,34.6-31.2,34.9-31.5C195.6,231.8,193.5,228.1,192.7,226.2z"/>
		<path class="st10" d="M116.4,210c-0.1,0-0.2,0-0.3,0c-6-0.7-11.1,4.7-15.2,10c-1,1.2-1.9,2.5-2.9,3.8c-0.1,0-0.1,0.1-0.1,0.2
			c0,0,0,0,0,0c-1.3,1.7-2.7,3.3-4.2,4.7c-2.6,2.4-5.5,4.4-8.5,5.8c-1.2,0.6-2.4,1.1-3.6,1.6c-0.6,2.7-1,5.5-1.5,8.2l-0.2,1.3
			c0.1,0.2,0.1,0.3,0.2,0.5c0.3,1,0.8,1.8,1.4,2.2c0.9,0.6,2,0.8,3,1c1.1,0.2,2.2,0.4,3.3,0.4c2.3,0.1,4.7-0.1,7-0.4
			c2.4-0.3,4.8-0.5,7.2-0.8l3.7-0.4c0.9-0.1,1.9-0.3,2.8-0.6c1.5-0.7,2.7-2.5,2.2-4.7c-0.4-2.4-2.2-4-3.6-5.3
			c-1.9-1.7-3.9-3.2-5.5-5.5c-1.6-2.3-2.7-5-3.4-7.9l0.4-0.5c2.4-3.1,4.8-6.4,7.5-9c3-2.7,6.5-4.7,10.1-4.2l0.2,0
			C116.6,210.4,116.6,210,116.4,210z"/>
		<path class="st5" d="M250.7,258.8c-1.9-1.2-4.5-1.5-6.6-1.9c-2.4-0.5-4.7-1-7.1-1.3c-4.6-0.6-9.3-0.5-13.9-0.8
			c-1.2-0.1-2.3-0.2-3.5-0.4c-3.2-0.5-6.3-1.4-9.3-2.7l-0.4-0.2c-4.1-1.6-8.1-3.5-12.3-4.6c-4.6-1.2-9.3-1.4-13.9-1
			c-9.2,0.7-18.2,3.3-27.3,3.9c-8.9,0.6-17.8-0.8-26.3-4.1c-3.7-1.4-7.3-3.1-11-4.7c-4.1-1.8-8.2-3.5-12.5-4.6
			c-0.9-0.2-1.8-0.5-2.7-0.6c-7.6-1.6-15.2-1.9-22.9-1.6c-1.5,0-2.9,0.1-4.4,0.2l-1.5,0.1c-16.8,0.9-33.6,2.6-50.4,4.8l-3.8,9.4
			l-1.9,4.6l-1.2,3.1c-2.3,5.7-4.6,11.4-6.9,17.2c-0.4,1-0.8,2.1-1.2,3.1l-2.3,5.8c-0.6,1.5-1.2,2.9-1.8,4.4
			c-0.6,1.4-1.4,3.1-1.1,4.8c0.4,2.3,2.4,2.8,3.9,3c1.7,0.2,3.3-0.3,5-0.7c1.7-0.4,3.4-0.7,5.1-0.8c0.4,0,0.8-0.1,1.3-0.1
			c2.8-0.1,5.5,0,8.2,0.4c6.2,0.8,12.4,2.5,18.6,4c5.5,1.3,11.1,2.2,16.7,2.9c3.8,0.4,7.5,0.7,11.3,0.9c1.4,0.1,2.7,0.1,4.1,0.2
			c17.3,0.6,34.6-0.4,51.9,1l0.9,0.1c3.3,0.3,6.7,0.6,10,1c14.9,1.8,29.7,4.8,44.5,7.3c9.2,1.6,18.4,3,27.7,3.8
			c4.5,0.4,9.1,0.7,13.6,0.9c2.3,0.1,4.6,0.1,6.9,0.1c1.1,0,2.3,0,3.4-0.1c1.6-0.1,2.5-0.9,3.1-2.9c0.8-2.8,1.6-5.6,2.3-8.5
			c0.2-1,0.5-2,0.7-2.9c0.5-2.1,1-4.2,1.5-6.2c0.9-3.7,1.8-7.5,2.7-11.2c0-0.1,0-0.1,0-0.2c0.2-1,0.5-2,0.7-3
			c0.3-1.2,0.5-2.4,0.8-3.6c0.7-3,1.3-6,1.9-9c0-0.1,0-0.2,0.1-0.3C252,264.7,253.3,260.4,250.7,258.8z"/>
		<path class="st10" d="M133.5,183.6c-0.1-0.1-0.2-0.1-0.4-0.1c-0.4,0.1-0.6,0.2-1,0c-0.4-0.2-0.8-1-1.3-0.9
			c-0.3,0.1-0.5,0.4-0.5,0.8c0,0.2,0,0.3,0.1,0.4c0.5,1.3,1.1,2.3,2.1,1.9C133,185.7,134.3,184.4,133.5,183.6z"/>
		<path class="st12" d="M130.7,195.3c-0.4-0.2-0.7-0.4-1.1-0.6c-0.2-0.2-0.4-0.3-0.6-0.4c-0.2,0-0.4,0.1-0.4,0.4
			c-0.1,0.6,0.5,1.1,0.8,1.4c0.5,0.6,1,1.1,1.5,1.6c0.2,0.2,0.6,0.7,1,1c0-0.1,0-0.1,0-0.2c0-0.2,0.1-0.4,0.1-0.6
			c0.1-0.5,0.2-1.1,0.3-1.8C131.8,195.8,131.3,195.5,130.7,195.3z"/>
		<path class="st6" d="M135.8,167.9c-1.6-2.4-3.2-4.6-5.5-5.7c-2.4-1.2-5-1.1-7.5-0.2c-5,1.7-9.4,5.5-13.3,9.9
			c-4.3,4.9-8,10.7-11.9,16.1c-2,2.7-4.1,5.3-6.2,7.8c-1.9,2.3-3.6,4.9-4.9,7.9c-2.7,6.4-3.6,14-2.9,21.2c0,0.1,0,0.2,0.1,0.2
			c4.8,1.4,8-4.8,10.5-9.3c1.5-2.8,3.2-5,5.5-6.5c2.2-1.4,4.4-2.7,6.3-4.8c3.6-3.7,6.4-8.7,8.7-14c1.1-2.6,2.1-5.4,3.6-7.6
			c0.7-1.2,1.6-2.1,2.7-2.8c1.2-0.8,2.5-1,3.9-1.3c1.2-0.2,2.5-0.4,3.6-1.1c1-0.6,1.9-1.5,2.7-2.6c1.6-2.3,2.5-5.1,4.6-6.8
			C135.8,168.1,135.8,168,135.8,167.9L135.8,167.9z"/>
		<path class="st11" d="M122,182.1c-0.3-1.4-1.4-2.3-2.5-1.8c-0.1,0-0.2,0.1-0.2,0.1c-1.2,0.8-1.5,2.8-1.3,4.4
			c0.1,0.7,0.7,4,1.6,2.5c0.4-0.7,0.6-1.7,0.7-2.5c0.2-1.3,0.5-2.6,0.9-3.7c0.3,0.3,0.4,0.7,0.6,1.1
			C121.8,182.4,122.1,182.3,122,182.1z"/>
		<path class="st12" d="M121.9,186.7c-0.7-0.4-0.7-1.3-0.6-2.2c0.1-0.4,0.1-0.7,0.1-1.1c-0.1-0.7-0.2-1.7-0.7-2
			c-0.2-0.1-0.3,0.2-0.1,0.3c0.5,0.3,0.6,1.8,0.6,2.4c-0.1,0.5-0.2,0.9-0.2,1.3c0.1,0.7,0.4,1.3,0.8,1.6
			C122,187.1,122.1,186.8,121.9,186.7z"/>
		<path class="st11" d="M212,213.1c-0.6-1.4-2.1-1.3-3.3-1c0,0,0-0.1,0.1-0.1c0.1-0.1,0.1-0.3,0.2-0.4c0.2-0.4,0.2-0.9,0.1-1.3
			c-0.1-0.3-0.3-0.4-0.5-0.4c-0.6-0.1-1.3,0.1-1.9,0.1c-1.2,0.1-2.4,0.1-3.5,0.6c-1,0.5-1.9,1.3-2.8,2.2l-0.2,0.2
			c0-0.4,0-0.8-0.4-0.9c-0.6-0.1-1.3,0.8-1.7,1.2c-0.7,0.8-1.5,1.5-2.4,2.2c-0.8,0.5-1.6,0.9-2.3,1.5c-2.6,1.9-2.9,5.8-3.7,9.2
			c-0.1,0.5-0.2,0.9-0.3,1.4c-0.1,0.5-0.3,1-0.5,1.4c0,0.1,0,0.2,0.1,0.2c0,0,0,0,0,0c0,0.3-0.1,0.5-0.2,0.7c0.1-0.1,0.1-0.1,0.2,0
			c0,0,0,0,0,0.1l0.7,3.6c0.2,0.8,0.2,1.6,0.9,1.7c0.5,0.1,0.9,0.1,1.4,0.1c0.9,0.1,1.8,0.1,2.8,0.1s1.9,0,2.8-0.4
			c0.8-0.3,1.4-1.1,2.1-1.7s1.2-1.3,1.8-1.9c0.8-0.9,1.5-1.8,2.2-2.8c1.3-1.4,2.7-2.8,4.3-3.6c0.9-0.4,1.8-0.7,2.6-1.3
			c0.4-0.3,0.8-0.8,0.6-1.4c-0.2-0.6-0.8-0.9-1.2-1c-0.9-0.1-1.7-0.1-2.6,0.3c-1.7,0.6-3.1,1.9-4.6,3c-0.1-0.2-0.2-0.3-0.3-0.5
			c0.9-1.3,2-2.3,3.2-3.2c1.4-1,2.9-1.4,4.3-2.3c0.7-0.4,1.9-1.3,1-2.4c-0.3-0.4-0.7-0.7-1.2-0.7c-0.2,0-0.3-0.1-0.5-0.1
			c0.1,0,0.2-0.1,0.4-0.1c0.4-0.1,0.8-0.1,1.1-0.2c0.3-0.1,0.6-0.3,0.9-0.5C212.1,214.4,212.2,213.7,212,213.1z"/>
		<path class="st12" d="M199.6,213.4c-1.4,0.9-2.7,2-3.9,3.3c-0.1,0.2,0.1,0.4,0.2,0.3c1.2-1.3,2.4-2.4,3.8-3.3
			C199.9,213.7,199.8,213.3,199.6,213.4z"/>
		<path class="st12" d="M209,211.6c-0.1,0.1-0.1,0.3-0.2,0.4c-3.4,0.4-6.6,2-9.4,4.4c-0.1,0.1-0.3-0.2-0.1-0.3
			C202.1,213.6,205.5,212,209,211.6z"/>
		<path class="st12" d="M209.3,215.7c0.2,0,0.3,0,0.5,0.1c-2.8,0.1-5.6,1.7-8,3.8c-0.1,0.1-0.3-0.2-0.1-0.3c2.7-2.4,5.9-4.1,9.2-3.8
			c-0.4,0.1-0.8,0.1-1.1,0.2C209.6,215.6,209.5,215.6,209.3,215.7z"/>
		<path class="st12" d="M121.3,236.4c-3-2.9-6.5-4.8-10.1-5.6c-0.2,0-0.2,0.3-0.1,0.4c3.6,0.8,7.1,2.7,10.1,5.5
			C121.3,236.9,121.4,236.5,121.3,236.4z"/>
		<path class="st9" d="M142.2,137.7c-1,3.5-2.3,6.8-3.9,9.9c-0.1,0.2,0.1,0.4,0.2,0.2c1.5-3.2,2.8-6.5,3.9-10
			C142.5,137.6,142.3,137.5,142.2,137.7z"/>
		<path class="st9" d="M206,160.5c-1-3.9-1.3-7.9-1-12c0-0.2-0.3-0.2-0.3,0c-0.3,4.1,0.1,8.2,1,12.1
			C205.8,160.8,206.1,160.7,206,160.5z"/>
		<path class="st12" d="M117.7,200.7c-0.6-0.6-1.2-1.5-1.9-1.7c-0.1,0-0.1,0-0.2,0.1c0,0,0,0,0,0.1c0.2,2.8,1,5.4,2.4,7.5
			c0.2-0.3,0.3-0.6,0.5-1c0.4-1,0.9-1.9,1.3-2.9C119,202.3,118.3,201.6,117.7,200.7z"/>
		<path class="st10" d="M129.6,163.6c-1.9,5.8-5.9,9.6-10,12.4c-0.2,0.1,0,0.4,0.1,0.3c4.1-2.8,8.2-6.7,10.1-12.6
			C129.9,163.5,129.7,163.4,129.6,163.6z"/>
		<path class="st10" d="M121.1,168.5c-1.5,2.1-3.2,4-5.1,5.5c-0.2,0.1,0,0.4,0.1,0.3c1.9-1.5,3.6-3.4,5.1-5.6
			C121.4,168.6,121.2,168.4,121.1,168.5z"/>
		<path class="st10" d="M87.5,197c-2.3,2.3-4.3,5.2-6,8.4c-0.1,0.2,0.1,0.4,0.2,0.2c1.6-3.2,3.6-6,5.9-8.3
			C87.7,197.2,87.6,196.9,87.5,197z"/>
		<path class="st10" d="M90.5,202.8c-2.7,3.3-5.5,7-6.3,11.9c0,0.2,0.2,0.3,0.3,0.1c0.8-4.9,3.6-8.5,6.2-11.8
			C90.8,202.9,90.6,202.6,90.5,202.8z"/>
		<path class="st10" d="M187.2,173.3c-2.2,0.5-4.5-0.9-5.6-3.6c0-0.1-0.1-0.1-0.2-0.1c-0.1,0.1-0.1,0.2-0.1,0.3
			c1.2,2.8,3.6,4.3,5.9,3.8C187.5,173.6,187.4,173.2,187.2,173.3z"/>
		<path class="st10" d="M154.3,154.5c-0.8,3.1-2.4,5.9-4.4,7.8c-0.1,0.1,0,0.5,0.1,0.3c2.1-2,3.7-4.8,4.5-8
			C154.6,154.4,154.3,154.3,154.3,154.5z"/>
		<path class="st10" d="M179,141.9c-0.1-0.2-0.3,0.1-0.2,0.3c1.8,2.9,2.5,6.7,2,10.4c0,0.2,0.2,0.3,0.3,0.1
			C181.6,148.8,180.8,144.8,179,141.9z"/>
		<path class="st10" d="M230.7,211.4c-1.6-10.1-8.3-16.7-15.4-19.4c-2.2-0.8-4.5-1.4-6.8-1.7c-0.2,0-0.2,0.3,0,0.4
			c5,0.7,10.1,2.5,14.3,6.3c3.8,3.4,6.7,8.5,7.7,14.6C230.5,211.7,230.7,211.6,230.7,211.4z"/>
		<path class="st8" d="M146.6,69.4c0-0.1,0-0.2,0-0.3c0-0.7-0.4-1.6-1.1-1.3c-0.9,0.4-1.4,1.9-1.8,2.9c-0.6,1.5-1.1,3.1-1.5,4.7
			c-0.6-1.4-1.2-2.9-1.7-4.4c-0.9-2.6-1.6-5.3-2.6-7.8c-0.4-1.1-0.9-2.1-1.6-3.1c-0.4-0.5-1.1-1.4-1.7-1.1c-0.5,0.3-0.4,1.2-0.2,1.7
			c0.4,1.3,0.9,2.6,1.3,3.9c0.7,2.4,1.3,4.8,1.8,7.3l-0.2,0.1c-0.9-3-1.9-6-2.9-9c-0.4-1.2-0.9-2.5-1.6-3.5c-0.4-0.6-1.3-1.7-2-1.1
			c-0.7,0.6-0.2,1.7,0.1,2.4c0.6,1.6,1.1,3.3,1.6,5c0.5,1.5,2.2,6.4,2.5,7.4l-0.8,0.4c-0.4-1.1-2.5-6.1-3.1-7.5
			c-0.4-1.2-1-2.4-1.6-3.5c-0.4-0.6-1.3-1.8-2-1.3c-0.6,0.5-0.3,1.9-0.1,2.5c0.4,1.4,1.1,2.6,1.6,4c0.5,1.5,2.5,6.2,2.9,7.1
			l-0.4,0.2c-1.1-2.4-2.3-4.7-3.8-6.7c-0.4-0.6-1.1-1.3-1.8-0.7c-0.7,0.7,0,1.8,0.3,2.5c1.5,2.9,2.8,5.9,4.5,8.6
			c0.9,1.5,3.7,10.1,3.9,11c0,0.1,0.1,0.2,0.2,0.1c1.4-0.4,3.8-0.1,5.2,0c0.1,0.8,0.2,1.7,0.4,2.5c0,0.1,0.1,0.2,0.1,0.2
			s0.1-0.1,0.1-0.2c0.6-1.9,1.2-3.7,1.9-5.5c0.6-1.6,1.3-3.2,1.6-4.9s0.4-3.6,0.5-5.4c0-0.5,0.1-1,0.2-1.5c0-0.2,0.1-0.5,0.2-0.7
			c0.3-1.2,1.2-3.5,1.4-4.7l0.1-0.1C146.6,69.6,146.6,69.5,146.6,69.4C146.6,69.4,146.6,69.4,146.6,69.4z"/>
		<path class="st8" d="M229.9,81.2c0,0.1,0,0.1,0,0.2c-0.5,1.1-1,3.6-1.4,4.7c-0.1,0.2-0.2,0.4-0.2,0.7c-0.2,0.4-0.4,0.8-0.6,1.2
			c-0.8,1.5-1.7,2.8-2.4,4.4c-0.6,1.6-1,3.3-1.3,5.1c-0.4,2-0.9,3.9-1.4,5.8c0,0.2,0.1,0.3,0.2,0.2c0.5-0.5,1.1-1,1.5-1.5
			c1.1,1.2,3,3.2,3.8,4.7c0,0.1,0.1,0.1,0.2,0.1c0.6-0.4,7.1-4.2,8.5-4.5c2.6-0.5,5.1-1.4,7.6-2.2c0.6-0.2,1.7-0.3,1.5-1.5
			c-0.2-1-1-1.1-1.7-1.1c-2.1,0.1-4.1,0.7-6.2,1.4c0-0.2-0.1-0.3-0.2-0.5c0.8-0.3,4.6-1.9,5.7-2.5c1-0.6,2.2-0.8,3.2-1.5
			c0.5-0.3,1.3-1.1,1.2-1.9c-0.2-1-1.6-1-2.1-0.9c-1,0.2-2,0.6-3,1.1c-1.1,0.5-5.2,2.3-6.1,2.7l-0.4-1c0.8-0.4,4.6-2.5,5.6-3.1
			c1.2-0.7,2.4-1.5,3.7-2.2c0.5-0.3,1.5-0.7,1.3-1.7c-0.2-1.1-1.3-1.1-2-1c-1,0.1-2,0.6-3,1.1c-2.3,1.2-4.5,2.5-6.7,3.9l-0.1-0.3
			c1.6-1.4,3.3-2.6,5-3.7c1-0.6,2-1.1,3-1.7c0.4-0.2,0.9-0.7,0.7-1.4c-0.2-0.8-1.2-0.8-1.8-0.7c-0.9,0.1-1.8,0.4-2.7,0.8
			c-2,0.9-3.9,2.2-5.9,3.3c-1.1,0.6-2.3,1.2-3.5,1.7c0.5-1.6,0.9-3.2,1.3-4.8c0.2-1.1,0.6-2.7,0.1-3.8c-0.3-0.8-1-0.5-1.4,0
			c-0.1,0.1-0.1,0.2-0.2,0.2C229.9,81,229.9,81.1,229.9,81.2z"/>
		<path class="st9" d="M141.6,76c-0.4,1.1-1.1,2-1.7,3c-0.6,1-1,2-1.3,3.1c-0.6,2.1-0.9,4.3-0.7,6.6c0,0.2,0.3,0.2,0.3,0
			c-0.2-2.4,0.1-4.8,0.9-7c0.7-2.1,2-3.5,2.8-5.5C141.9,76,141.7,75.8,141.6,76z"/>
		<path class="st9" d="M235.1,98.8c-3.2-0.4-7.4-1.8-9.7,2.4c-0.1,0.2,0.1,0.4,0.2,0.2c2.2-4,6.4-2.5,9.4-2.2
			C235.2,99.1,235.2,98.8,235.1,98.8z"/>
		<path class="st9" d="M229.8,90.4c-0.5,1.4-1,2.8-1.6,4.1c0,0.1,0,0.2,0.1,0.3s0.2,0,0.2-0.1c0.6-1.3,1.1-2.7,1.6-4.1
			C230.1,90.4,229.9,90.2,229.8,90.4z"/>
		<path class="st13" d="M181.7,221.5c-3.3,2.5-6.7,4.9-10.2,6.9c-1.8,1.1-3.6,2-5.4,3c-1.9,1-3.9,2.1-6,1.7c-0.2,0-0.2,0.3-0.1,0.4
			c1.9,0.4,3.8-0.5,5.6-1.4c1.8-0.9,3.6-1.9,5.4-2.9c3.7-2.2,7.4-4.6,10.9-7.3c0.1-0.1,0.1-0.2,0.1-0.3
			C181.8,221.5,181.7,221.5,181.7,221.5z"/>
		<path class="st10" d="M164.4,261.3c-13.6,5.3-26.9,12.2-39.6,20.5c-3.6,2.4-7.2,4.8-10.7,7.4c-0.2,0.1,0,0.4,0.1,0.3
			c12.4-9.1,25.4-16.8,38.8-23c3.8-1.7,7.6-3.4,11.5-4.9c0.1,0,0.1-0.1,0.1-0.2S164.4,261.3,164.4,261.3L164.4,261.3z"/>
		<path class="st14" d="M38,248.7c-1.5-0.4-2.9,0.7-3.5,2.6c0,0,0,0.1,0,0.1c-0.3,0.8-0.5,1.6-0.5,2.5c0,0.9,0.1,1.8,0.7,2.3
			c0.6,0.5,1.3,0.8,2,0.6c1.5-0.3,2.6-2,2.9-4C40,251,39.6,249.1,38,248.7z"/>
		<path class="st14" d="M57.6,264.3c-1.5-0.4-2.9,0.7-3.5,2.6c0,0,0,0.1,0,0.1c-0.3,0.8-0.5,1.6-0.5,2.5c0,0.9,0.1,1.8,0.7,2.3
			c0.6,0.5,1.3,0.8,2,0.6c1.5-0.3,2.6-2,2.9-4C59.6,266.5,59.2,264.7,57.6,264.3z"/>
		<path class="st14" d="M22.6,274.3c-1.5-0.4-2.9,0.7-3.5,2.6c0,0,0,0.1,0,0.1c-0.3,0.8-0.5,1.6-0.5,2.5c0,0.9,0.1,1.8,0.7,2.3
			c0.6,0.5,1.3,0.8,2,0.6c1.5-0.3,2.6-2,2.9-4C24.5,276.5,24.1,274.7,22.6,274.3z"/>
		<path class="st14" d="M97.2,246.2c-1.5-0.4-2.9,0.7-3.5,2.6c0,0,0,0.1,0,0.1c-0.3,0.8-0.5,1.6-0.5,2.5c0,0.9,0.1,1.8,0.7,2.3
			c0.6,0.5,1.3,0.8,2,0.6c1.5-0.3,2.6-2,2.9-4C99.2,248.5,98.8,246.6,97.2,246.2z"/>
		<path class="st14" d="M150.8,292.6c-1.5-0.4-2.9,0.7-3.5,2.6c0,0,0,0.1,0,0.1c-0.3,0.8-0.5,1.6-0.5,2.5c0,0.9,0.1,1.8,0.7,2.3
			c0.6,0.5,1.3,0.8,2,0.6c1.5-0.3,2.6-2,2.9-4C152.8,294.9,152.4,293,150.8,292.6z"/>
		<path class="st14" d="M169.9,268.7c-1.5-0.4-2.9,0.7-3.5,2.6c0,0,0,0.1,0,0.1c-0.3,0.8-0.5,1.6-0.5,2.5c0,0.9,0.1,1.8,0.7,2.3
			c0.6,0.5,1.3,0.8,2,0.6c1.5-0.3,2.6-2,2.9-4C171.9,271,171.4,269.1,169.9,268.7z"/>
		<path class="st14" d="M216.8,284.8c-1.5-0.4-2.9,0.7-3.5,2.6c0,0,0,0.1,0,0.1c-0.3,0.8-0.5,1.6-0.5,2.5c0,0.9,0.1,1.8,0.7,2.3
			c0.6,0.5,1.3,0.8,2,0.6c1.5-0.3,2.6-2,2.9-4C218.8,287.1,218.3,285.2,216.8,284.8z"/>
		<path class="st14" d="M107.8,269.6c-1.5-0.4-2.9,0.7-3.5,2.6c0,0,0,0.1,0,0.1c-0.3,0.8-0.5,1.6-0.5,2.5c0,0.9,0.1,1.8,0.7,2.3
			c0.6,0.5,1.3,0.8,2,0.6c1.5-0.3,2.6-2,2.9-4C109.8,271.9,109.4,270.1,107.8,269.6z"/>
		<path class="st14" d="M191.5,290.2c-1.5-0.4-2.9,0.7-3.5,2.6c0,0,0,0.1,0,0.1c-0.3,0.8-0.5,1.6-0.5,2.5c0,0.9,0.1,1.8,0.7,2.3
			c0.6,0.5,1.3,0.8,2,0.6c1.5-0.3,2.6-2,2.9-4C193.5,292.5,193.1,290.6,191.5,290.2z"/>
		<path class="st14" d="M74.4,239.1c-1.5-0.4-2.9,0.7-3.5,2.6c0,0,0,0.1,0,0.1c-0.3,0.8-0.5,1.6-0.5,2.5c0,0.9,0.1,1.8,0.7,2.3
			c0.6,0.5,1.3,0.8,2,0.6c1.5-0.3,2.6-2,2.9-4C76.4,241.4,76,239.6,74.4,239.1z"/>
		<path class="st14" d="M79.5,279.6c-1.5-0.4-2.9,0.7-3.5,2.6c0,0,0,0.1,0,0.1c-0.3,0.8-0.5,1.6-0.5,2.5c0,0.9,0.1,1.8,0.7,2.3
			c0.6,0.5,1.3,0.8,2,0.6c1.5-0.3,2.6-2,2.9-4C81.5,281.9,81.1,280.1,79.5,279.6z"/>
		<path class="st14" d="M145.1,255.9c-1.5-0.4-2.9,0.7-3.5,2.6c0,0,0,0.1,0,0.1c-0.3,0.8-0.5,1.6-0.5,2.5c0,0.9,0.1,1.8,0.7,2.3
			c0.6,0.5,1.3,0.8,2,0.6c1.5-0.3,2.6-2,2.9-4C147,258.2,146.6,256.4,145.1,255.9z"/>
		<path class="st14" d="M198.7,254.8c-1.5-0.4-2.9,0.7-3.5,2.6c0,0,0,0.1,0,0.1c-0.3,0.8-0.5,1.6-0.5,2.5c0,0.9,0.1,1.8,0.7,2.3
			c0.6,0.5,1.3,0.8,2,0.6c1.5-0.3,2.6-2,2.9-4C200.7,257.1,200.3,255.3,198.7,254.8z"/>
		<path class="st14" d="M234.7,262.4c-1.5-0.4-2.9,0.7-3.5,2.6c0,0,0,0.1,0,0.1c-0.3,0.8-0.5,1.6-0.5,2.5c0,0.9,0.1,1.8,0.7,2.3
			c0.6,0.5,1.3,0.8,2,0.6c1.5-0.3,2.6-2,2.9-4C236.7,264.7,236.3,262.8,234.7,262.4z"/>
	</g>
</g>
</svg>
