<?xml version="1.0" encoding="utf-8"?>
<!-- Generator: Adobe Illustrator 25.4.1, SVG Export Plug-In . SVG Version: 6.00 Build 0)  -->
<svg version="1.1" id="Layer_1" xmlns="http://www.w3.org/2000/svg" xmlns:xlink="http://www.w3.org/1999/xlink" x="0px" y="0px"
	 viewBox="0 0 267 321" style="enable-background:new 0 0 267 321;" xml:space="preserve">
<style type="text/css">
	.st0{clip-path:url(#SVGID_00000152250250581495502760000009475618009159746697_);}
	.st1{fill:#442020;}
	.st2{fill:#6B3737;}
	.st3{fill:#FEA579;}
	.st4{fill:#CF7682;}
	.st5{fill:#FFBDC6;}
	.st6{fill:#DE6948;}
	.st7{fill:#FAE7DE;}
	.st8{fill:#DD613F;}
	.st9{fill:#96563D;}
	.st10{fill:#FFB5BF;}
	.st11{fill:#783D26;}
	.st12{fill:#FFC257;}
	.st13{fill:#F0DED4;}
	.st14{fill:#B56753;}
	.st15{fill:#D5B4A1;}
</style>
<g id="Layer_2_00000043457181764212045350000015596864254903254435_">
	<g id="Layer_1-2">
		<g>
			<defs>
				<rect id="SVGID_1_" y="102.7" width="267" height="217.4"/>
			</defs>
			<clipPath id="SVGID_00000088132203241978015320000004631094176028660899_">
				<use xlink:href="#SVGID_1_"  style="overflow:visible;"/>
			</clipPath>
			<g style="clip-path:url(#SVGID_00000088132203241978015320000004631094176028660899_);">
				<path class="st1" d="M211.3,140.8c-0.2-0.6-0.4-1.2-0.7-1.8c-0.1-0.3-0.2-0.5-0.4-0.7c-0.1-0.1-0.1-0.2-0.2-0.3
					c-0.3-0.5-0.5-0.9-0.9-1.3c-0.2-0.2-0.3-0.4-0.5-0.6s-0.4-0.4-0.5-0.6c-0.8-0.8-1.6-1.3-2.4-1.9c-0.6-0.5-1.1-1.1-1.4-1.9
					c-0.2-0.3-0.3-0.7-0.4-1.1c-0.3-1-0.7-1.9-1.1-2.8c-0.9-1.6-2.3-2.8-3.9-3.5c-1.7-0.7-3.5-0.8-5.2-0.3c-1.1,0.3-2.4,0.8-3.4,0.1
					c-0.7-0.4-1.2-1.3-1.5-2.1s-0.7-1.6-1.2-2.2c-0.6-0.7-1.4-1.2-2.3-1.3c-1-0.1-2-0.1-3,0.1c-1.1,0.1-2.1,0.6-3,1.2
					c-0.8,0.7-1.5,1.5-2.3,2.2c-0.9,0.8-1.9,1.4-2.9,1.9c-1,0.5-1.9,1-2.8,1.7c-0.8,0.6-1.4,1.3-2.1,2c-1.3,1.5-2.2,3.4-2.7,5.4
					c-0.4,1.6-0.8,3.8,0.2,5.3c0.4,0.6,1,0.8,1.7,0.7c0.2-0.1,0.4-0.1,0.6-0.2c0.2-0.1,0.4-0.2,0.6-0.4c0.3-0.2,0.5-0.4,0.7-0.6
					c0.1,0.1,0.2,0.2,0.4,0.3c0.8,0.5,1.8,0.4,2.6,0.2l0.1,0c0.3-0.1,0.6-0.2,0.9-0.3c0.7-0.3,1.5-0.6,2.2-0.7l0.1,0
					c1.2-0.3,2.3-0.4,3.5-0.3c4.2,0.1,8.2,1.8,12,3.7l0.9,0.4l0,0l0.6,0.3c3.4,1.7,6.8,3.4,10.5,4.1c0.6,0.1,1.2,0.2,1.7,0.2
					c0.3,0,0.5,0,0.8,0.1l0.6,0c0.9,0,1.7,0,2.6-0.3c0.8-0.2,1.5-0.8,1.8-1.7C211.7,142.7,211.6,141.7,211.3,140.8z"/>
				<path class="st2" d="M170.8,136.2L170.8,136.2c-0.5-0.5-0.9-1-1.3-1.6c-0.3-0.4-0.5-0.8-0.9-1c-0.7-0.3-1.7,0.2-1.6,1.1
					c0,0.4,0.3,0.7,0.6,0.8c0.2,0,0.3,0.1,0.4,0.2c0.1,0.1,0.1,0.3,0.2,0.4c0,0.2,0.1,0.4,0.3,0.5c0.3,0.3,0.8,0.4,1.2,0.4l0,0
					c0.5,0,0.8-0.3,1.1-0.7c0,0,0,0,0-0.1c0,0,0,0,0,0C170.8,136.3,170.8,136.3,170.8,136.2z"/>
				<path class="st3" d="M148,274.4c0-1.6-0.1-3.2-0.2-4.8c-0.1-1-0.2-2-0.3-3c-0.1-0.6-0.1-1.3-0.2-1.9c0,0,0-0.1-0.1,0
					c-0.3,0.1-0.6,0.1-0.9,0.2c-2.2,0.4-4.3,0.5-6.5,0.5l-0.6,0c-1.6-0.1-3.2-0.2-4.8-0.5c0.1-0.6,0.2-1.2,0.3-1.8
					c0.2-1.4,0.5-2.7,0.7-4.1c0-0.1-0.1-0.1-0.1,0c-0.3,2-0.7,3.9-1,5.9c-0.3,0-0.5-0.1-0.8-0.2c-0.1,0-0.1,0.1,0,0.1
					c0.3,0.1,0.5,0.1,0.8,0.2c-0.2,1.1-0.4,2.1-0.5,3.2c-0.2,1.4-0.5,2.8-0.7,4.2c-0.4,2.7-0.9,5.4-1.3,8.2
					c-0.3,1.8-0.5,3.6-0.8,5.3c-0.1,0.6-0.2,1.3-0.3,1.9l0,0.2c-0.5,3.8-1.1,7.6-1.6,11.5c-0.6,4.5-1.1,9-1.7,13.4
					c-0.3,2.5-0.6,5.1-0.9,7.6h20.2c-0.1-1-0.2-2-0.3-3c-0.2-3.8-0.3-7.7-0.1-11.5c0-1.2,0.1-2.4,0.2-3.6c0-0.6,0.1-1.2,0.1-1.7
					c0.1-1.8,0.2-3.6,0.4-5.4c0.1-1.2,0.2-2.4,0.3-3.5c0.1-1.1,0.1-2.2,0.2-3.2c0-0.2,0-0.3,0-0.5c0.1-1.1,0.1-2.2,0.2-3.3v0v-0.2
					l0-0.8c0.1-1.7,0.1-3.3,0.2-5v-0.4C148.1,276.9,148.1,275.6,148,274.4z"/>
				<path class="st3" d="M241.1,278.1v0.4c0,1.7,0.1,3.3,0.2,5c0,0.3,0,0.5,0,0.8c0,0.1,0,0.1,0,0.2c0,0,0,0,0,0
					c0.1,1.1,0.1,2.2,0.2,3.3c0,0.2,0,0.4,0,0.5c0.1,1.1,0.1,2.2,0.2,3.2c0.1,1.2,0.2,2.4,0.3,3.5c0.1,1.8,0.3,3.6,0.4,5.4
					c0,0.6,0.1,1.2,0.1,1.7c0.1,1.2,0.1,2.4,0.2,3.6c0.2,3.8,0.1,7.7-0.1,11.5c-0.1,1-0.2,2-0.3,3h20.2c-0.3-2.5-0.6-5.1-0.9-7.6
					c-0.5-4.5-1.1-9-1.7-13.4c-0.5-3.8-1-7.6-1.6-11.5c0-0.1,0-0.1,0-0.2c-0.1-0.6-0.2-1.3-0.3-1.9c-0.3-1.8-0.5-3.6-0.8-5.3
					c-0.4-2.7-0.8-5.4-1.3-8.2c-0.2-1.4-0.5-2.8-0.7-4.2c-0.2-1.1-0.3-2.1-0.5-3.2c0.3,0,0.5-0.1,0.8-0.2c0.1,0,0-0.1,0-0.1
					c-0.3,0.1-0.5,0.1-0.8,0.2c-0.3-2-0.7-3.9-1-5.9c0-0.1-0.1,0-0.1,0c0.2,1.4,0.5,2.7,0.7,4.1l0.3,1.8c-1.6,0.3-3.2,0.5-4.8,0.5
					l-0.6,0c-2.2,0.1-4.4-0.1-6.5-0.5c-0.3,0-0.6-0.1-0.9-0.2c0,0-0.1,0-0.1,0c-0.1,0.6-0.2,1.3-0.2,1.9c-0.1,1-0.2,2-0.3,3
					c-0.1,1.6-0.2,3.2-0.2,4.8C241.1,275.6,241.1,276.9,241.1,278.1z"/>
				<path class="st3" d="M207.6,206.1L207.6,206.1c0-1.1-0.1-2.4-0.1-3.6c-0.2-4.1-0.4-8.8-0.7-13.4c-0.1-0.9-0.1-1.8-0.2-2.7
					c-0.5-8.8-1-16.5-1.2-17.6c0-0.3-3.8-1.1-7.4-1.8l-0.7-0.1c-0.7-0.1-1.4-0.3-2-0.4l-0.2,0l-0.1,0l-0.7-0.1l-1.3-0.2l-0.8-0.1
					c-0.4-0.1-0.7-0.1-0.7-0.1c-0.1,0.1-0.1,0.2-0.2,0.3c-0.1,0.1-0.1,0.1-0.2,0.2l-0.1,0.1l0,0l-0.2,0.4c0,0,0,0,0,0
					c-0.7,1.1-1.6,2.6-2.6,4.3l-0.2,0.3l-0.2,0.3l-0.4,0.6c0,0.1-0.1,0.1-0.1,0.1l0,0c-0.1,0.1-0.2,0.3-0.3,0.4l0,0
					c-0.1,0.1-0.2,0.3-0.2,0.4l0,0c-1.3,2.2-2.7,4.3-4.2,6.2c-0.5,0.6-0.9,1.2-1.3,1.6c-0.9,1.1-1.4,1.8-1.3,1.8l0,0
					c0.1,0.6,0.2,4.5,0.4,9c0,0.2,0,0.4,0,0.5c0,0.7,0,1.4,0.1,2.1c0.1,2.8,0.2,5.6,0.3,8c0.1,1.8,0.1,3.4,0.2,4.6
					c0,0.6,0,1.2,0.1,1.8c0,0.3,4.5,1.3,9.8,2.4l0.1,0l0.1,0h0.1l0.1,0l1.6,0.3c2.5,0.5,5,1,7.2,1.4c4.1,0.8,7.4,1.3,7.5,1.3
					C207.8,214.6,207.8,211.1,207.6,206.1z"/>
				<path class="st1" d="M216.9,170.1c-0.7,1.6-1.5,3.1-2.4,4.6c-1,1.5-2.1,2.9-3.2,4.3c-1.1,1.5-2.1,3.1-2.8,4.9
					c-0.7,1.7-1.2,3.5-1.7,5.3l-0.1-0.1c-0.5-0.2-0.9-0.4-1.3-0.7c-0.7-0.6-1.4-1.2-2-1.8c-1.2-1.5-2.1-3.4-2.9-5.2
					c-0.4-0.9-0.8-1.8-1.2-2.7c-0.7-1.7-1.4-3.3-2.2-4.9c-0.4-0.9-0.9-1.7-1.5-2.4c-0.9-1.3-2.1-2.5-3.3-3.4
					c-1.7-1.2-3.5-2.1-5.2-3.1c-1.6-2.1-3.3-4.2-5.1-6.1c-1.5-1.6-3-3.2-4.6-4.6c-0.8-0.8-1.6-1.5-2.5-2.2c-0.7-0.6-1.4-1.2-2.1-1.8
					c-0.7-0.6-1.3-1.3-1.8-2.2c-0.4-0.8-0.7-1.8-0.9-2.7c-0.3-1.9-0.1-4-1.2-5.6c-0.1,0.2-0.2,0.4-0.2,0.6c0,0.1-0.1,0-0.1,0
					c0.1-0.2,0.2-0.5,0.3-0.7l0,0c0,0,0-0.1,0-0.1c0,0,0,0,0,0c0.2-0.4,0.4-0.8,0.6-1.1c1.5-2.6,4-4.2,6.6-5.3
					c3.2-1.3,6.5-2,9.9-2.1c3.4-0.1,6.8,0.3,10.1,1.1c3.3,0.8,6.6,2,9.7,3.5c2.9,1.4,5.6,3.4,7.8,6c2,2.5,3.5,5.3,4.5,8.5
					C220.1,156.5,219.5,163.8,216.9,170.1z"/>
				<path class="st3" d="M195.3,176.8c-0.1,0.9-4.6,6.4-5.8,7.9c-1.3,1.7-3.4,4.3-6.5,6.6c-0.2,0.2-0.5,0.3-0.7,0.5
					c-0.4,0.2-0.8,0.4-1.2,0.6c-2.4,1-5.7,1.5-8.5,2.1c-1.9,0.3-10.8,3.2-10.5-2.9c0-0.1,0.2-1.2,0.3-2.6c0.2-1.4,0.3-3.1,0.4-4
					c0-0.1,0-0.2-0.1-0.3c-0.2-0.8-0.5-1.1-0.7-2c-0.2-0.7-0.5-1.3-0.2-2c0.2-0.3,0.4-0.6,0.7-0.9l0.2-0.3l0,0l0.1-0.1l0,0l-0.3-0.5
					c-0.5-0.7-1.1-1.5-1.2-2.4l0,0c0-0.3,0.1-0.7,0.3-0.9c0-0.1,0.1-0.1,0.1-0.2c0.2-0.3,0.5-0.5,0.7-0.8c0.3-0.4,0.5-0.8,0.6-1.3
					c-0.9-0.5-3.4-2.1-4.2-2.8c-0.3-0.3-0.6-0.6-0.8-1c-0.1-0.4-0.1-0.8,0-1.2c0.3-0.9,0.9-1.7,1.4-2.5c0.5-0.8,1.1-1.6,1.7-2.3
					c1-1.2,1.9-2.6,2.7-3.9c0.2-0.3,0.3-0.5,0.4-0.8c0.3-0.6,0.5-1.2,0.8-1.8c0.2-3.4,0.3-5.6,0.3-5.8c0.1-1,0.2-1.9,0.4-2.9
					c0.3-1.6,2.6-8.6,2.7-8.7c0-0.1,1.6-3.8,1.9-3.6c0.1-0.1,1.1,0.5,1,0.5c2.1,1.7,4.3,3.5,6.3,5.4c1.9,1.8,3.7,3.7,5.4,5.8
					c1.7,2.2,3.1,4.5,4.8,6.7c0.8,1.1,1.5,2.2,2.2,3.4c0.3,0.5,0.5,1,0.7,1.6c0.2,0.6,0.5,1.2,0.6,1.8c0,0.1,0.2,0.2,0.4,0.3
					c0.4,3.7,0.4,8.2,1.5,11.8C193.2,173.8,195.3,176.3,195.3,176.8z"/>
				<path class="st4" d="M222.8,216.4v104h-85.7c0,0,0-0.1,0-0.1c-0.4-3.6-0.6-7.2-0.5-10.8c0.1-6.3,0.7-12.6,1.4-18.9l0,0
					c0.1-1.2,0.2-2.3,0.4-3.5c0-0.1,0-0.3,0-0.4c0.1-0.8,0.2-1.6,0.2-2.4c0.1-1.5,0.3-3,0.4-4.5c0.2-2.6,0.3-5.2,0.4-7.8
					c0-1.2,0-2.4,0-3.6c0-0.2,0-0.4,0-0.6c0-0.8,0-1.6-0.1-2.4c0-0.3,0-0.5,0-0.8c-0.1-2.5-0.3-5.1-0.5-7.7c-0.1-2.3-0.2-4.7-0.2-7
					v-0.2c0-0.7,0.1-1.4,0.1-2.2c0.1-1.8,0.4-3.5,0.7-5.2c0.9-4,2.6-8,5.3-10.9c0.8-0.9,1.7-1.6,2.6-2.2c1.5-1.3,3.1-2.4,4.7-3.5
					l0.6-0.4l0.1-0.1l0.2-0.1l0.4-0.3c1.1-0.7,2.3-1.5,3.6-2.3c3.6-2.3,7.7-4.6,11.5-6.7l1.3-0.7l1.9-1.1c0.5-0.3,1-0.6,1.5-0.8
					l1.5-0.9l0.3-0.1l0.1-0.1c2-1.1,3.7-2.1,5.1-2.9c0.3,0.4,0.6,0.8,1,1.2c2,2.1,4.6,3.5,7.3,4c0.6,0.1,1.1,0.2,1.7,0.3l0.1,0
					l0.4,0l0.1,0c0.6,0.1,1.2,0.1,1.7,0.1c0.3,0,0.6,0,0.9,0c0.2,0,0.5,0,0.7,0c0.8,0,1.5-0.1,2.3-0.2c1.1,0.1,2.2-0.2,3.1-0.8
					c0.2-0.1,0.3-0.1,0.5-0.2c0.8-0.4,1.5-0.9,2.1-1.6c1-1.2,1.7-2.6,2.1-4.1l0.2-0.2c1.1-0.4,2.1-1.1,2.9-2
					c0.1,0.2,0.1,0.4,0.2,0.6c0.2,0.6,0.5,1.2,0.9,1.8c0.4,0.6,2,1.6,4.2,2.9l0.1,0.1l0,0c2.1,1.2,4.8,2.7,7.5,4.1l0,0l0.1,0
					L222.8,216.4z"/>
				<path class="st5" d="M128.5,301.1c0.2,0.1,0.3-0.1,0.3-0.2c0,0,0.1,0,0.1,0C129,301.1,128.7,301.3,128.5,301.1
					C128.5,301.2,128.5,301.1,128.5,301.1z"/>
				<path class="st1" d="M221.1,149c0.3-1.2,0.4-2.5,0.3-3.7c-0.3-2.5-1.4-4.7-3.1-6.3c-2-1.8-4.6-2.3-6.9-3.7
					c-1.3-0.8-2.4-1.8-3.7-2.5c-0.2-0.1-0.4-0.2-0.7-0.4c-0.8-0.4-1.7-0.7-2.6-0.9h0c-0.2,0-0.3-0.1-0.5-0.1c-0.2,0-0.4,0-0.6-0.1
					c0-0.2,0-0.4-0.1-0.6c0,0,0-0.1-0.1,0c0,0,0,0,0,0.1c0,0.2,0.1,0.4,0.1,0.6c-0.4,0-0.9,0-1.3,0c-0.1,0-0.1,0.1,0,0.1
					c0.4,0,0.9,0,1.3,0c0,0.8-0.2,1.6-0.4,2.4c-0.1,0.4-0.2,0.9-0.2,1.3c-0.1,1.5,0.5,2.8,1.2,4.1c0.7,1.4,1.6,2.8,2.3,4.3
					c0.1,0.3,0.3,0.5,0.4,0.8c0,0,0,0.1,0.1,0.1c0.2,0.3,0.3,0.6,0.5,1c0.4,0.7,0.7,1.5,1,2.3c2.3,5.6,3.8,11.6,6.2,17.2
					c0.1,0.3,0.3,0.7,0.4,1c0.1,0.2,0.2,0.5,0.4,0.5c0.5,0.1,0.9-0.7,1.1-1c0.8-1.1,1.6-2.3,2.3-3.5c0.2-0.3,0.4-0.7,0.5-1l0,0
					c0.4-0.9,0.8-1.8,1-2.8c0.1-0.6,0.2-1.3,0.3-2c0-0.8,0-1.7-0.1-2.5c-0.1-0.9,0-1.7,0.1-2.6C220.6,150.5,220.8,149.8,221.1,149z"
					/>
				<path class="st1" d="M194,159.9c-0.8-3.9-2.6-7.7-4.3-11.4l-0.4-0.8c-0.3-0.6-0.5-1.2-0.8-1.8c-0.9-2-1.7-4.3-3.2-5.9
					c-1.5-1.5-3.4-2.1-5.3-2.4c-1.2-0.2-2.4-0.3-3.7-0.4l-0.2,0c-0.9-0.1-1.9-0.3-2.8-0.5c0-0.2,0-0.4,0-0.6c0-0.1-0.1-0.1-0.1,0
					c0,0.2,0,0.4,0,0.6c-0.4-0.1-0.7-0.2-1.1-0.3c0,0-0.1,0-0.1,0c0,0,0,0.1,0,0.1c0.4,0.1,0.7,0.2,1.1,0.3c0,0.2,0,0.3,0.1,0.5
					l-2.1-1.3l-1-0.6c-0.1,0-0.1,0.1-0.1,0.1l1,0.6l2.3,1.4c0,0.1,0.1,0.3,0.1,0.4c0,0.1,0.1,0,0.1-0.1c0-0.1-0.1-0.1-0.1-0.2
					l0.6,0.3l0.1,0c1.2,0.7,1.9,2.4,2.9,3.5l0,0l0,0c1.1,1.2,2.5,2.4,3.2,3.8c0.3,0.6,0.5,1.3,0.4,2c0,0.1,0,0.1,0,0.2
					c-0.2,1.5-0.7,2.9-1.1,4.3c-0.3,1.1-0.9,2.7-0.1,3.8c0.6,0.9,1.6,1.2,2.3,1.9c0.5,0.5,0.8,1.1,0.9,1.9c0.1,0.6,0.1,1.3,0.1,1.9
					c0,2.9,1,4.8,0.6,11.9c0-0.1,1-3.4,1-3.4c0.9-2.4,2.6,1.2,2.7-1.5l0,0c0.1-1,0.3-2,0.8-2.9c0.9-1.6,2.2-2.9,3.7-3.8l0,0l0,0
					c0.1-0.1,0.2-0.1,0.3-0.2C192.7,160.7,192.8,159.9,194,159.9C194,159.9,194,159.9,194,159.9C194,159.9,194,159.9,194,159.9z"/>
				<path class="st1" d="M187.4,172.4c-0.1-0.7-0.1-1.3-0.2-2c-0.1-0.8-0.1-1.5-0.2-2.3l0,0c0-0.5,0-1,0-1.5c0-0.6,0.1-1.2,0.2-1.8
					c0.1-0.6,0.3-1.3,0.4-1.9c0.3-1,0.6-2.2,0.4-3.3c-0.1-1.1-1-1.3-1.8-1.6l-1.6-0.7c0,0,0-0.1,0-0.1c0-0.1-0.4,0.6-0.4,0.7
					c0.5,1.3,0.7,2.7,0.6,4l0,0c0,0.3-0.1,0.6-0.1,0.9c-0.3,1.9-0.6,3.7-0.9,5.6c-0.2,1.5-0.4,3-0.6,4.5c0,0.4-0.1,0.8-0.1,1.3
					c-0.1,0.9-0.2,1.9-0.3,2.8c0,0.5-0.1,0.9-0.1,1.4c0,0.4-0.1,0.8-0.1,1.1c0,0.1-0.1,0.3-0.1,0.4c-0.3,0.5-0.7,0.9-1.1,1.2
					c-0.2,0.1-0.4,0.2-0.5,0.4c-0.7,0.4-1.4,0.8-2.2,1.1c-1.4,0.6-6.1,1.1-7.5,1.8c-1.4,0.6-2.7,1.6-4,2.4c-0.3,0.2-0.5,0.3-0.8,0.5
					l0,0c-0.3,0.2-0.6,0.3-0.9,0.5c-0.1,0.1-0.3,0.1-0.4,0.2c-0.6,0.2-1.2,0.4-1.8,0.6c-0.3,0.1-0.5,0.2-0.8,0.3c0,0-0.1,0-0.1,0
					l0,0c0,0,0,0,0,0l0,0c-0.7,2.6-2.4,5.2-1.7,8c0.3,1.2,1.1,2.1,2.1,2.5c1.3,0.4,2.5-0.2,3.6-0.8c1.1-0.5,2.2-0.9,3.3-0.9
					c0.2,0,0.5,0,0.7,0l0.3,0c1.4,0.1,2.8,0.5,4.2,0.3c1.3-0.2,2.5-0.8,3.5-1.7c0.7-0.6,1.4-1.1,2.2-1.6c0.3-0.2,0.7-0.3,1-0.5
					c0.7-0.2,1.4-0.1,2.1-0.2c0.6-0.1,1.1-0.4,1.4-0.9c0.4-0.6,0.7-1.2,0.8-1.9l0,0c0.9-1.2,1.3-2.6,1.5-4l0,0
					c0.1-0.6,0.1-1.1,0.2-1.7c0.1-2.4,0.2-4.9,0.1-7.3C187.7,176.2,187.6,174.3,187.4,172.4z"/>
				<path class="st6" d="M167,179.2c-0.8-0.5-1.5-1.2-2.2-1.9c-0.6-0.7-1.3-1.2-2.1-1.6c-0.3-0.1-0.6-0.2-0.9-0.2
					c-0.1,0.1-0.1,0.1-0.1,0.2c-0.2,0.3-0.3,0.6-0.3,0.9l0,0c0,0.1,0,0.1,0,0.2l0,0c0,0.1,0,0.3,0.1,0.4c0,0,0,0.1,0,0.1l0,0.1
					c0,0.1,0,0.1,0.1,0.1c0.1,0.1,0.1,0.2,0.2,0.3l0.1,0.1l0.1,0.2l0.1,0.2l0,0.1c0.1,0.1,0.1,0.2,0.2,0.3s0.1,0.2,0.2,0.3l0.3,0.5
					l0,0l-0.1,0.1c0.5,0.1,1.1,0.1,1.7,0.1c0.9,0.1,1.8,0,2.7-0.3C167,179.2,167,179.2,167,179.2C167,179.2,167,179.2,167,179.2z"/>
				<path class="st1" d="M170.7,176.7c-0.3-0.5-0.7-0.9-1.2-1.2c-0.6-0.4-1.3-0.6-2-0.7c-0.7-0.1-1.4-0.2-2.2-0.4
					c-0.7-0.2-2-1-2.3-1.1l0,0c0,0,0,0,0,0l-1.6,1.3c-0.4,0.3-0.8,0.5-0.7,1c0.1,0.4,0.3,0.8,0.6,1c0.4,0.3,0.9,0.5,1.4,0.5
					c0.3,0,1.2,0,2.1,0.1c0.8,0,1.5,0,1.8,0c1.3,0,2.7-0.3,4-0.4C170.6,176.8,170.7,176.8,170.7,176.7
					C170.7,176.7,170.7,176.7,170.7,176.7z"/>
				<path class="st6" d="M164.6,184c-0.5,0.3-1.1,0.3-1.7,0.3c-0.1,0-0.1,0.1,0,0.1c0.6,0,1.2,0,1.8-0.3
					C164.7,184.1,164.7,184,164.6,184z"/>
				<path class="st4" d="M213.2,211.9c0-0.2-0.1-0.4-0.2-0.5l-0.3-0.5l-0.2-0.4c-1.2-2.3-2.4-4.6-3.6-7c-0.2-0.3-0.3-0.7-0.5-1
					c-0.1-0.1-0.2-0.2-0.3-0.2c-0.1,0-0.2,0.1-0.3,0.1l-0.3,0.1c-3.4,0.7-6.7,1.4-10.1,1.8c-1.3,0.2-2.8,0.1-4,0.8
					c-0.5,0.3-0.9,0.7-1.2,1.3c-0.1,0.3-0.2,0.7-0.2,1c-0.1-0.9-0.2-2.1-1.1-2.4c-0.5-0.2-1.1-0.3-1.6-0.4l-1.7-0.5l-3.5-1
					c-1-0.3-2.1-0.6-3.2-0.4h0c-0.2,0-0.4,0.1-0.6,0.2c-0.3,0-0.6,0.2-0.7,0.5c-0.3,0.4-0.5,0.8-0.7,1.2l-1.6,2.9l-1.6,2.9
					c-0.3,0.5-0.5,0.9-0.8,1.4c0,0.1-0.1,0.1-0.1,0.2c-0.2,0.3-0.2,0.6-0.2,0.9c0,0,0,0,0.1,0.1l1.5,0.2l0.2,0c0,0,0,0.1-0.1,0.1
					c-0.4,0.8-0.8,1.5-1.2,2.2c0,0.1,0.1,0.1,0.1,0.1c0.4-0.7,0.8-1.5,1.2-2.2c0,0,0-0.1,0.1-0.1l0-0.1l1.3,0.2
					c3.9,1.1,7.9,2.2,11.9,2.9l0.1,0l0.4,0.1l0.4,0.1l0.1,0c1,0.1,2,0.3,3,0.3c0.7,0.1,1.4,0.1,2.1,0.1c0.4,0,0.9,0,1.3,0
					c2.3,0,4.5-0.1,6.7-0.6c1.2-0.3,2.4-0.7,3.5-1.2l0.1,0c0.1,0,0.2-0.1,0.4-0.1c1-0.4,2.1-0.6,3.2-0.5c0,0,0.1,0,0.1-0.1
					c-0.1-0.2-0.1-0.5-0.2-0.7c0.6-0.2,1.3-0.5,1.9-0.9C212.9,212.6,213.3,212.4,213.2,211.9z"/>
				<path class="st4" d="M151.8,228.4c-0.6,3.7-1.1,7.4-1.5,11.1c-1,9-1.5,18-1.8,27c-0.2,9-0.4,18.1-1.6,27c0,0-0.1,0.1-0.1,0
					c-1.6-0.8-3.2-1.4-4.9-1.9c-5.6-1.8-12-2.8-16.2-7.8c0,0,0-0.1,0-0.1c0.3-0.5,0.6-1,0.9-1.5c2.3-4.2,3.3-9,4-13.8
					c0.7-4.9,1-9.9,1.8-14.8c0.4-2.6,1-5.1,1.9-7.6l0-0.1c0.7-2.1,1.6-4,2.7-5.9c2.4-4,5.7-7.3,9.2-10.1c1.4-1.1,2.7-2.1,4.2-3.1
					c0.1,0.1,0.2,0.3,0.4,0.4l0,0C150.7,227.4,151.4,227.9,151.8,228.4z"/>
				<path class="st4" d="M251.3,290.4L251.3,290.4c-0.1-1.2-0.2-2.3-0.4-3.5c0-0.1,0-0.3,0-0.4c-0.1-0.8-0.2-1.6-0.2-2.4
					c-0.1-1.5-0.3-3-0.4-4.5c-0.2-2.6-0.3-5.2-0.4-7.8c0-1.2,0-2.4,0-3.6c0-0.2,0-0.4,0-0.6c0-0.8,0-1.6,0.1-2.4c0-0.3,0-0.5,0-0.8
					c0.1-2.6,0.3-5.2,0.5-7.7c0.1-2.4,0.2-4.7,0.2-7.1c0-0.1,0-0.2,0-0.2c0-0.7-0.1-1.4-0.1-2.2c-0.1-1.8-0.4-3.5-0.7-5.2
					c-0.9-4.1-2.6-8-5.3-10.9c-0.8-0.9-1.7-1.6-2.6-2.3c-1.5-1.3-3.1-2.4-4.7-3.5l-0.6-0.4l-0.1-0.1l-0.2-0.1l-0.4-0.3
					c-1.1-0.8-2.3-1.5-3.6-2.3c-3.2-2-6.6-4-10-5.9c-1.4,1.9-3.5,3-5.7,3.1c-0.4,0-0.9,0.1-1.3,0.1c-0.1,18.8,1.2,37.5,1.6,56.2
					c0.3,14.9-0.1,29.9-0.3,44.9h35.5c0-0.1,0-0.1,0-0.1c0.4-3.6,0.6-7.2,0.5-10.8C252.5,303.1,251.9,296.7,251.3,290.4z"/>
				<path class="st4" d="M237.3,228.1c0.6,3.7,1.1,7.4,1.5,11.2c1,9,1.5,18,1.8,27.1c0.2,9.1,0.4,18.1,1.6,27.1c0,0,0.1,0.1,0.1,0
					c1.6-0.8,3.2-1.4,4.9-1.9c5.6-1.8,12-2.8,16.2-7.8c0,0,0-0.1,0-0.1c-0.3-0.5-0.6-1-0.9-1.5c-2.3-4.2-3.3-9.1-4-13.9
					c-0.7-4.9-1-9.9-1.8-14.8c-0.4-2.6-1-5.2-1.9-7.6c0,0,0-0.1,0-0.1c-0.7-2.1-1.6-4-2.7-5.9c-2.4-4-5.7-7.3-9.2-10.2
					c-1.4-1.1-2.7-2.1-4.2-3.1c-0.1,0.1-0.2,0.3-0.4,0.4l0,0C238.4,227.1,237.8,227.7,237.3,228.1z"/>
				<path class="st5" d="M196.5,241.4c-0.6,0-1.2,0-1.7,0c-0.7,0-1.5,0.1-2.2,0.1c-0.6,0-1.3,0-1.9,0h-0.1c-2.4,0-4.7-0.2-7.1-0.6
					l-0.3,0c1.2,0,2.3,0,3.5,0.2c0.6,0.1,1.3,0.2,1.9,0.2c0.6,0,1.1-0.2,1.6-0.5c0.2-0.1,0.3-0.1,0.4-0.2l0.1-0.1
					c0.4-0.2,0.8-0.4,1.2-0.5c0.6-0.2,1.2-0.3,1.8-0.4c0.9-0.2,2.3-0.5,2.7-1.6c0.2-0.4,0.1-0.9-0.2-1.3c-0.3-0.3-0.7-0.4-1.1-0.2
					c-1.1,0.2-2,1.1-3,1.7c-0.4,0.3-0.9,0.6-1.4,0.8l-0.1,0.1c-0.7,0.3-1.4,0.4-2.1,0.4c-0.7,0-1.3-0.1-1.9-0.3
					c-0.6-0.2-1.2-0.2-1.8-0.1c-0.8,0.1-1.5,0.2-2.2-0.1c-0.7-0.2-1.3-0.5-2-0.6c-1.1-0.2-2.3,0.1-3.1,1c-0.7-0.3-1.5-0.7-2.2-1.2
					c-0.8-0.6-1.5-1.2-2.2-1.9c0.2-0.2,0.4-0.2,0.6-0.2c0.4,0,0.7,0.1,1.1,0.3c0.6,0.1,1.2,0.1,1.8,0c0.6-0.2,1.3-0.4,1.9-0.6
					c0.8-0.2,1.5-0.2,2.3,0c0.7,0.1,1.4,0.3,2.1,0.6c0.7,0.2,1.3,0.5,1.9,0.9c0.8,0.6,1.8,1.5,2.9,1c0.9-0.4,1.3-1.5,0.9-2.5
					c0,0,0,0,0,0c-0.2-0.5-0.5-0.8-1-1c-0.6-0.2-1.2-0.1-1.8-0.1c-0.7,0.1-1.4,0-2-0.3c-0.6-0.3-1.2-0.6-1.9-0.8
					c-1.2-0.3-2.5-0.3-3.8,0c-0.7,0.2-1.4,0.5-2.1,0.8c-0.8,0.3-1.6,0.5-2.4,0c-0.5-0.3-0.9-0.7-1.5-0.8c-0.1,0-0.2,0-0.3,0
					c-0.4,0-0.7,0.3-0.8,0.6c-0.5-0.6-1.1-1.1-1.6-1.6c-0.6-0.5-1.2-1-1.9-1.3c1.1-0.4,2.2-0.7,3.4-0.8c0.4,0,0.7-0.1,1.1-0.1
					c0.5,0,1,0,1.5,0.1c0.8,0.2,1.6,0.5,2.4,0.8c0.7,0.3,1.5,0.4,2.2,0.3c0.7-0.2,1.4-0.5,2-0.9c0.7-0.4,1.5-0.7,2.3-0.8
					c0.9-0.1,1.7,0,2.6,0c0.7,0,1.6,0.1,2.3-0.2c0.2-0.1,0.4-0.3,0.5-0.5c0.1-0.3-0.2-0.5-0.4-0.7c-1.1-1-2.6-0.9-4-0.8
					c-1.8,0.2-3.5,0.5-5.2,1c-0.9,0.3-1.8,0.5-2.7,0.6c-0.9,0-1.7-0.1-2.5-0.5c-0.4-0.2-0.7-0.4-1.1-0.5c-0.4-0.2-0.9-0.4-1.4-0.6
					c-0.8-0.3-1.7-0.3-2.5-0.1c-1,0.2-1.9,0.6-2.9,1c-0.5,0.2-1.2,0.5-1.3,1.1c-0.4-0.1-0.7-0.2-1.1-0.3c-0.2-0.1-0.5-0.1-0.7-0.2
					c0.2-0.4,0.4-0.7,0.7-1c0.9-1.1,2.3-1.5,3.5-2c1.1-0.4,2.1-1.2,2.7-2.2c0.1-0.1,0.1-0.2,0.2-0.2c0.4-0.7,0.9-1.3,1.4-1.8
					c0.4-0.4,0.8-0.7,1.2-0.9c0.3-0.2,0.5-0.3,0.8-0.5l0,0c0.7-0.4,1.5-0.8,2.1-1.3c0.5-0.4,0.9-1,0.8-1.6c-0.1-0.6-0.5-0.8-1-0.8
					c-0.3,0.1-0.6,0.2-0.9,0.4c-0.3,0.2-0.5,0.5-0.7,0.7c-0.4,0.6-0.7,1.3-1.2,1.7l-0.1,0.1c-0.6,0.5-1.4,0.7-2.1,0.8
					c-0.7,0.1-1.4,0.3-2.1,0.5c-0.6,0.3-1.2,0.7-1.7,1.2c-0.7,0.6-1.3,1.4-2.1,1.8s-1.7,0.6-2.5,0.9c-1.4,0.6-2.6,1.7-3.4,3.1
					c0,0-0.1,0-0.1,0c0,0,0,0,0,0c-0.7-0.2-1.4-0.5-2-0.9c-0.3-0.1-0.6-0.3-0.8-0.5c0,0,0-0.1-0.1-0.1c0,0,0,0,0,0l-0.1-0.1
					c1-1,2.1-2,3.4-2.5c0.7-0.3,1.4-0.4,2.1-0.7c0.5-0.3,0.9-0.7,1.3-1.1l0.2-0.2c0.8-1,1.5-2.1,2.7-2.8c1.2-0.7,2.6-1.1,3.5-2.2
					c0.3-0.4,0.6-1,0.7-1.6c-3.8,2.1-7.8,4.5-11.5,6.7c-1.2,0.8-2.4,1.5-3.6,2.3l-0.4,0.3c0,0.1,0,0.1,0,0.2c0,0-0.1,0-0.1,0
					c0,0-0.1-0.1-0.1-0.1l-0.1,0.1c0,0.1,0.1,0.1,0.1,0.2c-0.2,1-0.6,2-1.1,2.9c-0.4,0.8-0.9,1.6-1.3,2.4c-0.4,0.8-0.6,1.7-0.4,2.7
					c0.2,0.9,0.7,1.7,0.9,2.7l0,0c0.2,1.2-0.1,2.4-0.4,3.6l0,0c-0.3,0.8-0.6,1.6-0.8,2.5c-0.3,1-0.3,2-0.2,2.9
					c0.1,0.4,0.2,0.7,0.3,1.1l0,0c0.2,0.5,0.4,1.1,0.7,1.6c1,1.9,2.4,3.6,3.8,5.2c0,0,0.1,0,0.1,0c0,0,0,0,0,0
					c0.2-1,0.3-2.1,0.2-3.1c0-0.5-0.1-1-0.3-1.5c-0.2-0.7-0.5-1.5-0.8-2.1c-0.4-0.7-0.9-1.3-1.2-2.1c-0.7-1.6-0.3-3.5,0.2-5.2
					c0.3-0.9,0.5-1.8,0.7-2.8c0.1-0.9,0.1-1.8,0.2-2.8c0-1.1,0.1-2.2,0.4-3.2c0.1-0.4,0.2-0.8,0.4-1.2c0.2-0.6,0.5-1.2,0.8-1.8
					c0.9,0.6,1.9,1,2.9,1.4c-0.2,0.8-0.8,1.5-1,2.3c-0.1,0.6-0.2,1.1-0.2,1.7c0,0.4,0,0.8-0.1,1.3c-0.2,1.7-0.7,3.2-0.9,4.9
					c0,0.3-0.1,0.5-0.1,0.8c-0.1,0.8,0,1.6,0.3,2.4c0.1,0.3,0.3,0.6,0.4,0.9c0.3,0.4,0.5,0.8,0.8,1.2c0.5,0.8,0.8,1.7,1,2.6
					c0.2,0.9,0.3,1.8,0.4,2.7c0.3,1.6,0.9,3.5,1.9,4.7c0.3,0.4,1,1,1.5,0.7c0.3-0.1,0.3-0.5,0.3-0.7c0-0.4,0-0.9,0-1.3
					c-0.3-1.8-1.3-3.3-2-5c-0.4-0.9-0.7-1.9-0.5-3c0.2-0.9,0.5-1.8,0.6-2.7c0.2-0.9,0.1-1.9-0.2-2.8c-0.2-0.5-0.4-1-0.4-1.5
					c0-0.6,0.1-1.1,0.2-1.7c0.3-1.1,0.7-2.2,1.2-3.2c0.5-0.9,1-1.9,1.1-3c0,0,0,0,0-0.1v0v0c0.6,0.1,1.2,0.3,1.7,0.4c0,0,0,0,0,0
					c0,0.6,0,1.1-0.1,1.7c-0.1,0.5-0.3,1-0.5,1.5c-0.3,0.9-0.1,1.9-0.1,2.9c0,1.1,0,2.2-0.2,3.3c-0.2,1-0.3,2-0.3,3
					c0,0.8,0.2,1.6,0.6,2.3c0.4,0.7,1.1,1.2,1.5,2c0.4,0.9,0.6,1.9,0.8,2.9c0.2,1,0.4,1.9,0.7,2.9c0.2,0.8,0.6,1.5,1.1,2.2
					c0.2,0.3,0.4,0.5,0.7,0.8c0.2,0.2,0.5,0.5,0.8,0.5c0.2,0,0.2-0.2,0.2-0.4c0-0.4-0.1-0.8-0.2-1.1c-0.2-0.7-0.4-1.4-0.7-2
					c-0.6-1.5-1.3-2.9-1-4.6c0.2-0.9,0.3-1.7,0.1-2.6c-0.1-0.8-0.4-1.6-0.6-2.4c-0.3-1-0.4-2.1-0.2-3.2c0.2-1.2,0.7-2.3,1-3.4
					c0.5-1.5,0.8-3.2,0.1-4.6h0c1.4,0.8,2.5,1.9,3.6,3c0,0,0,0.1,0,0.1c0,0,0,0.1,0.1,0.1c0,0,0,0,0,0c-0.5,4.1-0.4,8.2-0.4,12.3
					c0,1.1,0,2.2,0,3.3c0,0.8-0.1,1.7,0.1,2.5c0.2,0.8,0.9,1.1,1.5,1.4c0.6,0.3,1.1,0.8,1.5,1.4c0.5,0.8,0.8,1.7,1.3,2.5
					c0.3,0.4,0.6,0.7,1,0.8c0,0,0.1,0,0.1,0c0,0,0,0,0,0c0.4-2.9-0.8-5.6-1.9-8.2l-0.3-0.7c-0.5-1.1-0.8-2.3-1.1-3.5
					c-0.3-1.5-0.2-3,0.1-4.5c0-0.1,0-0.2,0-0.3c0.3-1.6,0.5-3.4,0-5v0c0.9,0.9,1.8,1.6,2.9,2.3c0.5,0.3,1,0.5,1.5,0.8
					c-0.1,0.1,0,0.2,0.1,0.1l0,0l0,0c0,0,0,0,0,0l0,0.2c0,0,0,0,0,0c-0.3,1.4-0.6,2.9-0.5,4.3c0.1,0.7,0.3,1.4,0.5,2.1
					c0.2,0.7,0.3,1.5,0.3,2.3c0,0.8-0.1,1.6-0.1,2.3c0,0.6,0.1,1.3,0.2,1.9c0.3,1.3,0.7,2.6,1.3,3.9c0.6,1.4,1.3,2.7,2.1,4
					c0,0,0.1,0,0.1,0c0,0,0,0,0,0c0.5-1.2,0.3-2.5,0-3.7c-0.2-0.7-0.3-1.4-0.5-2.1c-0.1-0.7-0.1-1.5-0.1-2.2c0-0.7,0-1.4-0.1-2.1
					c-0.1-0.6-0.4-1.1-0.6-1.7c-0.5-1.1-1.2-2.3-1.2-3.6c-0.1-1.6,0.9-3.1,0.9-4.7c1.3,1.9,3.2,3.2,5.3,3.7c1.1,0.3,2.2,0.4,3.3,0.2
					c0.5-0.1,1.1-0.2,1.6-0.4l0.2-0.1l0.2-0.1c0.5-0.2,0.9-0.4,1.4-0.6c0.6-0.3,1.4-0.4,2-0.2c0.7,0.2,1.3,0.6,1.9,0.8
					c0.8,0.2,2,0,2.3-1C198.3,242.1,197.2,241.5,196.5,241.4z"/>
				<path class="st5" d="M195.6,216.9c-0.5-0.8-1-1.5-1.5-2.3c-0.5-0.8-0.9-1.7-1.3-2.6c-0.1-0.2-0.1-0.4-0.2-0.7
					c-0.3-0.9-0.4-1.9-1.2-2.5c0,0-0.1,0-0.1,0c0,0,0,0,0,0c-0.1,0.8-0.3,1.6-0.5,2.5c0,0-0.1,0-0.1,0.1c0,0,0,0,0,0l0,0l0,0.1
					c-0.2,0.9-0.5,1.9-0.7,2.8c-0.2,0.6-0.4,1.3-0.6,1.9c-0.5,1.6-1.2,3.1-1.9,4.6c-0.1,0.2-0.2,0.4-0.3,0.6
					c-0.2,0.3-0.3,0.7-0.7,0.6c-0.4-0.2-0.8-0.4-1.2-0.7c-0.8-0.5-1.5-1-2.3-1.6c-1.5-1.1-3-2.4-4.3-3.7c-0.9-0.9-1.7-1.8-2.5-2.8
					c-0.4-0.5-0.8-1-1.2-1.5l-0.1,0.1c0.3,0.5,0.7,0.9,1.1,1.4c0,0.1,0.1,0.1,0.1,0.1l0.1,0.1c2,2.4,4.2,4.5,6.6,6.3
					c0.8,0.6,1.6,1.1,2.4,1.7c0.4,0.3,0.8,0.5,1.2,0.7c0.2,0.2,0.5,0.1,0.6-0.1c0,0,0,0,0,0c0.3-0.4,0.5-0.9,0.7-1.4
					c0.2-0.5,0.5-1,0.7-1.5c0.4-0.9,0.8-1.9,1.1-2.9c0,0,0-0.1,0-0.1c0.2-0.6,0.4-1.2,0.6-1.8c0.3-0.9,0.5-1.9,0.7-2.8v0l0.1,0.1
					c0,0,0,0,0,0.1c0,0,0.1,0.1,0.1,0.1c0.5,0.7,0.8,1.5,1.1,2.3c0.1,0.2,0.1,0.4,0.2,0.5c0.3,0.7,0.6,1.4,1,2l0.1,0.1
					c1,1.7,2.1,3.3,2.6,5.2c0,0,0,0.1,0.1,0c0,0,0,0,0,0c0,0,0.8-0.3,1.6-0.8C197.3,219.6,196.5,218.2,195.6,216.9z M198.5,220.9
					c-0.2,0.1-0.4,0.2-0.7,0.4l0,0c0,0,0,0,0,0.1C198,221.1,198.3,221,198.5,220.9L198.5,220.9z M212.6,210.8
					c-0.6,0.6-1.2,1.1-1.8,1.5c-1.1,0.8-2.2,1.6-3.2,2.5l-0.3,0.3c-0.9,0.9-1.9,1.6-3,2.3c-1.3,0.8-2.7,1.1-3.9,2
					c-0.6,0.5-1.3,1-2,1.5c0.5-0.2,0.9-0.5,1.3-0.8c0.6-0.5,1.3-1,2-1.4c0.6-0.3,1.3-0.5,2-0.8c1.2-0.7,2.3-1.6,3.4-2.5l0.4-0.3
					c1-0.8,2-1.6,3-2.3c0.7-0.5,1.4-1.1,2.1-1.7L212.6,210.8z"/>
				<path class="st5" d="M191.4,210.7c-0.1,0.3-0.1,0.6-0.2,1c0,0,0,0.1,0,0.1c-0.1,0.7-0.3,1.4-0.4,2.1c0,0.2-0.1,0.4-0.1,0.5
					c-0.1,0.6-0.2,1.3-0.3,1.9c-0.4,3.7-0.6,7.4-0.4,11.2c0.2,3.8,0.7,7.7,0.7,11.5c0,0.5,0,1,0,1.5c0,0.2,0,0.3,0,0.5
					c0,0.2,0,0.3,0,0.4c-0.1,0.8-0.2,1.7-0.3,2.5c-1,7.2-3.5,14-5.2,21c-1,4.2-1.5,8.6-1.5,13c0,1.7,0,3.3,0.1,5v0.1
					c0.1,2.7,0.3,5.4,0.5,8.1c0.3,4.4,0.6,8.8,0.4,13.3c-0.2,4.4-1,8.6-1.7,12.8c-0.2,1-0.4,2.1-0.5,3.1h-0.1
					c0.3-2.1,0.7-4.2,1.1-6.3c0-0.2,0.1-0.5,0.1-0.7l0-0.1c0.7-4.1,1.1-8.4,1-12.6c-0.1-4.4-0.4-8.9-0.7-13.3
					c-0.1-1.5-0.2-3-0.2-4.5v-0.2c-0.1-2.8-0.1-5.7,0.1-8.6c0.3-4.2,1.1-8.2,2.1-12.2c1.6-5.9,3.6-11.8,4.4-17.9
					c0.1-0.8,0.2-1.7,0.3-2.5c0-0.3,0-0.6,0.1-0.9c0-0.5,0-1,0.1-1.5c0-0.6,0-1.2,0-1.7c-0.1-4.6-0.8-9.1-0.7-13.6
					c0-2.5,0.2-4.9,0.5-7.4c0.1-0.6,0.2-1.3,0.3-1.9c0.1-0.9,0.3-1.9,0.5-2.8v0c0.1-0.3,0.1-0.6,0.2-1
					C191.3,210.6,191.4,210.6,191.4,210.7z"/>
				<path class="st1" d="M188.1,278.7L188.1,278.7c-0.1-0.1-0.1-0.2-0.2-0.3l-0.2-0.2c0,0-0.1-0.1-0.2-0.1c-0.1-0.1-0.2-0.1-0.3-0.1
					c-0.1,0-0.2,0-0.3,0c-0.1,0-0.1,0-0.2,0c-0.5,0.1-0.8,0.6-0.8,1.1c0,0.2,0,0.4,0,0.5c0.1,0.3,0.3,0.6,0.5,0.8l0,0
					c0.1,0.1,0.2,0.1,0.3,0.1c0.3,0.1,0.6,0,0.9-0.1c0.3-0.2,0.5-0.5,0.5-0.8c0-0.1,0-0.2,0-0.3
					C188.3,279.2,188.2,278.9,188.1,278.7z"/>
				<path class="st1" d="M189.5,297.5L189.5,297.5l-0.2-0.3L189,297c0,0-0.1-0.1-0.2-0.1c-0.1-0.1-0.2-0.1-0.3-0.1
					c-0.1,0-0.2,0-0.3,0c-0.1,0-0.1,0-0.2,0c-0.3,0.1-0.5,0.3-0.7,0.6c-0.1,0.1-0.1,0.3-0.1,0.5c0,0.2,0,0.4,0,0.5
					c0.1,0.3,0.3,0.6,0.5,0.8l0,0c0.1,0.1,0.2,0.1,0.3,0.1c0.2,0.1,0.3,0.1,0.5,0c0.2,0,0.3-0.1,0.4-0.2c0.3-0.2,0.5-0.5,0.5-0.8
					l0-0.3C189.6,298,189.6,297.7,189.5,297.5z"/>
				<path class="st1" d="M188.1,316.9L188.1,316.9c-0.1-0.1-0.1-0.2-0.2-0.3l-0.2-0.2c0,0-0.1-0.1-0.2-0.1c-0.1-0.1-0.2-0.1-0.3-0.1
					c-0.1,0-0.2,0-0.3,0c-0.1,0-0.1,0-0.2,0c-0.3,0.1-0.5,0.3-0.7,0.6c-0.1,0.1-0.1,0.3-0.1,0.5c0,0.2,0,0.4,0,0.5
					c0.1,0.3,0.3,0.6,0.5,0.8l0,0c0.1,0.1,0.2,0.1,0.3,0.1c0.3,0.1,0.6,0,0.9-0.1c0.3-0.2,0.5-0.5,0.5-0.8c0-0.1,0-0.2,0-0.3
					C188.3,317.3,188.2,317.1,188.1,316.9z"/>
				<path class="st1" d="M191.9,260L191.9,260l-0.2-0.3l-0.2-0.2c0,0-0.1-0.1-0.2-0.1c-0.1-0.1-0.2-0.1-0.3-0.1c-0.1,0-0.2,0-0.3,0
					c-0.1,0-0.1,0-0.2,0c-0.3,0.1-0.5,0.3-0.7,0.6c-0.1,0.1-0.1,0.3-0.1,0.5c0,0.2,0,0.4,0,0.5c0.1,0.3,0.3,0.6,0.5,0.8l0,0
					c0.2,0.2,0.5,0.2,0.8,0.2c0.2,0,0.3-0.1,0.4-0.2c0.3-0.2,0.5-0.5,0.5-0.8l0-0.3C192,260.4,192,260.2,191.9,260z"/>
				<path class="st1" d="M194.3,231.6L194.3,231.6l-0.2-0.3l-0.2-0.2c0,0-0.1-0.1-0.2-0.1c-0.1-0.1-0.2-0.1-0.3-0.1
					c-0.1,0-0.2,0-0.3,0c-0.1,0-0.1,0-0.2,0c-0.2,0-0.3,0.1-0.4,0.2c-0.3,0.2-0.4,0.5-0.4,0.8c0,0.2,0,0.4,0,0.5
					c0.1,0.3,0.3,0.6,0.5,0.8l0,0c0.1,0.1,0.2,0.1,0.3,0.1c0.2,0.1,0.3,0.1,0.5,0c0.2,0,0.3-0.1,0.4-0.2c0.3-0.2,0.5-0.5,0.5-0.8
					c0-0.1,0-0.2,0-0.4C194.4,232,194.4,231.7,194.3,231.6z"/>
				<path class="st5" d="M183.5,313.3c-0.9-3.9-4.3-6-7.4-7.4c-1.9-0.9-3.9-1.7-5.6-2.9c-0.3-0.2-0.5-0.4-0.7-0.5l0,0h0.1
					c0,0,0.1,0,0-0.1c0,0,0,0,0-0.1h-0.1c0.2-1.9,1.6-3.1,2.7-4.5c0.5-0.6,1-1.4,1.2-2.2c0.2-0.9,0.3-1.8,0.2-2.8
					c-0.1-1-0.3-2-0.3-3.1c0-1,0.2-2.1,0.5-3.1c0,0,0,0,0,0c0.5-2,0.8-4.1,0.8-6.2c0-1-0.1-2.1-0.3-3.1c-0.1-0.5-0.2-0.9-0.3-1.4
					c-0.1-0.4-0.2-0.7-0.4-1c-0.4-0.5-0.9-0.3-1.1,0.4c-0.2,0.9,0,2,0,2.9c0.1,1.1,0.1,2.1,0.1,3.2c-0.1,1.1-0.4,2.1-0.6,3.1
					c-0.2,0.7-0.2,1.5-0.2,2.2c0,0.2,0,0.5,0.1,0.8c0.1,1,0.2,2,0,3.1c-0.2,1-0.6,2-1.2,2.8c-0.6,0.8-1.4,1.3-2,2
					c-0.6,0.7-0.9,1.5-0.9,2.5c0,1.1,0.1,2.2,0.4,3.3l-0.1,0.1c-0.8-0.8-1.6-1.8-2.3-2.8c-0.8-1.2-1.5-2.5-2.2-3.8
					c0.3-0.1,0.2-1,0.2-1.2c0.1-0.6,0.1-1.3,0.3-1.9c0.3-0.8,0.5-1.6,0.8-2.3c0.3-0.8,0.6-1.7,0.8-2.6c0.3-0.9,0.6-1.9,0.8-2.9
					c0.4-1.7,0.5-3.5,0.1-5.2c-0.2-0.9-0.5-1.7-0.7-2.6c-0.2-1-0.2-2,0-3c0.2-1.5,0.6-3.2-0.1-4.6c-0.2-0.4-0.6-1-1-0.5
					c-0.2,0.2-0.2,0.7-0.3,1c-0.1,0.5-0.2,1-0.2,1.5c-0.2,1.8-0.3,3.6-0.1,5.4c0.2,1.9,0.7,3.7,0.5,5.6c-0.1,1.9-1.1,3.5-1.8,5.2
					l-0.1,0.2c-0.7,1.7-1.1,3.4-0.7,5.2c-1-1.8-2.1-3.5-3.2-5.3l-0.4-0.7c0,0,0,0,0,0c0.2-0.7,0-1.5-0.1-2.2
					c-0.2-0.9,0.1-1.7,0.5-2.5c0.3-0.7,0.6-1.4,0.8-2.2c0.1-0.8,0.1-1.5-0.1-2.3c-0.4-1.5-1.4-2.5-2.1-3.8c-0.4-0.8-0.6-1.6-0.6-2.5
					c0-0.9,0-1.7,0-2.6c-0.1-1.2-0.4-2.5-1.3-3.2c-0.4-0.3-1-0.5-1.4-0.1c-0.1,0.1-0.2,0.2-0.3,0.4c-0.2,0.4-0.2,0.8-0.2,1.2
					c0,0.8,0.2,1.6,0.5,2.3c0.7,1.8,1.9,3.3,1.9,5.3c0,1-0.2,2-0.2,2.9c0,1,0.3,1.8,0.6,2.6c0.6,1.5,0.8,3.1,0.9,4.7
					c-0.7-1-1.4-2-2.1-3c-0.3-0.5-0.6-0.9-1-1.4l-1-1.4c0,0-0.5-0.7-0.6-0.8c0-0.8-0.1-1.6-0.2-2.4c-0.2-1-0.8-2-1.6-2.6
					c-0.5-0.4-1-0.9-1.3-1.4c-0.3-0.5-0.5-1.1-0.7-1.6c-0.3-0.8-0.4-1.8-0.6-2.6l0,0c-0.1-0.3-0.1-0.5-0.2-0.7c-0.4-1.1-1-2-1.9-2.5
					c0,0-0.1,0-0.1,0c0,0,0,0,0,0c0,0.4,0.1,0.8,0.1,1.3c0.3,1.7,0.7,3.3,1.4,4.8c0.2,0.4,0.4,0.8,0.6,1.2c0.7,1.2,1.4,2.4,2.2,3.6
					c0.7,1.1,1.5,2.1,2.3,3.2v0c-1.2-0.6-2.4-1.3-3.5-2c-0.4-0.3-0.7-0.6-1.1-0.9c-0.1-0.1-0.2-0.2-0.3-0.2c-0.7-0.6-1.3-1.3-1.9-2
					c-0.9-1-2-2-3.1-2.8c-1-0.7-2.2-1.4-3.5-1.4c-0.1,0-0.2,0-0.2,0c-0.4,0-0.8,0.3-1,0.6c-0.2,0.5-0.2,1,0,1.6
					c0.2,0.6,0.5,1.1,1,1.4c0.4,0.3,0.8,0.6,1.2,0.8c1.1,0.5,2.4,0.6,3.5,1.1c0.6,0.3,1.1,0.7,1.6,1.2c0.4,0.6,0.7,1.2,1,1.8
					c0.3,0.5,0.6,1,1,1.4c0.1,0.1,0.3,0.3,0.4,0.4c0,0,0.1,0.1,0.1,0.1c0.4,0.3,0.9,0.6,1.5,0.7h0c0.6,0.1,1.3,0.1,1.9-0.2
					c0.4-0.2,0.9-0.5,1.3-0.7c0,0,0.4-0.1,0.6-0.1l0.7,0.9l0.5,0.7c1,1.5,2.1,2.9,3.1,4.5c0,0.2,0,0.4,0,0.6
					c-0.4,0.7-1.1,1.2-1.8,1.2c-0.9,0.1-1.7-0.2-2.5-0.6l-0.7-0.3c-1-0.4-2.1-0.7-3.2-0.9c-0.3-0.1-0.7-0.1-1-0.1
					c-0.2,0-0.4,0-0.7,0l0,0c-0.6,0-1.2,0.1-1.8,0.3c-0.8,0.2-1.6,0.6-2.5,0.4c-1.4-0.2-2.8-1.4-4.3-1.1c-0.3,0-0.5,0.1-0.8,0.3
					c-0.2,0.1-0.4,0.3-0.5,0.5c-0.4,0.6-0.2,1.3,0.2,1.8c0,0,0.1,0.1,0.1,0.1c0.1,0.1,0.2,0.3,0.4,0.4c0.8,0.7,1.9,0.9,2.9,0.9
					c1.3,0,2.6-0.4,3.9-0.5c0.4,0,0.8,0,1.2,0.1c0.3,0.1,0.7,0.2,1,0.3l0.1,0c0.5,0.2,0.9,0.5,1.4,0.7c0.1,0.1,0.3,0.1,0.4,0.2
					l0.4,0.2c0.5,0.2,1,0.3,1.5,0.4c1.7,0.2,3-1,4.3-1.9c0.7-0.4,1.4-0.8,2.1-1.1c0.3-0.1,0.6-0.3,0.9-0.6c1.1,1.7,2.1,3.3,3.1,5.1
					c0.4,0.7,0.8,1.4,1.2,2.1l-0.1,0c-0.2,0-0.4-0.1-0.5-0.2c-0.3-0.1-0.6-0.2-0.8-0.3c-0.1-0.1-0.2-0.1-0.3-0.1
					c-0.2-0.1-0.3-0.2-0.5-0.2c-1.4-0.5-2.9-0.2-4.3-0.2c-0.9,0-1.7,0-2.6-0.1c-0.9-0.1-1.7-0.3-2.6-0.5c-0.6-0.1-1.2-0.2-1.8-0.1
					c-0.2,0-0.4,0-0.6,0.1c-0.5,0.1-0.9,0.2-1.3,0.3l-0.2,0.1c-0.3,0.1-0.5,0.2-0.8,0.2l-2,0.7l-0.4,0.1c-0.6,0.2-1.2,0.3-1.7,0.8
					c-0.3,0.4-0.4,0.9-0.1,1.4c0.3,0.5,0.9,0.8,1.5,0.8c1.2,0.2,2.4-0.2,3.5-0.6c0.4-0.1,0.8-0.3,1.2-0.4c0.3-0.1,0.7-0.2,1-0.2
					c1.4-0.2,2.8-0.2,4.2,0.1c0.9,0.2,1.8,0.6,2.7,0.7s1.7-0.1,2.5-0.4c0.4-0.2,0.8-0.3,1.3-0.4c0.5-0.1,0.9-0.1,1.4,0
					c0.4,0,0.8,0.1,1.1,0.1c0.5,0.2,0.9,0.2,1.4,0.1c0.4,0.7,0.7,1.3,1.1,2c0.9,1.7,2.1,3.2,3.4,4.6l-0.1,0.1
					c-0.5-0.6-1.1-1-1.8-1.2c-0.8-0.2-1.6-0.2-2.4,0.2c-0.9,0.4-1.8,0.8-2.8,0.8c-1-0.1-2.1-0.5-3.1-0.8c-3-1-6.3-1-9.2,0.3
					l-0.3,0.2c-0.7,0.4-1.4,0.8-2,1.3l-0.2,0.1c-0.5,0.5-1.2,1.1-1.3,1.8c-0.1,0.7,0.2,1.3,0.7,1.6c0.1,0.1,0.3,0.2,0.5,0.2
					c0.5,0.1,1,0.1,1.5-0.2c0.4-0.2,0.7-0.4,1.1-0.6c0.4-0.3,0.8-0.6,1.2-0.8c0.9-0.4,1.8-0.7,2.8-0.7c1,0,1.9,0.2,2.8,0.7
					c0.8,0.4,1.6,1,2.5,1.2c1.7,0.3,3.1-1.1,4.6-1.6c1-0.3,1.9-0.1,2.9-0.3c1-0.2,1.8-0.6,2.7-0.9c0.4-0.1,0.7-0.2,1.1-0.2l0.1,0.1
					c0,0,0,0.1,0,0.1c0,0.1,0.1,0.1,0.1,0c1.3,1,2.6,1.8,4.1,2.4c3.3,1.6,7.4,3,9.1,6.9C183.2,312.4,183.3,312.9,183.5,313.3
					c-0.1,0.1,0,0.1,0,0.1C183.5,313.4,183.5,313.4,183.5,313.3C183.6,313.4,183.6,313.3,183.5,313.3
					C183.6,313.3,183.5,313.3,183.5,313.3z"/>
				<path class="st5" d="M230.5,261.8c-0.6-1-1.5-1.6-2.4-2.3c-0.3-0.2-0.6-0.4-0.9-0.7c-0.2-0.2-0.5-0.4-0.7-0.6
					c-1-0.9-1.8-2-2.4-3.3c-0.4-0.8-0.7-1.6-1.1-2.4c-0.6-1-1.7-1.7-2.6-2.5c-0.2-0.3-0.5-0.6-0.7-0.9c-0.4-0.7-1-1.2-1.6-1.7
					c1.2-0.8,3.9-2.6,4-2.7l0.5-0.4v-0.2l-1,0.7c-0.2-1.4-0.4-2.8-1-4c-0.3-0.6-0.7-1.2-1.1-1.7c-0.5-0.6-1.1-1-1.6-1.6
					c-1.1-1.2-1.4-2.9-1.6-4.5c-0.2-1.6-0.6-3.1-1.5-4.3c-0.4-0.6-0.9-1.1-1.4-1.4c-0.5-0.3-1.1-0.6-1.7-0.5
					c-0.5,0.1-0.7,0.7-0.8,1.2c-0.1,0.6-0.1,1.2,0.2,1.8c0.3,0.6,0.7,1.1,1.2,1.5c0.6,0.5,1.2,1,1.5,1.8c0.7,1.5,0,3.3,0.5,4.9
					c0.3,0.8,0.8,1.2,1.4,1.7c0.7,0.5,1.4,1,2,1.7c0.6,0.7,1.1,1.5,1.4,2.4c0.1,0.4,0.3,0.7,0.5,1c0.3,0.4,0.6,0.7,0.9,1
					c0,0,0,0,0,0l-2.5,1.7c0,0,0,0,0,0c-0.4-0.8-1-1.4-1.8-1.7c-0.8-0.4-1.6-0.4-2.5-0.4c-0.5,0-1-0.2-1.5-0.5
					c-0.4-0.3-0.7-0.6-0.9-1.1c-0.5-0.8-0.9-1.6-1.4-2.3c-1.2-1.6-2.7-2.8-4.1-3.9c-0.6-0.5-1.3-1.1-2.1-0.9c-0.7,0.2-1,1.3-0.8,2
					c0.2,0.7,0.8,1,1.4,1.1c0.8,0.2,1.6,0.5,2.2,1.3c0.6,0.8,0.7,1.7,0.8,2.7c0.1,0.8,0.4,1.6,1.1,1.9c0.7,0.4,1.5,0.3,2.3,0.5
					c0.9,0.3,1.4,1.1,2.2,1.6s1.7,0.3,2.6,0.3c0.4,0,1-0.1,1.3,0.2l-1.9,1.3c-0.8,0.5-1.7,1.1-2.5,1.7c-0.3-1-1.3-1.4-2.2-1.4
					c-1.2,0-2.3,0.6-3.5,1c-0.6,0.2-1.3,0.3-2,0.2c-0.7-0.2-1.3-0.4-1.9-0.8c-1.2-0.6-2.5-0.9-3.8-0.9c-1-0.1-2.5-0.3-3.1,0.8
					c-0.4,0.9,0.4,1.8,1.2,1.8c1.3,0.1,2.6-1.4,3.8-0.5c0.5,0.3,0.8,0.9,1.2,1.3c0.4,0.3,1,0.5,1.5,0.6c1.5,0.2,2.9-0.4,4.3-0.7
					c0.8-0.2,1.6-0.2,2.5-0.3c0.2,0,0.4,0,0.6-0.1c0,0,0,0.1,0,0.1c-0.8,0.7-1.6,1.6-2.2,2.5c0,0,0,0,0,0c-0.8,1.1-1.9,1.7-3,2.5
					c-1,0.8-2,1.7-2.8,2.7c-0.8,1-1.5,2-2.4,2.9c-0.9,0.9-1.9,1.6-3.1,2c-1,0.4-2.1,0.7-3,1.2c-0.7,0.4-2,1.2-1.9,2.3
					c0.1,0.4,0.4,0.7,0.8,0.7c0.5,0.1,1.1-0.3,1.5-0.6c1.1-0.7,2-1.7,3.1-2.4c0.7-0.4,1.4-0.7,2.1-0.9c0.4-0.1,0.7-0.2,1.1-0.2
					c0.3,0,0.6-0.1,0.9-0.2c0.3-0.1,0.5-0.3,0.8-0.5c0.3-0.2,0.7-0.4,1.1-0.5c0.2-0.1,0.4-0.2,0.6-0.3c-1.6,1.8-3.5,3.2-5.1,4.9
					c-1.8,1.8-3.5,4.1-3.8,6.8c-0.1,0.6-0.1,1.3,0,1.9c0.1,0.4,0.7,0.4,1,0.3c1.1-0.3,1.6-1.5,1.7-2.7c0.1-0.7,0.2-1.4,0.3-2
					c0.2-0.5,0.4-1,0.6-1.4c0.5-0.9,1.2-1.7,1.9-2.4c1.3-1.4,2.8-2.7,3.4-4.6c0.1-0.3,0.2-0.6,0.2-0.9c0,0,0.1-0.1,0.1-0.1
					c0.8-1,1.5-2.1,1.9-3.4c0.1-0.3,0.2-0.6,0.3-1c0.1,0.3,0.2,0.6,0.3,0.8c0.3,0.8,0.2,1.6,0.1,2.4c-0.2,1.5,0,2.9,0.9,4.1
					c0.4,0.6,0.8,1.2,1.1,1.9c0.2,0.7,0.3,1.4,0.3,2.2c0,1.6-0.3,3.1-0.3,4.7c0,0.5,0,1.1,0.5,1.4c0.4,0.2,0.9,0.2,1.2-0.2
					c0.9-0.8,1.1-2.2,1.1-3.4c-0.1-1.4-0.6-2.8-1-4.1c-0.2-0.8-0.4-1.6-0.5-2.4c-0.1-0.8,0-1.5,0-2.3c0-0.8-0.1-1.6-0.3-2.4
					c-0.2-0.6-0.5-1.3-0.9-1.9c-0.4-0.7-0.7-1.4-0.8-2.2c-0.2-1,0-2,0.1-2.9c0.5-0.8,1.1-1.5,1.7-2l0.3-0.2c0.1,0.2,0.2,0.3,0.3,0.5
					c0.4,0.5,0.8,1.2,1.1,1.8c0.5,1.1,1,2.4,2.1,2.9c0.6,0.3,1.1,0.5,1.5,1.2c0.3,0.6,0.5,1.1,0.7,1.8c0.4,1.1,1.1,2.1,2,2.8
					c0.5,0.4,1,0.8,1.5,1.1c0.4,0.2,0.9,0.7,1.4,0.6c0.4-0.2,0.4-0.8,0.4-1.2c0-0.6-0.1-1.1-0.3-1.6c-0.2-0.5-0.6-1-1-1.4
					c-0.5-0.4-1.1-0.7-1.6-1c-1-0.6-1.6-1.7-2.3-2.7c-0.3-0.5-0.7-1-1.1-1.4c-0.4-0.4-0.9-0.6-1.5-0.8c-0.7-0.2-1.3-0.5-1.6-1.3
					c-0.2-0.6-0.1-1.3-0.3-1.9c0,0,0,0,0-0.1c0-0.1,0-0.1,0-0.2c0.6-0.4,1.1-0.8,1.7-1.2l2.8-1.8c0.1,0.1,0.1,0.2,0.1,0.3
					c0,0.5,0,1,0,1.5c0.1,0.9,0.6,1.3,1.3,1.7c0.4,0.2,0.7,0.4,1.1,0.8c0.2,0.2,0.3,0.5,0.5,0.8c0,0,0,0,0,0l0,0.1
					c0,0.1,0.1,0.2,0.1,0.4c0.3,0.8,0.5,1.7,0.9,2.4c0.3,0.5,0.9,0.8,1.3,1.1c0.9,0.7,1.3,1.9,2,2.8c0.1,0.2,0.3,0.3,0.4,0.4
					c0.3,0.3,0.6,0.6,1,0.8l0.2,0.1c0.2,0.1,0.4,0.3,0.6,0.4c0.5,0.4,1.1,0.8,1.6,1.1l0.3,0.2c0.4,0.3,0.9,0.7,1.5,0.8
					c0.4,0.1,0.8-0.2,0.9-0.7C231,262.9,230.8,262.3,230.5,261.8z"/>
				<path class="st5" d="M238.7,287.4c-0.4-0.1-0.9-0.2-1.3-0.2c-1.8-0.2-3.6-0.1-5.3,0.4c-0.5,0.1-0.9,0.2-1.4,0.4
					c-1.5,0.4-2.9,1-4.3,1.6c-1.3,0.6-2.6,1.2-3.9,1.9h0c1-1.3,2-2.6,3.1-3.7c0.4-0.4,0.8-0.7,1.2-1.1c0.1-0.1,0.2-0.2,0.3-0.3
					c0.8-0.7,1.7-1.2,2.6-1.8c1.4-0.9,2.6-1.9,3.8-3c1-1,2.1-2.4,2.5-3.9c0-0.1,0-0.2,0.1-0.3c0.1-0.5,0-1-0.4-1.4
					c-0.4-0.4-1-0.6-1.6-0.5c-0.6,0.1-1.2,0.3-1.8,0.8c-0.4,0.4-0.8,0.8-1.1,1.2c-0.9,1.3-1.4,2.8-2.2,4.1c-0.4,0.7-1,1.2-1.7,1.6
					c-0.7,0.3-1.4,0.6-2.1,0.8c-0.6,0.2-1.2,0.5-1.8,0.8c-0.2,0.1-0.3,0.2-0.5,0.4c0,0-0.1,0.1-0.1,0.1c-0.5,0.4-0.9,1-1.1,1.6l0,0
					c-0.3,0.8-0.5,1.6-0.4,2.5c0.1,0.6,0.3,1.2,0.3,1.8c0,0,0,0.4,0,0.6l0.1,0.3c0.3-0.1,0.8-0.4,0.8-0.4c0.8,0.3,1.7,0.4,2.5,0.5
					c1.1,0,2.3-0.4,3.1-1.2c0.6-0.5,1.2-0.9,1.9-1.2c0.6-0.2,1.2-0.3,1.9-0.3c1,0,1.9,0,2.9,0l0,0c0.3,0,0.6,0,0.8-0.1
					C236.7,289,237.9,288.6,238.7,287.4C238.7,287.5,238.7,287.4,238.7,287.4z"/>
				<path class="st5" d="M200.8,319.1c0-0.1-0.1-0.1-0.1-0.2c1.2-2.2,2.4-4.4,3.8-6.5c0.6,1,1.5,1.6,2.6,1.7c0.7,0,1.4-0.2,2-0.5
					c0.7-0.3,1.4-0.6,2.2-0.8c0.8-0.3,1.6-0.5,2.4-0.5c0.8,0,1.6,0.1,2.3,0.4c0.6,0.3,1.3,0.4,2,0.3c1.4-0.2,2.7-0.8,4.1-1.2
					c1.4-0.4,2.9-0.4,4.3-0.4c2.3,0,3.1-1.1,4.7-1.7c0.7-0.2,1.5-0.5,2-1c0.3-0.3,0.7-0.7,0.5-1.2c-0.2-0.6-1-0.7-1.5-0.7
					c-0.7-0.1-1.5,0-2.2,0.3c-0.8,0.3-1.5,0.8-2.3,1.2s-1.5,0.3-2.4,0.3c-2.2-0.2-4,1.3-6.1,1.9c-1.5,0.4-3.1,0.6-4.6,0.4
					c-1.4-0.2-2.9-0.4-4.3,0.1c-0.8,0.3-1.6,0.7-2.5,0.4c-0.7-0.2-1.5-0.4-2.2-0.6c0,0,0-0.1,0-0.1c0.7-1,1.4-2,2.1-3
					c0,0.3,0,0.7,0.2,0.9c0.4,0.3,1.1,0.1,1.5,0c1.3-0.3,2.6-1.2,4-1.1c0.7,0.1,1.4,0.4,2.1,0.7c0.6,0.3,1.3,0.4,2,0.2
					c0.7-0.2,1.5-0.4,2.2-0.8c0.8-0.3,1.5-0.5,2.3-0.7c0.8-0.2,1.6-0.1,2.3-0.3c0.7-0.2,1.2-0.6,1.8-1c1.9-1.3,4.2-1.2,6.3-1.9
					c0.5-0.2,0.9-0.4,1.4-0.6c0.5-0.3,0.9-0.6,1.2-1.1c0.1-0.1,0.1-0.4,0.1-0.5c-0.1-0.1-0.3-0.2-0.5-0.2c-0.5-0.1-1.1-0.1-1.6,0
					c-0.5,0.1-1,0.3-1.4,0.6c-0.5,0.3-1,0.7-1.6,0.8c-1.1,0.2-2.2-0.4-3.2,0c-0.8,0.3-1.5,0.9-2.3,1.4c-1.1,0.7-2.5,1-3.7,1.3
					c-0.8,0.2-1.6,0.3-2.4,0.4c-0.8,0-1.6-0.1-2.3-0.4c-0.7-0.2-1.4-0.5-2.1-0.4c-0.6,0.1-1.2,0.4-1.9,0.6c-0.4,0.2-0.9,0.2-1.4,0.1
					c-0.4-0.1-0.8-0.3-1.2-0.5l-0.1,0c1-1.3,2-2.6,3.1-3.8c0,0,0,0,0.1,0c0,0,0,0,0,0c0.4,0.7,1.2,0.8,1.8,0.6
					c0.5-0.1,1-0.4,1.6-0.6c0.6-0.2,1.2-0.4,1.8-0.5c0.6,0,1.2,0,1.7,0.2c0.6,0.2,1.3,0.4,1.9,0.5c0.7,0.1,1.4,0,2-0.3
					c0.9-0.3,1.7-0.8,2.5-1.2c3.1-1.1,6.6,0,9.7-1.3c0.8-0.3,2.9-1.3,2.4-2.7c-0.2-0.6-0.9-0.6-1.4-0.7c-0.8-0.1-1.5,0-2.3,0.3
					c-0.7,0.2-1.4,0.6-2.1,1.1c-0.7,0.5-1.3,1-2.1,1.2c-0.8,0.1-1.5-0.3-2.2-0.4c-0.7-0.1-1.4-0.1-2.1,0.1c-0.7,0.2-1.4,0.4-2,0.8
					c-0.3,0.2-0.7,0.4-1.1,0.6c-0.4,0.2-0.9,0.3-1.3,0.3c-0.5,0.1-1.1,0-1.6-0.1c-0.6-0.2-1.1-0.5-1.7-0.6c-1,0-2.4,0.6-3.3-0.1
					c2-2.2,4.1-4.3,6.3-6.3c0.5-0.5,1-1,1.6-1.4v-0.2l-0.5,0.4c-2.6,2.3-5.1,4.8-7.4,7.3c0-0.1,0-0.2,0-0.3c0-1.2,0.1-2.3,0.3-3.5
					c0.1-1.1,0.3-2.2,0.7-3.2c0.4-0.9,1-1.6,1.3-2.5c0.3-0.9,0.3-1.9,0.4-2.8c0.1-1,0.3-2.1,0.7-3c0.4-0.9,0.9-1.7,1.5-2.4
					c0.5-0.7,1.2-1.4,1.7-2.1s0.9-1.6,0.8-2.5c-0.1-0.6-0.4-1.3-1.1-1c-0.7,0.3-1.3,0.8-1.9,1.3c-0.6,0.5-1.2,1.1-1.6,1.8
					c-0.9,1.2-1.6,2.7-2.1,4.2c-0.2,0.8-0.4,1.6-0.4,2.5c-0.1,1.1,0,2.1-0.2,3.2c-0.1,0.6-0.2,1.2-0.5,1.7c-0.2,0.5-0.5,1-0.8,1.5
					c-0.5,0.9-0.8,2-0.9,3c-0.3,2.2,0,4.4-0.3,6.5c0,0,0,0,0,0.1c0,0.1,0,0.1,0,0.2c-1.1,1.3-2.1,2.5-3.1,3.8
					c-0.4-1.9-0.3-3.9,0.3-5.8c0.5-1.7,1.5-3.3,1.8-5.1c0.3-1.9-0.6-3.6-0.4-5.5c0.1-1,0.5-1.9,0.9-2.8c0.3-0.8,0.5-1.7,0.6-2.5
					c0.1-0.9,0-1.8-0.2-2.7c0-0.3-0.2-0.6-0.4-0.7c-0.2-0.1-0.5-0.1-0.7,0.2c-0.5,0.6-0.9,1.5-1.2,2.2c-0.3,0.8-0.5,1.6-0.7,2.4
					c-0.7,3.6-0.2,7.6-1.6,11c-0.4,0.9-0.9,1.7-1.1,2.7c-0.1,0.9-0.1,1.8,0,2.7c0.3,1.9,0.9,3.8,0.8,5.7c0,0,0,0.3,0,0.3
					c0,0.1,0.1,0.2,0.1,0.2c-0.5,0.7-1,1.4-1.5,2.1c-0.2,0.3-0.4,0.7-0.7,1c-0.1-0.2-0.1-0.4-0.2-0.6c-0.1-0.5-0.3-0.9-0.4-1.4
					c-0.3-0.9-0.5-1.8-0.5-2.8c0-0.9,0.3-1.8,0.5-2.6c0.2-0.8,0.3-1.6,0.3-2.4c0-0.8-0.2-1.6-0.4-2.3c-0.3-0.8-0.8-1.5-0.8-2.3
					c0-0.8,0.3-1.7,0.6-2.5c0.3-0.8,0.5-1.6,0.5-2.5c0-0.8,0-1.7-0.3-2.5c-0.1-0.5-0.3-1.3-0.9-1.4c-1.3-0.2-1.7,2.1-1.9,3.1
					c-0.4,3.7,1.3,7.2,1,10.8c-0.1,1-0.4,2-0.5,3c-0.1,0.9-0.1,1.8,0.1,2.7c0.4,1.8,1.1,3.5,1.7,5.2c0,0,0,0.2,0,0.2
					c-1.3,2.1-2.6,4.3-3.8,6.5l0,0c0.5-1.6-0.9-3-1.3-4.4c-0.4-1.6-0.1-3.2,0-4.8c0.2-1.6,0.3-3.1-0.3-4.6c-0.3-0.8-0.6-1.6-0.5-2.6
					s0.3-1.8,0.3-2.8c0-0.8-0.2-1.6-0.5-2.4c-0.2-0.5-0.5-1.3-1.1-1.3c-0.5,0-0.8,0.4-0.9,0.9c-0.2,0.8-0.2,1.7-0.2,2.5
					c0,1.8,0.4,3.6,1,5.3c0.6,1.7,1.4,3.5,1,5.3c-0.2,0.9-0.6,1.8-0.7,2.8c0,0.9,0.1,1.8,0.4,2.7c0.3,0.9,0.7,1.7,1.1,2.5
					c0.4,0.8,0.7,1.7,0.6,2.5h3.2c-0.3-0.1-0.6-0.1-0.9-0.3C201.4,319.8,201.1,319.5,200.8,319.1z"/>
				<path class="st5" d="M238,309.2c-0.8-0.2-1.7,0.2-2.3,0.8c-0.7,0.6-1.4,1.4-2,2c-0.7,0.7-1.4,1.2-2.3,1.7
					c-0.9,0.4-1.8,0.6-2.8,0.6c-0.9,0-1.7,0-2.5,0.3c-0.8,0.3-1.5,1.1-2.3,1.5c-0.5,0.2-1,0.2-1.5,0.3c-0.7,0.1-1.4,0.2-2.1,0.5
					c-1.5,0.5-3,1.4-4.6,1.4c-0.9,0-1.8-0.3-2.7-0.4c-0.8-0.1-1.7,0-2.5,0.2c-1.9,0.5-3.7,1.7-5.6,2.2c-0.3,0.1-0.5,0.1-0.8,0.2h8.7
					l0.5-0.2c1-0.4,1.9-0.3,2.9-0.2c1.4,0.1,2.8,0.1,4.2-0.1c0.8-0.1,1.6-0.2,2.3-0.5c0.8-0.3,1.5-0.9,2.2-1.3
					c0.5-0.3,1-0.4,1.6-0.5c1-0.1,1.9,0.1,2.9,0.1c0.8,0,1.5-0.1,2.2-0.3c1.5-0.4,2.8-1.2,4-2.3c0.6-0.6,1.2-1.3,1.8-2
					c0.5-0.7,1-1.5,1.3-2.4C239.1,309.9,238.6,309.4,238,309.2z"/>
				<path class="st7" d="M181.7,262.3c-1.3,0.2-2.3,1.7-2.8,2.9c-0.3,0.9-0.5,1.9-0.7,2.9c-0.1,0.9-0.2,1.8-0.3,2.7
					c-0.1-1.5-0.2-3-0.1-4.5c0.1-0.8,0.1-1.6,0-2.4c0-0.7-0.2-1.4-0.5-2c-0.2-0.4-0.6-0.7-1-0.7c-0.4,0.1-0.7,0.3-0.9,0.7
					c-0.1,0.1-0.2,0.3-0.2,0.4c-0.5,1.2-0.2,2.7,0.2,3.9c0.3,0.9,0.6,1.8,1,2.6c0.2,0.5,0.5,1,0.7,1.5c-0.2-0.3-0.4-0.5-0.6-0.8l0,0
					c-0.5-0.5-1.1-0.9-1.5-1.5c-0.5-0.5-0.9-1.1-1.3-1.7c-0.4-0.4-0.8-0.9-1.3-1.2c-0.4-0.2-0.8-0.1-1.1,0.3c-0.2,0.4-0.2,1,0,1.4
					c0.4,1.3,1.4,2.2,2.4,2.9c0.9,0.7,2,1.2,3.1,1.4c0.3,0.1,0.5,0.1,0.8,0.1l0,0l0,0c0.3,0.2,0.9-0.4,1-0.5
					c0.1-0.1,0.1-0.1,0.2-0.2c0.4-0.5,0.8-1.1,1.1-1.6c0.9-1.4,2.3-2.4,2.9-4.1C183,264.2,183.1,262.1,181.7,262.3z"/>
				<path class="st7" d="M209.5,221.4C209.5,221.4,209.5,221.4,209.5,221.4c0-0.3-0.5-0.5-0.8-0.6l-0.2-0.1c-0.7-0.2-1.4-0.2-2-0.2
					c-1.6-0.1-3.1-0.9-4.6-0.6c-0.9,0.2-2.6,1.2-1.7,2.5c0.8,1.2,2.5,1.3,3.7,1.1c0.9-0.2,1.7-0.5,2.5-0.9c0.7-0.4,1.5-0.7,2.2-1.1
					c-1.1,0.9-2.2,1.8-3.4,2.5c-0.6,0.4-1.3,0.8-1.9,1.2c-0.5,0.4-1,0.9-1.3,1.5c-0.2,0.4-0.2,0.9,0,1.3c0.3,0.5,1,0.5,1.4,0.4
					c1.2-0.2,2.2-1.3,2.9-2.2c0.9-1.2,1.7-2.5,2.3-3.8c-0.1,0.3-0.2,0.7-0.3,1c-0.1,0.7-0.1,1.5-0.3,2.2s-0.4,1.4-0.6,2.2
					c-0.1,0.6-0.3,1.2-0.2,1.8c0,0.5,0.4,0.8,0.8,0.8c0.4-0.1,0.8-0.3,1.1-0.7c0.8-1,0.9-2.5,1-3.8
					C210.4,224.3,210.2,222.7,209.5,221.4z"/>
				<path class="st7" d="M144.4,250.9c-0.5-0.4-1.1-0.8-1.7-1.1c-1.3-0.6-2.6-1-4-1.3c0.3,0,0.6,0,0.9,0c0.7-0.1,1.3-0.3,2-0.3
					s1.4,0,2,0c0.5,0,1.1,0,1.6-0.3l0,0c0.4-0.2,0.6-0.7,0.4-1.1c0-0.1-0.1-0.1-0.1-0.2c-0.2-0.3-0.5-0.6-0.8-0.7
					c-1.1-0.5-2.4-0.2-3.6,0.1c-0.9,0.3-1.8,0.7-2.6,1.3c-0.2,0.2-0.5,0.4-0.7,0.6c-0.1,0.1-0.2,0.2-0.3,0.3c-0.3,0-0.3,0.8-0.3,1.1
					v0.1c0,0.8,0.3,1.5,0.4,2.2c0.4,1.7,0.2,3.5,0.9,5.1l0,0c0.5,0.9,1.8,2.3,2.6,1c0.7-1.2,0.4-3.1-0.2-4.3
					c-0.4-0.9-0.9-1.7-1.5-2.4c-0.4-0.4-0.7-0.9-1.1-1.3c-0.2-0.2-0.4-0.5-0.6-0.7c0.2,0.1,0.4,0.3,0.6,0.5c0.9,0.7,1.8,1.5,2.6,2.4
					c0.5,0.6,1,1.1,1.6,1.6c0.2,0.2,0.4,0.3,0.7,0.5c0.3,0.2,0.6,0.3,1,0.4c0.4,0.1,0.9,0,1.1-0.4c0.3-0.5,0.2-1.2-0.1-1.7
					C145.2,251.7,144.8,251.3,144.4,250.9z"/>
				<path class="st7" d="M173.3,315c-0.6-1.3-2.2-1.9-3.4-2c-0.9,0-1.8,0.1-2.6,0.3c-0.8,0.2-1.6,0.3-2.4,0.5
					c1.2-0.6,2.5-1.2,3.8-1.6c0.7-0.2,1.4-0.4,2-0.7c0.6-0.2,1.1-0.6,1.5-1.1c0.3-0.3,0.4-0.8,0.3-1.3c-0.2-0.5-0.8-0.7-1.3-0.8
					c-1.2-0.1-2.4,0.7-3.3,1.5c-1.1,0.9-2.1,2-3,3.2c0.2-0.3,0.3-0.6,0.4-0.9c0.3-0.7,0.4-1.4,0.7-2.1c0.3-0.7,0.7-1.3,1-2
					c0.3-0.5,0.6-1.1,0.6-1.7c0.1-0.5-0.2-0.9-0.6-1c-0.4-0.1-0.9,0.1-1.2,0.4c-1,0.8-1.4,2.2-1.7,3.5c-0.3,1.3-0.4,2.7-0.2,4
					c0,0.2,0.1,0.3,0.1,0.5c-0.1,0.3,0.4,0.7,0.7,0.8c0,0,0.1,0,0.1,0.1c0.6,0.4,1.3,0.5,1.9,0.7c1.5,0.5,2.8,1.6,4.4,1.7
					C172.1,317,173.9,316.4,173.3,315z"/>
				<path class="st5" d="M165,314.2c-0.1,0.1-0.2,0.2-0.3,0.3c-0.3,0.4-0.6,0.8-1,1.1c-0.2,0.2-0.5,0.2-0.8,0.1
					c-1.1,1.4-2.2,3-3,4.6h-0.1c0.9-1.7,1.9-3.3,3.1-4.7c0,0-0.1-0.1-0.1-0.2c-0.2-0.4,0-0.9,0.3-1.2c0.3-0.4,0.6-0.7,0.9-1
					c0.1-0.1,0.2-0.2,0.3-0.3c0,0,0,0,0.1,0h0h0c0,0,0,0,0,0.1C164.6,313.3,164.8,313.7,165,314.2C165,314.1,165,314.1,165,314.2z"
					/>
				<path class="st7" d="M242,283.6c1.6,0.4,3.1-0.4,4.7-0.4c0.7,0,1.4,0,2-0.2l0.1,0c0.3-0.1,0.9-0.3,0.8-0.6
					c0.1-0.1,0.1-0.3,0.2-0.4c0.5-1.2,0.7-2.6,0.7-4c0-1.3-0.1-2.8-0.9-3.8c-0.3-0.4-0.6-0.7-1.1-0.7c-0.4,0-0.8,0.3-0.8,0.8
					c-0.1,0.6,0.1,1.2,0.2,1.8c0.2,0.7,0.4,1.4,0.5,2.2c0.1,0.7,0.1,1.5,0.3,2.2c0.1,0.3,0.1,0.7,0.2,1c-0.6-1.4-1.3-2.7-2.2-3.9
					c-0.7-1-1.7-2.1-2.9-2.3c-0.5-0.1-1.1-0.1-1.5,0.4c-0.2,0.4-0.3,0.9,0,1.3c0.3,0.6,0.7,1.1,1.2,1.5c0.6,0.5,1.2,0.9,1.8,1.3
					c1.2,0.8,2.3,1.6,3.4,2.6c-0.7-0.4-1.5-0.8-2.2-1.2c-0.8-0.4-1.6-0.8-2.5-1c-1.2-0.3-2.9-0.1-3.8,1
					C239.4,282.4,241.1,283.4,242,283.6z"/>
				<path class="st5" d="M248.6,282.6c0.1,0.1,0.1,0.3,0.2,0.4c0.2,0.5,0.4,0.9,0.7,1.3c0.2,0.2,0.4,0.3,0.7,0.3
					c0.8,1.7,1.4,3.5,1.9,5.3l0.1,0c-0.5-1.9-1.1-3.7-1.9-5.4c0.1,0,0.1-0.1,0.1-0.1c0.3-0.4,0.2-0.9,0-1.3
					c-0.2-0.4-0.4-0.9-0.7-1.3c-0.1-0.1-0.2-0.2-0.3-0.3c0,0,0,0,0-0.1h0c0,0,0,0,0,0c0,0,0,0,0,0
					C249.2,281.9,248.9,282.2,248.6,282.6C248.6,282.5,248.6,282.6,248.6,282.6z"/>
				<path class="st5" d="M178.7,270.9c-0.4,0-0.8,0-1.2,0c0,0,0,0-0.1,0l0,0l0,0c0,0,0,0.1,0,0.1c0,0.6,0.2,1.3,0.4,1.9
					c0.2,0.4,0.4,0.8,0.8,0.9c0.1,0,0.1,0,0.2,0c1,3.4,2.7,6.6,4.8,9.4c0.1,0.1,0.1,0,0.1-0.1c-2.1-2.7-3.8-5.9-4.8-9.3
					c0.2-0.2,0.3-0.5,0.3-0.8C179.3,272.2,179,271.5,178.7,270.9C178.8,270.9,178.8,270.9,178.7,270.9z"/>
				<path class="st7" d="M236.4,230.2c-1-1.4-2.5-2-3.7-3.1c-0.5-0.5-0.9-0.9-1.4-1.3c-0.1,0-0.1-0.1-0.2-0.1
					c-0.2-0.1-0.9-0.5-1.1-0.2l0,0l0,0c-0.2,0.1-0.5,0.2-0.7,0.3c-1,0.6-1.9,1.3-2.6,2.3c-0.8,1-1.6,2.2-1.6,3.5
					c0,0.5,0.1,1,0.4,1.3c0.3,0.3,0.8,0.3,1.1,0c0.4-0.4,0.7-1,0.9-1.5c0.3-0.7,0.6-1.4,0.9-2c0.3-0.7,0.8-1.2,1.1-1.9l0,0
					c0.2-0.3,0.3-0.6,0.4-0.9c-0.1,0.6-0.3,1.1-0.4,1.7c-0.2,0.9-0.3,1.9-0.3,2.8c0,1.3,0,2.8,0.8,3.8c0.1,0.1,0.2,0.3,0.3,0.4
					c0.3,0.3,0.6,0.4,1,0.4c0.4-0.1,0.7-0.5,0.8-0.9c0.1-0.7,0.1-1.4,0-2c-0.2-0.8-0.4-1.5-0.6-2.3c-0.4-1.4-0.8-2.9-1-4.4
					c0.3,0.8,0.6,1.7,1,2.5c0.3,0.9,0.8,1.8,1.3,2.6c0.8,1.1,2.1,2.3,3.4,2C237.5,233,237,231,236.4,230.2z"/>
				<path class="st5" d="M230.9,223.1c0-0.6,0.1-1.2,0.2-1.8l-0.1-0.1c-0.1,0.6-0.1,1.2-0.2,1.8c-0.1,0-0.1,0-0.2,0
					c-0.4,0.1-0.6,0.6-0.6,1.1c-0.1,0.6,0,1.3,0.1,1.9c0,0,0,0.1,0,0.1l0,0h0c0,0,0,0,0.1,0c0.4-0.1,0.8-0.2,1.1-0.3c0,0,0,0,0-0.1
					c0.1-0.6,0.2-1.4,0-2C231.3,223.5,231.1,223.2,230.9,223.1z"/>
				<path class="st5" d="M138.5,248.5C138.5,248.5,138.5,248.5,138.5,248.5L138.5,248.5C138.4,248.5,138.4,248.5,138.5,248.5
					c-0.4,0.3-0.7,0.6-1,0.8c0,0-0.1,0-0.1,0c-0.5-0.4-1.1-0.7-1.4-1.2c-0.2-0.2-0.2-0.5-0.2-0.8c-0.5-0.4-1.1-0.8-1.6-1.2l0-0.1
					c0.6,0.4,1.1,0.8,1.6,1.2c0-0.1,0.1-0.1,0.1-0.1c0.4-0.3,0.8-0.1,1.1,0.1C137.6,247.5,138.1,247.9,138.5,248.5
					C138.4,248.4,138.5,248.4,138.5,248.5z"/>
				<path class="st7" d="M245.7,310c-0.5,0.5-0.9,1.1-1.2,1.7c-0.7,1.3-1.3,2.7-1.8,4.1c0.1-0.3,0.1-0.7,0.1-1c0-0.7,0-1.5,0-2.2
					s0.2-1.5,0.3-2.2c0.1-0.6,0.2-1.3,0-1.8l0,0c-0.1-0.5-0.5-0.8-0.9-0.7c-0.1,0-0.1,0-0.2,0.1c-0.3,0.2-0.6,0.4-0.8,0.8
					c-0.6,1.1-0.6,2.6-0.5,3.9c0.1,1,0.3,2.1,0.7,3c0.1,0.3,0.2,0.6,0.4,0.8c0.1,0.1,0.2,0.3,0.2,0.4c0,0.3,0.6,0.5,0.9,0.5l0.1,0
					c0.7,0.1,1.4,0,2-0.1c1.6-0.1,3.2,0.4,4.7-0.1l0,0c0.9-0.3,2.4-1.6,1.3-2.7c-1-1-2.7-0.9-3.8-0.5c-0.8,0.3-1.6,0.7-2.4,1.3
					c-0.5,0.3-0.9,0.6-1.4,0.9l-0.7,0.5c0.2-0.2,0.3-0.4,0.5-0.5c0.8-0.9,1.7-1.7,2.6-2.4c0.6-0.4,1.2-0.9,1.7-1.5
					c0.2-0.2,0.4-0.4,0.6-0.7c0.2-0.3,0.4-0.6,0.5-1c0.2-0.4,0.1-0.9-0.2-1.3c-0.4-0.4-1-0.4-1.5-0.2
					C246.5,309.2,246.1,309.5,245.7,310z"/>
				<path class="st5" d="M242.5,316L242.5,316L242.5,316C242.5,316,242.5,316,242.5,316c0.2,0.4,0.4,0.8,0.5,1.2c0,0,0,0.1,0,0.1
					c-0.4,0.5-0.8,1.1-1.3,1.3c-0.2,0.2-0.5,0.2-0.8,0c-0.5,0.5-0.9,1-1.3,1.6l-0.1-0.1c0.4-0.5,0.9-1.1,1.3-1.6
					c0,0-0.1-0.1-0.1-0.2c-0.2-0.4,0.1-0.9,0.3-1.2C241.5,316.7,241.9,316.3,242.5,316C242.4,316,242.5,316,242.5,316z"/>
				<path class="st5" d="M209.8,221.6c-0.3-0.3-0.6-0.5-0.9-0.8c0,0,0,0,0,0l0,0l0,0c0,0,0-0.1,0-0.1c0.4-0.5,0.8-0.9,1.3-1.3
					c0.3-0.2,0.8-0.4,1.1-0.1c0.1,0,0.1,0.1,0.1,0.1c2.7-2.1,5.7-3.6,8.9-4.4c0.1,0,0.1,0.1,0,0.1c-3.2,0.8-6.2,2.3-8.8,4.4
					c0.1,0.3,0,0.6-0.2,0.8C210.9,220.9,210.3,221.2,209.8,221.6C209.8,221.6,209.8,221.6,209.8,221.6z"/>
				<path class="st2" d="M210.7,138.1c-0.2-0.4-0.4-0.7-0.8-1c-0.2-0.2-0.5-0.4-0.7-0.6c-0.2-0.2-0.4-0.4-0.5-0.6
					c-0.1-0.1-0.1-0.2-0.1-0.3c-0.1-0.4-0.2-0.8-0.3-1.2c-0.1-0.4-0.3-0.8-0.6-1.1c-0.2-0.3-0.5-0.6-0.7-0.9c0,0,0,0,0-0.1
					c-0.8-0.4-1.7-0.7-2.6-0.9h0c0,0.4,0,0.9,0.1,1.3c0.1,0.4,0.4,0.8,0.7,1.1c0.3,0.3,0.7,0.5,1,0.7c0.5,0.3,0.9,0.8,1.1,1.4l0,0.1
					c0.3,0.8,0.5,1.5,1.1,2.1c0.4,0.5,1.2,1.3,1.9,1c0.2-0.1,0.3-0.2,0.4-0.3c0.1-0.1,0.1-0.2,0.1-0.4
					C210.8,138.4,210.8,138.3,210.7,138.1z"/>
				<path class="st2" d="M192.6,148.4c-0.6-0.5-1.2-0.5-1.8-0.4c-0.5,0-0.9-0.1-1.4-0.3c-0.3-0.1-0.5-0.3-0.7-0.5
					c-0.5-0.5-0.9-1.1-1.3-1.8c-0.6-1.1-1.3-2.3-2.4-2.7c-1.3-0.5-2.7,0.3-3.7,1.2c-0.3,0.3-0.6,0.6-0.8,0.9
					c-0.1,0.1-0.2,0.3-0.3,0.4c0.3,0.6,0.5,1.3,0.4,2c0.2-0.2,0.4-0.4,0.6-0.6l0.5-0.5c0.8-0.8,1.7-1.6,2.7-1.1
					c0.7,0.3,0.9,1.1,1.2,1.7c0.3,0.5,0.7,0.9,1.1,1.2c0.9,0.6,1.9,0.5,3,0.6c0.1,0,0.2,0,0.4,0c0.4,0,0.8,0.2,1.1,0.4
					c0.3,0.3,0.6,0.5,0.9,0.8c0.4,0.4,0.9,0.6,1.4,0.2c0,0,0,0,0-0.1C193.4,149.3,193.1,148.7,192.6,148.4z"/>
				<path class="st2" d="M206.3,139.6c-0.4-0.4-0.8-0.6-1.1-1s-0.5-0.9-0.9-1.2c-0.1-0.1-0.2,0-0.1,0.1c0.3,0.3,0.4,0.6,0.7,0.9
					c0.3,0.3,0.6,0.6,0.9,0.8c0.7,0.6,1.4,1.4,1.6,2.4c0.2,0.9-0.3,2.2-0.9,2.9c-0.2,0.3-0.6,0.6-0.9,0.8c0,0,0,0,0-0.1
					c0.1-0.6,0-1.2-0.1-1.7c-0.1-0.6-0.4-1.1-0.7-1.5c-0.4-0.5-1-0.6-1.5-1c-0.5-0.3-1-0.9-1.2-1.5c0-0.1-0.1,0-0.1,0
					c-0.4,1.4,1,2.2,1.7,3.1c0.3,0.3,0.4,0.7,0.5,1.1c0,0.4-0.1,0.8-0.2,1.2c0,0.3,0,0.6,0,0.9c0,0.2,0.1,0.4,0.1,0.6
					c0,0-0.1,0-0.1,0.1c0,0,0,0,0,0c0,0,0,0.1,0,0.1c0,0.1,0,0.1,0,0.2c-0.1,0.2-0.6,0.4-0.8,0.5c0,0,0,0,0,0
					c-0.2,0.1-0.5,0.1-0.7,0.2c-0.4,0.2-0.7,0.6-1,1c-0.5,0.7-1.1,1.2-1.9,1.6l0,0c0.4-0.3,0.6-0.9,0.6-1.4c-0.1-0.4-0.2-0.7-0.3-1
					c-0.1-0.4-0.2-0.8-0.2-1.2c0-0.6-0.1-1.3-0.4-1.8c-0.4-0.5-0.8-0.8-1.4-0.9c-0.5-0.1-1-0.1-1.6-0.1c-0.2-0.4-0.6-0.7-0.9-0.9
					c-0.6-0.4-1.3-0.4-1.9-0.8c-0.3-0.2-0.6-0.5-0.7-0.9c-0.2-0.4-0.3-0.8-0.5-1.1c-0.1-0.2-0.7-1.1-0.9-0.4c0,0,0.9,2.1,1.4,3
					c0.2,0.4,0.4,0.7,0.7,1c0.3,0.3,0.7,0.4,1.1,0.5c0.4,0.1,0.9,0.2,1.3,0.5c0.4,0.3,0.7,0.7,0.9,1.2c0.2,0.4,0.4,0.7,0.7,0.9
					c0.4,0.3,0.8,0.5,1,1c0.3,0.6,0.2,1.3-0.2,1.7c-0.2,0.2-0.5,0.3-0.8,0.4c-0.2,0.1-0.5,0.1-0.7,0.1c-0.1-0.1-0.3-0.3-0.4-0.4
					c0,0,0,0,0,0c-0.2-0.1-0.3-0.2-0.5,0.1c-0.2,0.4,0.3,0.8,0.5,1c0.5,0.3,1,0.4,1.5,0.3c0.4,0,0.8-0.1,1.2-0.3
					c0.7-0.2,1.4-0.6,2-1.2c0.4-0.4,0.6-1,1.1-1.3s1.1-0.4,1.6-0.6c0.8-0.2,1.5-1,1.6-1.9c0.4-0.2,0.7-0.5,1-0.8
					c0.5-0.7,1.1-1.8,1-2.7C207.5,141.1,206.9,140.2,206.3,139.6z"/>
				<path class="st2" d="M202.8,139c-0.1-0.4-0.3-0.8-0.5-1.1c-0.2-0.3-0.5-0.5-0.9-0.6c-0.8-0.4-1.5-0.6-2-1.3
					c-0.4-0.7-0.6-1.5-0.9-2.3c-0.3-0.8-0.8-1.4-1.4-1.8c-0.7-0.4-1.5-0.5-2.3-0.3c-0.1,0,0,0.2,0,0.1c1-0.3,2.1,0,2.8,0.8
					c0.7,0.7,0.9,1.7,1.3,2.7c0.3,0.8,0.8,1.5,1.6,1.9c0.4,0.2,0.8,0.3,1.2,0.6c0.6,0.3,0.8,0.9,1,1.5
					C202.7,139.1,202.8,139.1,202.8,139z"/>
				<path class="st2" d="M198.9,174.6c-0.2-0.7-0.3-1.5-0.3-2.2c0-0.7,0.2-1.5,0.1-2.2c-0.2-0.7-0.6-1.3-0.7-2c0-0.4,0-0.7,0.1-1.1
					c0-0.3,0.1-0.7,0.1-1c0.2-1.2-0.2-2.5-1-3.4c-0.5-0.5-1.1-0.9-1.8-1.1c-0.3-0.1-0.5-0.1-0.8-0.1c0,0,0-0.1,0-0.1
					c0,0,0-0.1-0.1,0c0,0-0.1,0,0,0.1c0,0,0,0,0,0c-0.1,0-0.2,0-0.3,0c-0.1,0-0.1,0.1,0,0.1c0.1,0,0.2,0,0.3,0
					c0.3,1.4-0.1,2.9,0.3,4.3c0.1,0.2,0.1,0.4,0.2,0.7l0.1,0.3c0,0.1,0.1,0.2,0.1,0.4l0,0c0.1,0.3,0.2,0.6,0.2,0.9
					c0.1,0.8,0.2,1.6,0.2,2.4c0,0.3,0,0.6,0.1,1c0.1,0.1,0.1,0.2,0.2,0.2l0.1,0.1c0.1,0.2,0.2,0.3,0.3,0.5c0.1,0.1,0.1,0.2,0.2,0.3
					l0.1,0.2c0,0.1,0.1,0.1,0.1,0.2l0,0c0.1,0.1,0.2,0.3,0.2,0.4c0,0.1,0.1,0.1,0.1,0.2l0.1,0.3c0.8,1.6,1.5,3.2,2.2,4.9
					c0,0,0-0.1,0-0.1C199.6,177.3,199.2,175.8,198.9,174.6z"/>
				<path class="st3" d="M197.3,165.9c-0.1-0.6-0.2-1.2-0.3-1.8c-0.3-1-0.8-2-1.5-2.6l-0.1-0.1c-0.8-0.5-1.8-0.7-2.7-0.3
					c-0.2,0.1-0.4,0.2-0.7,0.3c-0.1,0.1-0.2,0.1-0.3,0.2l0,0l0,0c-0.1,0.1-0.2,0.1-0.3,0.2c-0.1,0.1-1.5,1.5-2.5,4
					c-0.6,1.3-0.9,2.8-1.1,4.2c-0.1,0.6-0.1,1.3,0.1,1.8v0c0.1,0.2,0.3,0.4,0.6,0.3c0.1,0,0.1-0.1,0.2-0.1c0.2-0.2,0.4-0.5,0.5-0.8
					c0.2-0.3,0.3-0.7,0.5-1c0.1-0.2,0.2-0.4,0.2-0.6c0,0.1,0.1,0.2,0.1,0.3c0.5,1.1,0.6,2.1,1.5,2.9l0,0l0.1,0.1l0,0
					c0.3,0.3,0.7,0.5,1.1,0.6l0.1,0c0.2,0,0.3,0,0.5,0c0.1,0,0.1,0,0.2,0h0l0,0c0.3-0.1,0.5-0.2,0.8-0.3c0.5-0.3,0.9-0.6,1.3-1.1
					c0.1-0.2,0.3-0.3,0.4-0.5c0.1-0.2,0.3-0.4,0.4-0.6c0-0.1,0.1-0.2,0.1-0.2c0.1-0.2,0.2-0.5,0.4-0.8c0.2-0.5,0.3-1.1,0.4-1.6
					c0-0.2,0.1-0.4,0.1-0.6c0-0.3,0-0.6,0-0.9C197.3,166.5,197.3,166.2,197.3,165.9z"/>
				<path class="st6" d="M189.8,169.2c0.8-0.2,1.6-0.9,1.5-1.9c-0.1-0.7-0.8-1.3-0.7-2.1c0.1-0.7,0.7-1.2,1.1-1.7
					c0.5-0.5,1.1-0.9,1.8-1.1c0,0,0.1,0,0.1,0.1c0,0,0,0.1,0,0.1c-0.7,0.3-1.4,0.8-2,1.4c-0.3,0.3-0.6,0.7-0.7,1.1
					c-0.1,0.5,0.2,0.9,0.4,1.4c0.7,1.3-0.1,2.7-1.3,2.9C189.8,169.3,189.7,169.3,189.8,169.2C189.7,169.2,189.7,169.2,189.8,169.2z"
					/>
				<path class="st6" d="M191.1,171.2c1,0.3,1.8-0.4,2.4-1.1c0.4-0.5,0.8-1.1,1.1-1.7c0.6-1.3,0.8-2.7,0.8-4.1c0-0.1,0.1-0.1,0.1,0
					c0.2,1.7-0.2,3.4-1,4.9c-0.4,0.7-0.8,1.3-1.4,1.8C192.5,171.3,191.7,171.7,191.1,171.2C191,171.3,191,171.2,191.1,171.2z"/>
				<path class="st2" d="M177.1,126.4c-1-0.4-1.9,0.4-2.9,0.7c-0.6,0.2-1.1,0.1-1.7,0.2c-0.4,0.1-0.8,0.2-1.2,0.5
					c-1.4,1-2.1,2.8-1.9,4.7c0,0.1,0.1,0,0.1,0c-0.2-1.9,0.6-3.7,2-4.6c0.4-0.3,0.9-0.4,1.4-0.4c0.4,0,0.9,0,1.3-0.2
					c0.9-0.3,1.8-1,2.8-0.7C177.1,126.5,177.1,126.4,177.1,126.4z"/>
				<path class="st2" d="M179.3,128.2c-1.4-0.7-3-0.6-4.3,0.3c0,0,0,0.1,0,0.1c0,0,0.1,0,0.1,0c1.3-0.8,2.8-0.9,4.2-0.3
					C179.3,128.4,179.4,128.2,179.3,128.2z"/>
				<path class="st5" d="M242.9,229.7L242.9,229.7c0.1,0.1,0.1,0.1,0.1,0.1c-0.2,0.4-0.4,0.7-0.7,1c-0.6,0.8-1.4,1.4-2,2.3
					c-0.6,0.9-0.9,2-1.6,2.8c-1.1,1.3-2.8,2-3.4,3.8c-0.3,1-0.2,2-0.2,3c0,1.1-0.3,2.1-0.7,3.1c-0.4,1-1.1,1.8-1.8,2.5
					c-0.4,0.3-0.8,0.6-1.2,0.8c-0.4,0.2-0.7,0.5-1,0.8c-0.4,0.4-0.7,0.8-0.8,1.4c0,0.2-0.1,0.4-0.1,0.5c0,0.7,0.4,1.3,1,1.5
					c0.7,0.2,1.4-0.2,2.1-0.5l0.2-0.1c0.7-0.4,1.4-0.8,2-1.4l0.3-0.2c2.4-2.2,3.9-5.5,4.5-8.9c0.2-1.1,0.3-2.3,0.7-3.4
					c0.4-1.1,1.2-1.7,1.9-2.4c0.6-0.6,1-1.4,1.2-2.3c0.1-0.8,0.1-1.6-0.2-2.3l0.1,0c0.5,1.9,1.2,3.7,2.1,5.4c0.4,0.7,0.7,1.3,1.1,2
					c-0.3,0.4-0.5,0.9-0.6,1.4c-0.2,0.4-0.3,0.8-0.4,1.2c-0.2,0.5-0.4,1-0.6,1.4c-0.3,0.4-0.6,0.7-0.9,1.1c-0.6,0.7-1.2,1.4-1.5,2.3
					c-0.3,0.9-0.4,2-0.7,3c-0.4,1.5-1,3-1.9,4.2c-0.2,0.3-0.4,0.6-0.6,0.9c-0.3,0.3-0.5,0.7-0.8,1c-0.8,0.9-1.7,1.9-2.1,3.2
					c-0.2,0.6-0.3,1.3,0,1.9c0.2,0.5,0.7,0.7,1.1,0.5c0.6-0.2,1-0.8,1.4-1.3c0.1-0.1,0.2-0.2,0.3-0.4l1.5-1.7
					c0.2-0.2,0.4-0.4,0.5-0.6c0.1-0.1,0.1-0.1,0.2-0.2c0.3-0.4,0.6-0.8,0.9-1.2c0.1-0.2,0.2-0.4,0.3-0.6c0.3-0.6,0.5-1.2,0.7-1.9
					c0.3-0.9,0.5-1.9,0.8-2.8c0.3-0.9,0.7-1.7,1.1-2.6c0.7-1.4,1.6-2.7,1.8-4.3c0-0.2,0-0.4,0-0.6c0-0.1,0-0.3,0-0.4
					c0-0.3,0.1-0.7,0.1-1c0-0.2,0.1-0.4,0.1-0.6l0-0.1c0.4,0.7,0.7,1.4,1.1,2.1c0.9,1.8,1.8,3.6,2.6,5.4c-0.3,0.1-0.6,0.4-0.9,0.6
					c-0.6,0.6-1.2,1.1-1.8,1.6c-1.3,0.9-2.9,1.7-3.5,3.4c-0.2,0.5-0.3,1.1-0.4,1.6c0,0.1,0,0.3,0,0.4c0,0.2,0,0.3,0,0.5
					c0,0.6,0,1.1,0,1.7v0.1c0,0.4-0.1,0.7-0.2,1.1c-0.1,0.4-0.3,0.8-0.5,1.2c-0.6,1.2-1.6,2.3-2.2,3.6c-0.5,1-0.8,2.2-0.6,3.3
					c0,0.2,0.1,0.4,0.2,0.5c0,0.1,0,0.1,0.1,0.1c0.3,0.6,0.7,1.1,1.4,1c0.2,0,0.4-0.1,0.6-0.3c0.2-0.2,0.4-0.4,0.6-0.7
					c0.9-1.4,0.6-3.2,1-4.7c0.3-0.9,0.9-1.6,1.5-2.3c0.4-0.5,0.8-1.1,1.1-1.6l0,0c0.1-0.2,0.2-0.4,0.3-0.7c0.1-0.3,0.3-0.7,0.4-1
					c0.3-1.2,0.6-2.4,0.7-3.6c0-0.3,0.1-0.5,0.1-0.8c0.1-0.9,0.2-1.9,0.7-2.7c0.4-0.7,1.1-1.2,1.8-1.2l0.5,0.3
					c0.7,1.7,1.5,3.4,2.2,5.1c0.1,0.3,0.2,0.5,0.3,0.8c0.2,0.4,0.3,0.7,0.4,1.1c-0.1,0.1-0.4,0.5-0.4,0.5c-0.3,0.4-0.8,0.6-1.2,1
					c-0.5,0.5-0.9,1.1-1,1.8l0,0c-0.1,0.6-0.2,1.2-0.1,1.8c0,0.1,0,0.1,0,0.2c0,0.2,0.1,0.4,0.1,0.6c0.2,0.6,0.4,1.2,0.7,1.7
					c0.4,0.6,0.7,1.2,0.9,1.9c0.2,0.7,0.3,1.4,0.3,2.1c-0.1,1.4-0.6,2.6-0.7,4c0,0.5,0,1,0.1,1.5c0.1,0.6,0.3,1.2,0.7,1.6
					c0.3,0.4,0.8,0.6,1.3,0.7c0.4,0,0.8-0.3,1-0.7c0-0.1,0.1-0.2,0.1-0.2c0.5-1.2,0.6-2.7,0.5-4.1c-0.2-1.5-0.4-2.9-0.8-4.3
					c-0.3-0.9-0.5-1.9-0.7-2.8c0-0.1,0-0.2-0.1-0.4c-0.1-0.5-0.2-1-0.2-1.5c-0.1-1.4-0.1-2.9-0.1-4.4l0,0c0.5,1.2,1,2.5,1.5,3.7
					c0.4,1,0.9,1.9,1.4,2.8c-0.2-1.6-0.3-3.2-0.5-4.8c-0.1-0.2-0.3-0.4-0.4-0.5c-0.6-0.5-1.2-1-1.8-1.3c0-0.1-0.4-0.9-0.4-1
					c-0.2-0.6-0.4-1.1-0.7-1.7c-0.2-0.5-0.4-1-0.6-1.6c-0.5-1.1-1-2.3-1.5-3.4c1.3,0.8,2.5,1.8,3.4,3c0.4,0.6,0.9,1.1,1.4,1.5
					c-0.1-0.4-0.1-0.8-0.2-1.2c-0.2-1.2-0.4-2.4-0.7-3.6c-0.3,0-0.6,0-0.9,0c-0.8,0-1.6-0.1-2.3-0.7c-0.5-0.5-1-1-1.7-1.2h0
					l-0.3-0.7c-0.9-1.9-1.8-3.7-2.7-5.6c1.3,1.1,2.9,1.6,4.5,1.7h0.2c0.4,0,0.8,0,1.2,0c-0.4-1-1-2-1.5-3l-0.9-0.1
					c-0.7-0.1-1.5-0.2-2.2-0.3c-0.6-0.1-1.1-0.3-1.6-0.6c-0.2-0.1-0.8-0.6-1.1-0.4c-0.7-1.3-1.4-2.6-2-3.9c-0.5-1.1-0.9-2.3-1.2-3.5
					l0.1-0.1c0.7,0.7,1.6,1.4,2.4,1.9c0.4,0.2,0.8,0.4,1.3,0.4c-0.9-1-1.9-1.9-2.9-2.8l0,0C244,230.5,243.5,230,242.9,229.7
					C242.9,229.6,242.9,229.7,242.9,229.7C242.9,229.7,242.9,229.7,242.9,229.7z"/>
				<path class="st5" d="M222.4,244.8l-0.1-0.2c0,0,4.2-2.5,6.2-3.4c4.9-2.1,8-1.7,8.1-1.7l0,0.2c0,0-3.1-0.4-8,1.7
					C226.6,242.3,222.5,244.8,222.4,244.8z"/>
				<path class="st3" d="M127.6,295.5c-1.1-10.6-2.2-21.2-3.2-31.8c-0.7-7.9-1.4-15.8-2.1-23.8c-0.5,0-1-0.1-1.5-0.2
					c-0.5-0.1-0.9-0.3-1.2-0.7l-0.4,0.1c-4.7,1.1-9.4,1.7-14.2,1.5c0,0-0.1,0-0.1,0.1c0,0,0,0,0,0c0.1,0.8,0.2,1.5,0.3,2.3l2.2,17.7
					c0.7,5.9,1.5,11.9,2.2,17.8c0.7,5.9,1.5,11.9,2.2,17.8c0.4,3,0.7,6,1.1,8.9c0.2,1.5,0.4,3,0.5,4.4c0.1,0.7,0.2,1.4,0.3,2.2
					c0.1,0.5,0.1,0.9,0.4,1.3c0.3,0.3,0.8,0.4,1.2,0.4c0.6,0,1.3,0,1.9,0l4.1,0l8.1,0c0,0,0.1,0,0.1-0.1c0,0,0,0,0,0
					C128.8,307.5,128.2,301.5,127.6,295.5z"/>
				<path class="st3" d="M20.6,240.3c0,0.7-0.1,1.5-0.1,2.3l-0.7,17.6l-0.7,17.7l-0.7,17.7l-0.4,8.9c-0.1,1.5-0.1,2.9-0.2,4.4
					c0,0.7-0.1,1.4-0.1,2.1c0,0.4,0,0.9,0.2,1.3c0.2,0.3,0.7,0.4,1.1,0.5c0.6,0,1.3,0.1,1.9,0.1l4.1,0.2l8,0.3c0.1,0,0.1,0,0.1-0.1
					c0,0,0,0,0,0c0.3-6,0.6-11.9,1-17.9c0.6-10.5,1.3-21,2-31.5c0.6-8.3,1.2-16.6,1.8-25c0.4-0.1,0.8-0.2,1.1-0.3
					c0.1,0,0.1-0.2,0-0.2c-0.4,0.1-0.8,0.2-1.1,0.3c0.2-2.2,0.3-4.4,0.5-6.6c0-0.1-0.1-0.1-0.1,0c-0.2,2.2-0.4,4.4-0.5,6.6
					c-1,0.2-1.9,0.4-2.9,0.6c-4.7,0.9-9.5,1.2-14.3,0.9C20.6,240.2,20.6,240.3,20.6,240.3C20.6,240.3,20.6,240.3,20.6,240.3z"/>
				<path class="st8" d="M104.3,138.1c-0.2-0.6-0.4-1.1-0.8-1.5c0.5-0.1,0.8-0.6,0.8-1.2c0-0.8-0.6-1.4-1.2-1.8
					c-1.3-0.9-2.9-0.8-4.4-0.6l0.3-0.1c0.9-0.4,1.8-0.8,2.6-1.3c0.7-0.4,1.3-1.1,1.6-1.9c0.2-0.7,0-1.5-0.5-1.8
					c-0.2-0.1-0.4-0.1-0.5-0.1c0.4-0.4,0.7-1,0.9-1.5c0.3-0.7,0.2-1.6-0.6-1.8s-1.7,0.1-2.4,0.6c-0.3,0.2-0.6,0.4-0.8,0.7
					c0.2-0.5,0.2-1.1,0.1-1.6c-0.1-0.8-0.7-1.5-1.5-1.1c-0.8,0.4-1.4,1.5-1.8,2.4c-0.5,1.1-0.8,2.3-0.9,3.5c-0.1,1.2-0.1,2.3,0,3.5
					c-0.2-0.3-0.3-0.6-0.5-0.9c0,0-0.1,0-0.1,0c0,0,0,0.1,0,0.1c0.2,0.4,0.4,0.8,0.6,1.2c0,0.2,0,0.3,0,0.5l-0.1,0.1
					c0,0-0.1,0-0.1,0c0,0,0,0,0,0c-0.2,1.8,0.1,3.6,1,5.1c0.8,1.4,2.2,2.8,3.8,3.1c0.7,0.1,1.7-0.3,1.7-1.2c0.9,0.4,2.2,0.7,2.7-0.5
					C104.5,139.3,104.4,138.6,104.3,138.1z"/>
				<path class="st3" d="M98.9,312.5c0.8-0.1-1.1,0-2.8,0.1C97.1,312.6,98.1,312.5,98.9,312.5z"/>
				<path class="st9" d="M86.5,203c-1.9-1.2-1.7-2.6-1.2-3.2c-1.9-0.1-3.3-0.2-5.2-0.1c-2.3,0.1-4.7,0.1-7,0.2
					c-3.5,0.2-6.4-1.1-9.8-1.2c-0.3,2.6-1,3.2-1.3,3.6c-1.7,2.3-22.8,2.2-29.4,8.7c-7.3,7.2-11,14-12,30
					c-0.8,11.8,12.6,10.6,15.8,21.4c5.7,19.1-0.1,37.3,15.8,51.9c0.8,0.7,46.8,0,46.9-0.5c0.1-0.4,11.4-55.2,12-58.2
					c1.3-6.4,12.4-0.4,12-6.9C122.1,233.4,91.3,206.1,86.5,203z"/>
				<path class="st10" d="M92.1,216.4c0-0.1-0.1-0.1-0.2,0c-1.2,3.9-2.8,7.7-4.7,11.3c-1,1.8-2,3.6-3.1,5.3
					c-1.1,1.7-2.4,3.1-3.9,4.3c-1.4,1-3,1.7-4.7,2c-2,0.3-4,0-5.8-0.6c-1-0.3-7.2-5.3-7.6-7c-1.1-4.4-2.1-8.8-3.2-13.2
					c-0.1-0.5-0.3-1.1-0.4-1.6c0,0-0.1-0.1-0.1,0c0,0,0,0,0,0c-0.5,1.1-1.1,2.1-1.7,3.1l0-0.3c0-0.1-0.1-0.1-0.1,0l0,0.5
					c-0.7,1.2-1.5,2.4-2.3,3.6c-0.1,0.1,0.1,0.2,0.1,0.1c0.8-1.1,1.5-2.2,2.2-3.4c0.2,4.2,1,8.4,2.8,12c1.9,3.7,4.8,6.7,8.4,8.1
					c3.7,1.4,7.8,1.3,11.4-0.4c3.6-1.7,6.5-4.8,8.7-8.4c1.1-1.9,2.1-3.9,2.8-6c0.8-2.3,1.5-4.8,1.6-7.3
					C92.2,217.7,92.2,217.1,92.1,216.4z"/>
				<path class="st1" d="M89.4,213.6c0.3-0.5,0.5-1.1,0.2-1.6c-0.1-0.1-0.2,0-0.1,0.1c0.4,0.6-0.2,1.4-0.6,1.8
					c-0.2,0.2-0.3,0.4-0.5,0.5c0,0,0-0.1,0-0.1c-0.3-1-0.6-2.1-1-3.1c0-0.1-0.1,0-0.1,0c0.3,1.1,0.7,2.2,1,3.3
					c-0.2,0.2-0.5,0.4-0.7,0.7c-1,0.8-2,1.5-3.1,2.1c-2.2,1.1-4.6,1.9-7,2.3c-2.6,0.5-5.2,0.5-7.7,0.2c-2.4-0.3-4.7-1-6.8-2.2
					c-2-1.1-3.8-2.8-4.7-5.2c0.2-0.3,0.4-0.5,0.6-0.8c0-0.1,0-0.1-0.1-0.1c-0.2,0.2-0.4,0.5-0.6,0.7c0,0,0-0.1,0-0.1
					c0,0-0.1,0-0.1,0c0,0.1,0,0.1,0,0.1c-0.4,0.5-0.7,1-1.1,1.4c-0.2,0.2-0.5,0.5-0.4,0.8c0.1,0.3,0.3,0.6,0.5,0.9
					c0.8,1.3,1.7,2.4,2.7,3.4c2.2,2.1,4.9,3.6,7.7,4.5c1.6,0.5,3.2,0.8,4.8,0.9c1.7,0.2,3.3,0.2,5,0c1.6-0.3,3.2-0.7,4.7-1.3
					c0.8-0.3,1.7-0.6,2.5-1c0.7-0.3,1.6-0.5,2.2-1c0.6-0.5,0.9-1.4,1.5-2c0.5-0.5,1.1-0.8,1-1.7c-0.1-0.5-0.2-1-0.4-1.5
					c-0.1-0.4-0.2-0.8-0.3-1.2C88.8,214.3,89.1,214,89.4,213.6z"/>
				<path class="st1" d="M100.6,224.4c0-0.7-0.3-1.4-0.8-1.9c-0.4-0.4-1-0.7-1.5-0.9c-0.2-0.1-0.4-0.1-0.5-0.1c0-0.6,0-1.2-0.2-1.8
					c0-0.1-0.1,0-0.1,0c0.1,0.6,0.1,1.1,0.1,1.7c-0.4-0.1-0.8-0.1-1.2-0.2c0,0-0.1,0-0.1,0.1c0,0.1,0,0.1,0.1,0.1
					c0.4,0,0.8,0.1,1.2,0.2c-0.1,1-0.2,2.1-0.5,3.1c-0.4,1.6-0.8,3.2-1.2,4.8c-0.8,3.3-1.8,6.5-2.8,9.7c-1,3-2,6.1-3.3,9
					c-1.2,2.7-2.6,5.4-4.7,7.5c-1.9,2-4.2,3.4-6.8,3.8c-2.7,0.4-5.3-0.6-7.5-2.2c-2.2-1.6-4-4-5.4-6.4c-1.5-2.6-2.8-5.3-4-8.1
					c-2.5-5.7-4.5-11.7-6.3-17.8c-0.2-0.7-0.4-1.5-0.6-2.2h0.1c0.1,0,0.1-0.1,0-0.1l-0.3,0c0-0.1,0-0.1,0-0.2c0.2,0,0.3-0.1,0.5-0.1
					c0.1,0,0-0.1,0-0.1c-0.1,0-0.3,0.1-0.4,0.1c0-0.1,0-0.2,0.1-0.3c0-0.1-0.1-0.1-0.1-0.1c0,0.1-0.1,0.2-0.1,0.4
					c-0.4,0.1-0.8,0.3-1.1,0.6c0,0,0,0,0,0.1c1.2,7.2,3.2,14.1,6.1,20.7c1.4,3.3,3,6.4,4.8,9.4c1.6,2.8,3.4,5.8,5.8,7.9
					c4.7,4.2,11.8,3.4,16.8-0.4c1.2-0.9,2.3-2,3.2-3.3c1-1.4,1.9-2.9,2.5-4.5c0.8-1.8,1.4-3.6,2-5.4c0.7-1.9,1.4-3.8,2-5.8
					c0.7-1.9,1.3-3.9,2-5.9c0.6-1.9,1.2-3.9,1.7-5.8C100.3,228.2,100.7,226.2,100.6,224.4z"/>
				<path class="st3" d="M96.1,312.5c-0.4,0-0.8,0-1.2-0.1l-0.7,0.1C93.6,312.6,94.8,312.6,96.1,312.5z"/>
				<path class="st9" d="M60.5,212.5c0.4,0.1,0.9,0.3,1.3,0.3c0.5,0.1,1,0.2,1.5,0.2c1,0.1,1.9,0.2,2.9,0.1c2,0,6.6-0.3,8.6-0.8
					c3.6-0.9,8.4,0.3,11.4-2.1c0,0.7,0,1.4,0,2.1c0,0,0,0.1,0.1,0.1c0,0,0.1,0,0.1-0.1c0-0.7,0-1.5,0-2.2c0.2-0.2,0.4-0.3,0.6-0.5
					c0.1-0.1,0-0.2-0.1-0.1l-0.5,0.4c0-1.4,1.5-26.5,1.9-30.4l0,0c0.6,0.2,1.2,0.4,1.7,0.5c0,0,0.1,0,0.1,0c0,0,0,0,0-0.1
					c-1.7-0.5-3.5-1.1-5.2-1.8c-3-1.2-7.4-2.7-10.1-4.4c-1.4-0.9-2.8-1.8-4.1-2.8c-1.4-1-2.7-2.2-3.6-3.8c0-0.1-0.1,0-0.1,0.1
					c0,0.5-2,0.3-2.3,0.7C64.1,168.6,59.5,212.1,60.5,212.5z"/>
				<path class="st9" d="M107.5,163c-1-1.3-5.5-7.2-5.8-9c-0.1-0.9,0.8-4.5,0.4-7.4c-0.3-2.5-0.6-5.1-1.5-7.5c-0.5-1.5-1.2-3-2-4.3
					c-0.6-1.1-1.3-2.1-2.1-3c0.1-0.1,0.1-0.3,0-0.4c-0.1-0.1-0.2-0.1-0.3,0c-0.1-0.1-0.1-0.1-0.2-0.2c-0.1-0.1-0.2-0.1-0.2,0
					c0,0.1-0.1,0.2,0,0.2c0,0.1,0.1,0.1,0.1,0.2c-2.2,1.7-4.3,3.3-6.3,5.2c-2,1.7-3.8,3.6-5.5,5.6c-1.7,2.1-3.2,4.4-4.9,6.5
					c-1.6,2-6.5,3.6-7.3,6.2c-0.7,2.3,2.7,5.2,2.4,7.5c-0.2-0.2-0.5-0.3-0.7-0.3c0-0.1,0-0.2,0.1-0.3c0.1-0.3-0.4-0.5-0.5-0.2
					c0,0.2-0.1,0.4-0.1,0.5c0,0-0.1,0.1-0.1,0.1c0,0.1,0,0.2,0,0.2c-0.4,1.9-7.2,3.9-6.5,5.7c0.8,1.9,6.1,14,7.3,15.7
					c1.7,2.4,7,3.2,13.1,4.3c1.9,0.3,3.9,0.7,5.9,1.2c1.6,0.4,7.8,1.5,9.3-2.1c0.2-0.6,0.3-1.3,0.3-2c0-0.3-0.1-1.9-0.2-3.5
					c0.2-0.2,0.4-0.5,0.6-0.7c0.5-0.6,0.9-1.2,1.1-1.9c0.2-1.1-0.5-1.8-1-2.6c0,0,0-0.1-0.1-0.1c0.4-0.2,0.7-0.4,1-0.8
					c0.4-0.5,0.9-1.3,0.8-2c0-0.5-0.3-1-0.6-1.4c-0.1-0.1-0.1-0.1-0.2-0.2c-0.1-0.1-0.3-0.2-0.4-0.4c-0.1-0.1-0.3-0.2-0.4-0.3
					c-0.1-0.1-0.2-0.2-0.3-0.3l-0.1-0.1c0.2-0.1,0.9-0.5,0.9-0.6c0.6-0.2,1.6-0.7,2.1-1c1.2-0.6,2.5-1.5,2.9-2.9
					S108.2,164,107.5,163z"/>
				<path class="st1" d="M98.3,130.5c-0.6-0.2-1.2-0.3-1.7-0.1c0.4-0.3,0.7-0.8,0.8-1.3c0.2-0.8-0.1-1.6-0.6-2.1
					c-1-1-2.4-0.8-3.5,0.1c-0.1-1.6-0.9-3-2.1-4c-0.7-0.6-1.7-1.1-2.7-0.8c-0.4,0.1-0.8,0.4-1,0.8c-0.4-1-1-1.8-1.8-2.5
					c-0.7-0.6-1.5-1.1-2.4-1.1c-0.9,0-1.9,0.4-2.5,1.1c-0.1-0.1-0.2-0.2-0.3-0.2c-0.5-0.2-1-0.4-1.6-0.5c-1.1-0.4-2.3-0.5-3.5-0.6
					c-1.8,0-4,1.1-4.3,3.4c0,0.1,0,0.3,0,0.5c-1-0.4-2.2-0.4-3.2-0.3c-0.7,0.1-1.5,0.3-1.9,1c-0.3,0.4-0.4,1-0.3,1.5
					c-1.6-1.2-3.9-0.8-5.6,0.1c-0.9,0.5-1.8,1.2-2.2,2.2c-0.5,0.9-0.5,2-0.1,2.9c-1.1,0-2.1,0.6-2.6,1.6c-0.5,1-0.4,2.2,0.2,3.1
					c-0.3-0.2-0.6-0.3-0.9-0.5c-0.4-0.2-0.8-0.2-1.2-0.1c-0.8,0.1-1.5,0.6-2,1.2c-1,1.4-0.9,3.4-0.1,4.8c-1.1,0.5-1.8,1.9-1.9,3.2
					c0,1.6,0.8,3.2,2.1,3.9c-1.3,0.2-2.3,1.3-2.5,2.7c-0.3,1.7,0.6,3.4,1.9,4.3c-0.4,1.1-0.2,2.4,0.6,3.2c0.3,0.4,0.8,0.8,1.2,1.2
					c0.4,0.3,1,0.6,1.3,1c0.5,0.6,0,1.3-0.1,2c-0.1,0.6-0.2,1.3-0.2,2c0,1.3,0.3,2.5,0.9,3.6c0.6,1.1,1.5,2,2.4,2.8
					c0.3,0.3,0.8,0.6,0.6,1c-0.1,0.1-0.1,0.3-0.2,0.4c-0.1,0.2-0.1,0.3-0.2,0.5c-0.2,0.5-0.2,1.1-0.2,1.7c0.1,1.2,0.5,2.4,1.3,3.4
					c0.9,1.1,2,2,3,2.9c0.5,0.5,1.1,1,1.6,1.5c0.3,0.3,0.5,0.6,0.7,0.9c0.1,0.1,0.2,0.3,0.3,0.4c0.1,0.2,0.2,0.3,0.3,0.5l0,0
					c-0.2,0-0.1,0.4,0.1,0.3c0.1,0,0.1-0.2,0.1-0.3c0.7,0.3,1.4-0.2,1.9-0.7c0.7-0.8,1-1.8,1.7-2.5c0.7-0.7,1.5-1.2,2.2-1.8
					c0.6-0.5,1.2-1.2,1.5-2c0.8-1.6,0.9-3.6,0.7-5.3c-0.1-1.2-0.4-2.3-0.3-3.5c0.1-1.2,0.4-2.3,0.5-3.5c0.2-1.9,0-3.8,0-5.8
					c0.8-2.5,2.8-4.3,5.2-4.6c0.9-0.1,1.8,0.1,2.8,0.3c0.8,0.2,1.7,0.3,2.4-0.1c0.7-0.4,1.2-0.9,1.6-1.7c1-1.8,1.3-4,1.5-6
					c0.2-2.3,0.4-4.8,1.8-6.6c0.9,0.8,2.5,0.7,3.2-0.5c0.3-0.5,0.2-1.1,0.1-1.6c0.2,0,0.4,0.1,0.6,0.1c0.5,0.1,1,0.1,1.5,0.1
					c0.7-0.1,1-1,0.9-1.7c0-0.2-0.1-0.4-0.2-0.5c0.9,0.3,1.8,0.2,2.7-0.3c0.7-0.4,1.1-1.1,0.8-1.8c0.9-0.2,1.6-0.7,1.9-1.6
					C99.1,131.5,98.9,130.8,98.3,130.5z"/>
				<path class="st9" d="M70.9,160.5c0.2,2.9,1.6,5.5,3.5,7.4c0.5,0.5,0.9,1,1.5,1.4c0.4,0.4,1,0.5,1.5,0.3c1.2-0.4,1.7-2,2.1-3.2
					c0.4-1.4,0.6-2.9,0.2-4.2c-0.2-0.7-0.5-1.3-1-1.8c-0.4-2.3-2.1-4.1-4.2-4.6c-1.1-0.2-2.2,0.1-2.8,1.2
					C71,157.9,70.8,159.3,70.9,160.5z"/>
				<path class="st11" d="M75.7,159.3c0.8,0.2,1.3,1.1,1.3,2c0,0.5,0,1.1,0,1.6c0.1,0.6,0.5,1,1,1.1c0,0,0,0,0,0s0,0,0,0
					c-0.7,0.3-1.2-0.7-1.2-1.3s0.1-1.3-0.1-1.9c-0.2-0.6-0.6-1.1-1.1-1.3C75.6,159.4,75.6,159.3,75.7,159.3z"/>
				<path class="st11" d="M73.2,165.9c0.7,0.9,1.2,2,2.2,2.6c0.4,0.3,0.9,0.4,1.4,0.4c0.3,0,0.5,0,0.8-0.1c0.4-0.2,0.8-0.5,1-0.8
					c0,0,0,0,0.1,0c0,0,0,0,0,0c0,0.6-0.8,1-1.3,1.1c-0.5,0.1-1,0.1-1.5-0.1c-1.3-0.4-2.2-1.8-2.8-3C73,165.9,73.1,165.8,73.2,165.9
					z"/>
				<path class="st11" d="M101.9,181c-1,0-1.7-0.6-2.4-1.3c0,0-0.1,0-0.1,0.1c0.7,0.7,1.5,1.5,2.5,1.3
					C102,181.2,102,181.1,101.9,181C102,181,102,181,101.9,181z"/>
				<path class="st8" d="M94.5,123.8c-0.4-0.4-0.9-0.7-1.4-0.6c0.4-0.4,0.8-1.1,0.4-1.6c0,0-0.1-0.1-0.1-0.1
					c0.6-0.6,0.8-1.5,0.8-2.3c0-0.4-0.2-0.8-0.4-1.1c-0.4-0.4-0.9-0.4-1.3-0.7c0.3-0.4,0.3-0.9,0.1-1.3c-0.2-0.5-0.6-0.8-1.1-0.8
					c-0.5,0-1.1,0.1-1.6,0.4c-0.2,0.2-0.5,0.3-0.8,0.4c-0.4,0.1-0.7,0-1.1-0.3c-0.9-0.5-1.8,0-2.5,0.8c-0.1,0.1-0.3,0.3-0.4,0.4
					c-0.1-0.4-0.5-0.6-0.8-0.6c-0.7-0.1-1.1,0.7-1.2,1.4c-0.3-0.1-0.7,0-0.8,0.4c-0.3,0.6-0.3,1.3-0.2,1.9c0.1,0.5,0.2,1.1,0.3,1.6
					c-1-1.2-2.4-2.1-4-1.8c-1.1,0.1-2.2,0.9-2.3,2.2c-0.1,0.6,0.3,1,0.4,1.6c0.1,0.5-0.2,0.8-0.4,1.2c-0.2,0.3-0.4,0.6-0.6,1
					c-0.3,0.6-0.6,1.5-0.3,2.1c0.3,0.6,0.8,0.9,1.2,1.2c-0.7,1.1-1.2,2.4-1.1,3.8c0.1,1.1,0.6,2.3,1.6,2.7c1,0.4,2.1,0.3,3.1-0.4
					c0.8-0.5,1.4-1.3,1.9-2.1c0,0,0,0.1,0,0.1c0,0.8,0.1,1.6,0.5,2.2c0.3,0.4,0.9,0.9,1.3,0.5c0,0.6,0.4,1.1,0.9,1.2
					c0,0,0.1,0,0.1,0c0.9,0,1.5-1,1.9-1.8c0.3-0.8,0.5-1.6,0.7-2.4c0.1,0.5,0.3,0.9,0.6,1.3c0.5,0.6,1.2,0.8,1.9,0.6
					c0.8-0.3,1.4-1,1.5-1.9c0.4,0.3,0.8,0.3,1.2,0c0.5-0.3,0.8-0.8,1-1.4c0.5-1,0.6-2.2,0.4-3.4c-0.1-0.5-0.3-1.1-0.6-1.5l-0.1-0.1
					c0.5-0.1,1.2-0.5,1.5-1.1C94.9,124.9,94.9,124.3,94.5,123.8z"/>
				<path class="st8" d="M76.9,150.6c-0.4-1.6-1.5-3-2.8-3.9c-0.2-0.2-0.5-0.3-0.8-0.4c0.2-0.1,0.4-0.3,0.7-0.4
					c0.9-0.6,2-1.2,2.5-2.2c0.2-0.4,0.3-1,0.2-1.5c-0.1-0.5-0.5-0.8-0.8-1.2c-0.4-0.6-0.3-1.2-0.2-1.8c0.1-0.5-0.1-0.9-0.4-1.2
					c-0.8-0.8-1.9-0.2-2.7,0.4c0-0.2-0.1-0.3-0.2-0.4c-0.3-0.1-0.6,0-0.8,0.1c-0.3,0.1-0.6,0.4-0.8,0.6c0.1-0.4,0.1-0.8,0.1-1.2
					c0.1-1.1,0-2.2-0.2-3.3c-0.2-0.8-0.7-1.6-1.5-1.5c-0.9,0-1.6,0.6-2.2,1.3c-0.6,0.7-1.1,1.6-1.3,2.5c-0.3,1.1-0.2,2.2-0.1,3.4
					c0,0.5,0.2,1.2-0.1,1.7c-0.3,0.4-0.8,0.2-1.1,0.6c-0.3,0.4-0.3,0.8-0.3,1.3c0,0.4,0,0.8,0.1,1.2c-1-0.9-2-1.6-3.2-2.1
					c-0.8-0.3-1.6-0.6-2.4-0.3c-0.7,0.2-1.3,0.7-1.6,1.5c-0.2,0.7,0,1.5,0.6,1.9c-0.7,0.6-1.2,1.8-0.6,2.6c0.1,0.2,0.3,0.3,0.5,0.3
					c0.1,0,0.3,0,0.4,0.1l0.2,0.1c0,0.1,0,0.3,0,0.4c0,0.1-0.1,0.1-0.2,0.2c-0.2,0.4-0.2,0.9,0,1.3c0.5,1.1,1.8,1.2,2.7,1.1
					c1.2-0.1,2.4-0.6,3.4-1.4c0.3-0.2,0.6-0.5,0.8-0.7c-0.7,1.2-1.3,2.4-1.9,3.7c-0.7,1.6-1.3,4,0.1,5.4c0.5,0.5,1.4,0.6,1.9-0.1
					c0.6,0.8,1.8,0.7,2.6,0.8c1,0.1,2.1,0,2.7-1c0.7-1.1,0.6-2.6,0.4-3.8c-0.1-0.4-0.1-0.8-0.2-1.2c0.2,0.2,0.4,0.4,0.6,0.6
					c0.6,0.5,1.4,0.9,2.2,0.6c0.6-0.2,1.1-0.9,1-1.6c0.4,0.1,0.7,0.3,1.1,0.2c0.3-0.1,0.6-0.2,0.8-0.5
					C77,152.3,77.1,151.4,76.9,150.6z"/>
				<path class="st12" d="M70.8,146.4c-0.1-1-1.2-0.8-1.9-0.4c-0.3,0.2-0.3,0.8-0.5,1c0-0.1-0.2-0.5-0.2-0.6c0.4-0.8,1-1.8,1.1-2.8
					c0.1-0.7-0.3-1.4-1-1.2c-0.8,0.3-1.1,1.4-1.4,2.2c-0.1,0.5-0.3,1.1-0.3,1.6c0-0.4,0-0.7-0.1-1.1c0-0.3,0-0.6-0.2-0.8
					c-0.2-0.2-0.4-0.2-0.6,0c-0.5,0.4-0.4,1.4-0.3,1.9c0.2,0.8,0.5,1.6,1,2.2c0.4,0,0.8,0.1,1.2,0c0.5,0,1.1-0.1,1.6-0.2
					C70.1,148,71,147.3,70.8,146.4z"/>
				<path class="st12" d="M87.8,123.6c-0.7-0.7-1.4,0.2-1.8,0.9c-0.1,0.3-0.2,0.6-0.3,0.9l0-0.2c-0.1-0.9-0.2-2.1-0.6-2.9
					c-0.3-0.6-1-0.9-1.5-0.2c-0.5,0.7-0.1,1.9,0.1,2.6c0.2,0.5,0.4,1,0.6,1.5c-0.2-0.3-0.4-0.6-0.7-0.8c-0.2-0.2-0.4-0.5-0.6-0.5
					c-0.2,0-0.4,0.2-0.5,0.4c-0.2,0.6,0.5,1.3,0.8,1.7c0.6,0.5,1.3,0.9,2.1,1c0.4-0.2,0.7-0.5,1-0.8c0.4-0.4,0.8-0.8,1.2-1.3
					C88.1,125.4,88.4,124.2,87.8,123.6z"/>
				<path class="st10" d="M89.2,207.8C89.2,207.8,89.2,207.8,89.2,207.8c-0.9,1.9-2.1,3.5-3.7,4.7c-1.7,1.3-3.7,2.1-5.7,2.2
					c-4.1,0.4-8.3-0.9-11.7-3.3c-0.7-0.5-1.6-1.2-2.6-0.9c-0.3,0.1-0.6,0.3-0.8,0.5c-0.4-0.3-0.8-0.6-1.2-1c-0.1,0-0.1,0.1-0.1,0.1
					c0.4,0.3,0.8,0.7,1.2,1c-0.3,0.3-0.4,0.8-0.3,1.2c0,0.1,0.2,0,0.2-0.1c-0.1-0.4,0-0.8,0.3-1.1c3.4,2.7,7.3,4.9,11.6,5.4
					c3.9,0.4,8.2-0.8,11.2-3.9c0.8-0.8,1.6-1.8,2-2.8C89.9,209.3,90.1,208.1,89.2,207.8z"/>
				<path class="st13" d="M135.5,328.6c-0.3-2.3-0.6-4.5-1-6.7c-0.2-1.2-0.4-2.4-0.6-3.7c0.3-3.6-0.7-7.1-1.6-10.5
					c-1.1-4-2.3-8-2.7-12.3c-0.4-4.4-0.1-8.8,0.1-13.2c0.2-4.2,0.1-8.3-0.4-12.5c-1-8.1-3.3-15.9-4-24.1c-0.3-3.8,7-26.1-13.2-35.3
					c-2.2-1-12.3-4.4-19-6.9l-0.2-0.1c-3.5-1.3-6-2.2-5.9-2.2c-0.3,0.5-0.5,1-0.8,1.6c-0.7,1.3-1.4,2.6-1.9,4
					c-0.3,0.7-0.5,1.5-0.6,2.4c0,0.9,0.2,1.8,0.6,2.6c0.5,1.3,0.9,2.2,1.1,3l0.1,0.2c0.4,1.3,0.6,2.4,1,4.6
					c1.2,7.5-0.3,18.2-1.1,25.8c-0.5,4-1,7.9-1.6,11.8c-0.6,4.1-1.3,8.2-2.2,12.3c-1,4-2.5,7.9-3.6,11.9c-1.2,4-1.7,8.1-2.1,12.3
					c-0.5,5.6-1,11.2-1.5,16.8c0-0.2-0.1-0.4-0.1-0.5c-1.3-4.7-2.9-9.2-4.2-13.8c-1.3-4.8-2.1-9.7-2.4-14.6
					c-0.6-9.9,0.1-19.9-1-29.7c-0.6-4.8-1.7-9.5-3.4-14c-1.7-4.5-3.6-9.6-2.1-14.7c0.8-2.5,2.5-4.2,4-6.2c0.6-0.8,1.2-1.7,1.6-2.6
					c0-0.1,0.1-0.1,0.1-0.2c0.5-1.1,1-2.2,1.3-3.3c0.6-1.8,1.2-4.1-0.3-5.5c-0.8-0.7-1.7-1.1-2.5-1.7c-0.8-0.6-1.6-1.4-2.2-2.2
					l-0.2-0.2c-0.7-0.9-1.3-1.8-1.8-2.8c0,0,0-0.1-0.1-0.1h0c0,0-0.1,0-0.1,0.1c-0.3,2.2-2.1,3.5-3.8,4.2c-0.1,0.1-0.3,0.1-0.4,0.1
					l-0.2,0.1c-2.3,0.8-6.3,1.1-8.3,1.6c-4.7,1.1-9.5,2.3-14.1,4.3c-3.4,1.5-6.6,3.5-9.5,6c0,0-0.1,0.1-0.1,0.1
					c-3.6,3.2-6.7,7.2-8.2,12c-2.9,9.2-4.3,26.5-5.8,31.3c-1.5,4.8-2.6,9.8-2.7,14.8c0,2.9,0.2,5.7,0.2,8.6
					c-0.1,2.9-0.6,5.8-1.2,8.7c-0.6,2.7-1.1,5.4-1.4,8.2c-0.3,2.8-0.4,5.6-0.5,8.5c-0.1,2.9-0.3,5.8-0.7,8.6
					c-0.3,1.9-0.6,3.8-0.9,5.7c1-0.3,1.9-0.5,2.9-0.7c2.5-0.6,4.9-0.7,7.4-0.8c3.4-0.1,6.8-0.1,10.1,0c3,0.1,6,0.4,9,0.7
					c0-0.7,0-1.4,0-2.2c0-2.4,0-4.7,0.4-7c0.4-2.4,1-4.8,1.4-7.2c0-0.2,0.1-0.4,0.1-0.6c-0.1,1.2-0.1,2.4,0,3.7
					c0.2,1.6,0.3,3.1,0.3,4.7c0,1.5-0.1,2.9-0.1,4.4c0,1.4,0,2.8,0.2,4.2c0,0.3,0.1,0.6,0.2,0.8c1.6,0.2,3.1,0.4,4.7,0.6
					c1.2,0.2,6.2,0.3,7.4,0.5c1.3-0.2,2.6-0.3,4-0.3c0.2,0.6,0.4,1.2,0.7,1.7c1,2.1,1.8,4.4,2.4,6.7c1.2,4.4,1.9,9,3.7,13.2
					c0.8,1.8,1.8,3.6,3.3,4.9c1.4,1.2,3,1.8,4.6,2.2c1.6,0.4,3.4,0.8,5,1.5c0.8,0.3,1.6,0.8,2.3,1.4c0.7,0.7,1.3,1.4,1.8,2.2
					c0.6,0.8,1.2,1.5,2,2c0.8,0.5,1.8,0.6,2.7,0.6c2.1-0.1,4-1.1,5.9-1.6c2.2-0.6,4.4-0.7,6.6-0.4c1.1,0.1,2.2,0.4,3.3,0.7
					c1.1,0.3,2.1,0.8,3.2,1c0.9,0.2,1.9,0.2,2.8-0.1c0.7-0.3,1.4-0.8,1.9-1.5c1.2-1.4,1.7-3.3,1.9-5.2c0.2-2.5-0.1-5.1,0.1-7.6
					c0.2-2.5,0.7-4.9,1-7.4c0.2-1.2,0.2-2.4,0.2-3.7c0-1.2-0.2-2.4-0.4-3.6c-0.2-1.3-0.5-2.5-0.6-3.8c-0.1-0.8,1.8-8.5,1.2-21.9
					c0.6,2.3,1.4,4.6,1.7,7c0.2,1.6,0.3,3.2,0.2,4.8c0,0.1,0,0.1,0,0.2c-0.3,1.6-0.7,3.1-1.2,4.6c-0.4,1.4-0.7,2.9-0.5,4.4
					c0.2,1.5,0.8,2.9,1.3,4.3c0.5,1.4,0.8,2.9,0.9,4.4c0.3,2.9,0.1,5.8,0,8.8c0,3.2,0.2,6.4,1.5,9.2c0,0,0.1,0,0.1,0c0,0,0,0,0,0
					c0.6-0.6,1.4-0.8,2.1-0.9c0.9-0.1,1.8-0.3,2.7-0.4c1.8-0.2,3.5-0.4,5.3-0.6c3.1-0.4,6.2-1.2,8.9-3c2.3-1.5,4.3-3.6,5.4-6.3
					C136.7,336.1,136,332.2,135.5,328.6z M34.9,295.1c0-1.9,0-3.9-0.1-5.8C35.1,290.3,35.1,292.5,34.9,295.1z M107,293.9
					c0-6.9,0.1-12.5,0.3-13.8c0.2,2.9,0,3.5,0.4,6.4C108,289,107.5,291.4,107,293.9L107,293.9z"/>
				<path class="st14" d="M66.6,214.1c0,0.1-0.1,0.1-0.1,0.2l-0.2-0.2c-1-0.9-1.9-2-2.9-2.9c-0.5-0.5-1-1-1.5-1.4
					c-0.6-0.5-1.3-0.9-1.9-1.4c-1.1-0.9-2-2.2-2.6-3.6c-0.3-0.6-0.6-1.3-0.9-2l0.2-0.1c0.3,0.8,0.7,1.5,1.1,2.3
					c0.4,0.7,0.8,1.4,1.3,2c0.6,0.7,1.2,1.2,1.9,1.7c1.1,0.8,2.1,1.6,3.1,2.6C64.7,212.3,65.6,213.3,66.6,214.1z"/>
				<path class="st14" d="M93.1,203.5c-0.1,0.5-0.2,1.1-0.4,1.6c-0.4,1.4-0.9,2.8-1.7,4c-0.7,1.1-1.5,2-2.4,2.8c-1,1-2.1,1.9-3.1,3
					l-0.1-0.2c0.1-0.1,0.3-0.3,0.4-0.4c1.7-1.9,3.9-3.3,5.2-5.6c0.7-1.3,1.3-2.8,1.6-4.3c0.1-0.4,0.2-0.7,0.2-1.1L93.1,203.5z"/>
				<path class="st15" d="M110.1,242.4c0,0-0.1-0.1-0.1,0c0,0,0,0,0,0c-1.2,1.6-1.5,4-1.6,6.1c-0.1,1.5-0.1,3-0.1,4.6
					c0,0.4,0,0.8-0.1,1.2c-0.1,1.1-0.1,2.2-0.2,3.3c-0.4,4.1-1.3,8.1-1.7,12.1c-0.2,2.6-0.2,5.3,0.3,7.8c0,0.1,0.1,0,0.1,0
					c-0.9-4.6-0.2-9.3,0.6-14c0.3-1.6,0.5-3.2,0.7-4.8c0,0,0.1,0,0.1,0c0,0,0,0,0,0c0-0.3,0-0.6,0.1-0.9c0-0.3,0.1-0.7,0.1-1
					c0.1-1.2,0.1-2.3,0.1-3.5c0-0.4,0.1-0.8,0.1-1.2c0.2-1.1,0.4-2.2,0.8-3.3c0.3-0.9,0.6-1.9,0.8-2.9
					C110.4,244.6,110.4,243.5,110.1,242.4z"/>
				<path class="st15" d="M34.4,285.7c-0.2-5-0.4-11.4-0.3-16.4c0-2.5,0.1-4.9,0.2-7.4c0.1-2.2,0.3-4.3,0.3-6.5
					c-0.1-2.1-0.4-4.1-1.6-5.7c0,0-0.1,0-0.1,0c0,0,0,0,0,0c-0.7,2.2-0.5,4.5-0.2,6.7c0.3,2.4,0.7,4.8,0.7,7.3
					c0,2.5-0.1,5.1-0.5,7.6c-0.3,2.4-0.6,4.8-0.5,7.1s0.9,5.3,2,7.4C34.4,285.9,34.5,285.8,34.4,285.7L34.4,285.7z"/>
				<path class="st15" d="M30.6,228.6c-0.3-1.3-0.6-2.6-1-3.8c-0.6-2-1.5-4-2.4-5.8c-0.2-0.3-0.4-0.6-0.5-0.9
					c-0.7-1.1-1.4-2.2-2.2-3.3c0,0,0.1-0.1,0.1-0.1c0.5,0.6,1,1.3,1.4,2c0.3,0.4,0.5,0.8,0.8,1.2C28.7,221.1,30,224.7,30.6,228.6
					C30.7,228.6,30.6,228.6,30.6,228.6z"/>
				<path class="st1" d="M101.3,187.1c-1.7-0.8-3.1-2.1-4.5-3.4c-1.4-1.3-2.9-2.7-4.5-3.8c-1.8-1.2-3.7-2.2-5.6-3.2
					c-0.9-0.5-1.9-1-2.7-1.7c-0.7-0.7-1.2-1.7-1.5-2.7c-0.2-1.1-0.4-2.2-0.4-3.3c-0.1-1.3-0.2-2.5-0.2-3.8c-0.1-1.3-0.1-2.6-0.1-3.9
					c-0.1-1.1-0.1-2.3,0-3.4c0-1.2,0.3-2.4,0.9-3.4c0.5-0.9,1.1-1.7,1.3-2.7c0.1-0.4,0.1-0.8,0-1.2c0,0,0-0.1-0.1-0.1c0,0,0,0,0,0
					c-1.9,1.8-4.7,0.6-6.7,2.2c0,0,0,0,0,0.1v0c0,0,0,0,0,0c0,0.2-0.1,0.4-0.1,0.5c0,0.1,0.1,0.1,0.1,0c0,0,0,0,0-0.1
					c1,3.1,1.5,6.4,1.6,9.8c0.1,3.3-0.1,6.7-0.3,10c-0.1,1.7-0.1,3.3,0,5c0,1.6,0.2,3.1,0.6,4.6c0.3,1.3,1,2.4,1.9,3.2
					c0.9,0.7,1.9,1.3,3,1.6c1,0.3,1.9,0.6,2.9,0.9c1.9,0.3,3.9,0.7,5.9,1.2c1.6,0.4,7.8,1.5,9.3-2.1
					C101.8,187.3,101.5,187.2,101.3,187.1z"/>
				<path class="st11" d="M104.6,173.8c0-0.5-0.3-1-0.7-1.4c-0.9,0.6-1.8,1.1-2.8,1.6c-1.1,0.5-2.3,0.9-3.5,1.2c0,0-0.1,0.1-0.1,0.1
					c0,0,0,0,0,0c0.7,0.7,1.8,0.9,2.7,1.1c0.8,0.2,1.7,0.2,2.5,0.2c0,0,0-0.1-0.1-0.1c0.4-0.2,0.7-0.4,1-0.8
					C104.2,175.2,104.6,174.5,104.6,173.8z"/>
			</g>
		</g>
	</g>
</g>
</svg>
