<?xml version="1.0" encoding="UTF-8"?>
<svg width="581px" height="477px" viewBox="0 0 581 477" version="1.1" xmlns="http://www.w3.org/2000/svg" xmlns:xlink="http://www.w3.org/1999/xlink">
    <!-- Generator: Sketch 57.1 (83088) - https://sketch.com -->
    <title>undraw_couple_a7s9</title>
    <desc>Created with Sketch.</desc>
    <defs>
        <linearGradient x1="0.110814419%" y1="50.4151627%" x2="100.394941%" y2="49.6205684%" id="linearGradient-1">
            <stop stop-color="#808080" stop-opacity="0.25" offset="0%"></stop>
            <stop stop-color="#808080" stop-opacity="0.12" offset="54%"></stop>
            <stop stop-color="#808080" stop-opacity="0.1" offset="100%"></stop>
        </linearGradient>
        <linearGradient x1="0.71998701%" y1="50.2210793%" x2="100.984989%" y2="49.5123418%" id="linearGradient-2">
            <stop stop-color="#808080" stop-opacity="0.25" offset="0%"></stop>
            <stop stop-color="#808080" stop-opacity="0.12" offset="54%"></stop>
            <stop stop-color="#808080" stop-opacity="0.1" offset="100%"></stop>
        </linearGradient>
        <linearGradient x1="49.8810347%" y1="50.4259525%" x2="49.9525608%" y2="49.5726925%" id="linearGradient-3">
            <stop stop-color="#808080" stop-opacity="0.25" offset="0%"></stop>
            <stop stop-color="#808080" stop-opacity="0.12" offset="54%"></stop>
            <stop stop-color="#808080" stop-opacity="0.1" offset="100%"></stop>
        </linearGradient>
        <linearGradient x1="49.6077647%" y1="50.4406393%" x2="49.6789661%" y2="49.5462146%" id="linearGradient-4">
            <stop stop-color="#808080" stop-opacity="0.25" offset="0%"></stop>
            <stop stop-color="#808080" stop-opacity="0.12" offset="54%"></stop>
            <stop stop-color="#808080" stop-opacity="0.1" offset="100%"></stop>
        </linearGradient>
        <linearGradient x1="50.0080416%" y1="50.4831898%" x2="50.079571%" y2="49.5285222%" id="linearGradient-5">
            <stop stop-color="#808080" stop-opacity="0.25" offset="0%"></stop>
            <stop stop-color="#808080" stop-opacity="0.12" offset="54%"></stop>
            <stop stop-color="#808080" stop-opacity="0.1" offset="100%"></stop>
        </linearGradient>
        <linearGradient x1="49.7937896%" y1="50.6739224%" x2="49.8855559%" y2="49.3306067%" id="linearGradient-6">
            <stop stop-color="#808080" stop-opacity="0.25" offset="0%"></stop>
            <stop stop-color="#808080" stop-opacity="0.12" offset="54%"></stop>
            <stop stop-color="#808080" stop-opacity="0.1" offset="100%"></stop>
        </linearGradient>
        <linearGradient x1="49.9962691%" y1="100.002509%" x2="49.9962691%" y2="0.000269199977%" id="linearGradient-7">
            <stop stop-color="#808080" stop-opacity="0.25" offset="0%"></stop>
            <stop stop-color="#808080" stop-opacity="0.12" offset="54%"></stop>
            <stop stop-color="#808080" stop-opacity="0.1" offset="100%"></stop>
        </linearGradient>
        <linearGradient x1="49.9974406%" y1="100.02935%" x2="49.9974406%" y2="0.023407764%" id="linearGradient-8">
            <stop stop-color="#808080" stop-opacity="0.25" offset="0%"></stop>
            <stop stop-color="#808080" stop-opacity="0.12" offset="54%"></stop>
            <stop stop-color="#808080" stop-opacity="0.1" offset="100%"></stop>
        </linearGradient>
        <linearGradient x1="50.0014799%" y1="100.004802%" x2="50.0014799%" y2="-0.00200320735%" id="linearGradient-9">
            <stop stop-color="#808080" stop-opacity="0.25" offset="0%"></stop>
            <stop stop-color="#808080" stop-opacity="0.12" offset="54%"></stop>
            <stop stop-color="#808080" stop-opacity="0.1" offset="100%"></stop>
        </linearGradient>
        <linearGradient x1="49.9962633%" y1="100.006985%" x2="49.9962633%" y2="-0.00054855093%" id="linearGradient-10">
            <stop stop-color="#808080" stop-opacity="0.25" offset="0%"></stop>
            <stop stop-color="#808080" stop-opacity="0.12" offset="54%"></stop>
            <stop stop-color="#808080" stop-opacity="0.1" offset="100%"></stop>
        </linearGradient>
    </defs>
    <g id="health-ed-app-" stroke="none" stroke-width="1" fill="none" fill-rule="evenodd">
        <g id="undraw_couple_a7s9" transform="translate(4.000000, 0.000000)">
            <path d="M526,448.61246 C455.960526,420.682867 416.190789,357.265839 425.197368,296 L433.519737,396.646924 C434.789474,412.013579 435.848684,428.197684 426.736842,442.374015 C415.065789,460.487019 386.296053,475.208317 361,471.393543" id="64b6e542-fbbe-497b-902e-15010a41d72b" stroke="#607D8B" stroke-width="7.29" stroke-linecap="round"></path>
            <path d="M527,451.690323 C456.806593,423.815151 414.318681,362.06807 423.338462,301 L431.679121,401.322031 C432.951648,416.639081 434.013187,432.770943 424.881319,446.901511 C413.184615,464.984636 384.338462,476.056083 359,472.253623" id="ffeed91e-fa36-4069-908b-8d6c36340b34" stroke="#37474F" stroke-width="7.29" stroke-linecap="round"></path>
            <g id="5fb8c45a-97ec-40ce-8de6-bc3f5f08518a" transform="translate(91.000000, 96.000000)" fill="url(#linearGradient-1)" fill-rule="nonzero">
                <path d="M-75.0896669,89.8974162 L112.668098,88.7400458 C115.733221,88.7211519 118.23331,91.1906078 118.252204,94.2557299 C118.252351,94.279701 118.252344,94.3036727 118.252181,94.3276437 L118.174154,105.813164 C118.153521,108.850228 115.695568,111.306635 112.658492,111.325356 L-75.0992733,112.482726 C-78.1643954,112.50162 -80.6644844,110.032164 -80.6833783,106.967042 C-80.6835261,106.943071 -80.6835185,106.919099 -80.6833557,106.895128 L-80.6053283,95.4096075 C-80.5846959,92.3725439 -78.1267428,89.9161373 -75.0896669,89.8974162 Z" id="Rectangle" transform="translate(18.784413, 100.611386) rotate(-86.210000) translate(-18.784413, -100.611386) "></path>
            </g>
            <g id="1e80289f-8a2f-4157-a8bf-c31717633f31" transform="translate(413.000000, 97.000000)" fill="url(#linearGradient-2)" fill-rule="nonzero">
                <path d="M-75.5776503,90.7826069 L112.179197,89.6115399 C115.244318,89.5924223 117.744587,92.0616957 117.763704,95.1268165 C117.763856,95.1510867 117.763848,95.1753577 117.763681,95.1996278 L117.695206,105.149032 C117.674307,108.185745 115.216678,110.641788 112.179953,110.660729 L-75.5768941,111.831796 C-78.6420148,111.850913 -81.142284,109.38164 -81.1614016,106.316519 C-81.161553,106.292249 -81.1615452,106.267978 -81.1613781,106.243708 L-81.0929034,96.2943031 C-81.0720039,93.257591 -78.6143753,90.8015474 -75.5776503,90.7826069 Z" id="Rectangle" transform="translate(18.301151, 100.721668) rotate(-86.210000) translate(-18.301151, -100.721668) "></path>
            </g>
            <path d="M0,448.289351 C69.7802637,420.443956 109.027567,355.042649 100.064243,294 L91.7757891,394.292008 C90.5112265,409.604474 89.4563324,425.731509 98.5310427,439.857848 C110.154535,457.90698 138.807032,471.147297 164,467.345976" id="73b40adb-2b61-4cdc-94e6-31fac3016121" stroke="#607D8B" stroke-width="7.29" stroke-linecap="round"></path>
            <path d="M105.993169,102.169028 L110.46598,102.195265 C113.50674,102.213102 115.966953,104.674485 115.983345,107.715252 L116.992594,294.938926 C117.009117,298.004061 114.537728,300.502239 111.472592,300.518762 C111.451768,300.518875 111.430944,300.51887 111.41012,300.518748 L106.937309,300.492511 C103.896549,300.474674 101.436336,298.013291 101.419944,294.972524 L100.410695,107.74885 C100.394172,104.683714 102.865561,102.185536 105.930697,102.169013 C105.951521,102.168901 105.972345,102.168906 105.993169,102.169028 Z" id="285fc5cb-aae6-4a2f-b311-1a33d70ca3cf" fill="#37474F" fill-rule="nonzero" transform="translate(108.701645, 201.343888) rotate(3.790000) translate(-108.701645, -201.343888) "></path>
            <path d="M428.862312,103.764547 L433.335124,103.790784 C436.375883,103.80862 438.836096,106.270003 438.852488,109.310771 L439.861737,296.534444 C439.87826,299.59958 437.406871,302.097758 434.341735,302.114281 C434.320911,302.114393 434.300087,302.114388 434.279263,302.114266 L429.806452,302.088029 C426.765693,302.070193 424.305479,299.60881 424.289087,296.568042 L423.279838,109.344369 C423.263315,106.279233 425.734704,103.781055 428.79984,103.764532 C428.820664,103.76442 428.841488,103.764425 428.862312,103.764547 Z" id="1b948749-14dc-4321-9d45-99c62874af4f" fill="#37474F" fill-rule="nonzero" transform="translate(431.570788, 202.939406) rotate(3.790000) translate(-431.570788, -202.939406) "></path>
            <path d="M0,449.685203 C70.1934066,421.810978 112.681319,360.065995 103.661538,299 L95.3208791,399.325769 C94.0483516,414.642299 92.9868132,430.773613 102.118681,444.903702 C113.815385,462.957623 142.648352,474.057282 168,470.254952" id="920f3779-138b-4033-8b17-08b8e6be40d1" stroke="#37474F" stroke-width="7.29" stroke-linecap="round"></path>
            <g id="ae53b15a-0666-42c7-9774-0b75586f7fb1" transform="translate(13.000000, 91.000000)" fill="url(#linearGradient-3)" fill-rule="nonzero">
                <path d="M516.54569,47.1632877 L18.5573871,51.8575342 C7.93533578,51.0953425 -0.105103785,39.8619178 0.68974359,26.9260274 L0.68974359,26.9260274 C1.48459096,13.9545205 10.8191209,3.96767123 21.4411722,4.72986301 L519.429475,0.064109589 C530.051526,0.82630137 538.091966,12.059726 537.297118,24.9956164 L537.297118,24.9956164 C536.502271,37.9742466 527.167741,47.9610959 516.54569,47.1632877 Z" id="Path"></path>
            </g>
            <g id="f836891e-0226-4d83-80e6-73012d451be6" transform="translate(10.000000, 146.000000)" fill="url(#linearGradient-4)" fill-rule="nonzero">
                <path d="M518.636496,48.9428571 L18.4335766,54.3285714 C7.7649635,53.5571429 -0.295620438,42.0642857 0.512408759,28.7785714 L0.512408759,28.7785714 C1.32043796,15.4928571 10.7080292,5.25714286 21.3766423,6.02142857 L521.579562,0.635714286 C532.248175,1.40714286 540.308759,12.9 539.50073,26.1857143 L539.50073,26.1857143 C538.692701,39.4357143 529.305109,49.7071429 518.636496,48.9428571 Z" id="Path"></path>
            </g>
            <g id="fbf5f82d-c22e-4678-ae3c-b7c3ab00a8a7" transform="translate(7.000000, 203.000000)" fill="url(#linearGradient-5)" fill-rule="nonzero">
                <path d="M516.762812,49.5815385 L18.1854523,55.8779487 C7.55699267,55.1097436 -0.466968215,43.3712821 0.355158924,29.7876923 L0.355158924,29.7876923 C1.17728606,16.2041026 10.5495355,5.72205128 21.1779951,6.49025641 L519.755355,0.201025641 C530.383814,0.969230769 538.407775,12.7076923 537.585648,26.2912821 L537.585648,26.2912821 C536.783252,39.8676923 527.391271,50.3497436 516.762812,49.5815385 Z" id="Path"></path>
            </g>
            <g id="39937586-784e-4453-b9ad-14c761791dad" transform="translate(17.000000, 97.000000)" fill="#E0E0E0" fill-rule="nonzero">
                <path d="M511.035259,41.4376271 L18.2587654,41.5942373 C7.7253586,40.8026327 -0.245972956,30.948605 0.407209877,19.5264407 L0.407209877,19.5264407 C1.13757097,8.10976869 10.2292295,-0.529988529 20.7677037,0.177966102 L513.544198,0.0213559322 C524.077604,0.812960508 532.048936,10.6669882 531.395753,22.0891525 L531.395753,22.0891525 C530.665392,33.5058245 521.573733,42.1455817 511.035259,41.4376271 L511.035259,41.4376271 Z" id="Path"></path>
            </g>
            <g id="c03422b0-2e71-4490-8192-410f1daf55aa" transform="translate(14.000000, 152.000000)" fill="#E0E0E0" fill-rule="nonzero">
                <path d="M511.574883,42.1615 L18.1892707,42.3191667 C7.64284359,41.5222219 -0.338341278,31.6017186 0.315648949,20.1025 L0.315648949,20.1025 C1.04691284,8.60881078 10.1498095,-0.0892305152 20.7013103,0.6235 L514.086922,0.465833333 C524.633349,1.2627781 532.614534,11.1832814 531.960544,22.6825 L531.960544,22.6825 C531.22928,34.1761892 522.126383,42.8742305 511.574883,42.1615 L511.574883,42.1615 Z" id="Path"></path>
            </g>
            <g id="6066eb19-8917-4d49-b655-e0d8fbaaf445" transform="translate(10.000000, 208.000000)" fill="#E0E0E0" fill-rule="nonzero">
                <path d="M511.482818,41.6084746 L18.0972064,41.7650847 C7.55077932,40.9734802 -0.430405555,31.1194524 0.223584672,19.6972881 L0.223584672,19.6972881 C0.954848562,8.28061615 10.0577452,-0.359141071 20.609246,0.348813559 L514.014586,0.149491525 C524.561013,0.941096101 532.542198,10.7951238 531.888208,22.2172881 L531.888208,22.2172881 C531.177697,33.6598734 522.056162,42.3280435 511.482818,41.6084746 L511.482818,41.6084746 Z" id="Path"></path>
            </g>
            <g id="05504e63-1d91-4b63-a23e-d66ccf385b3d" transform="translate(2.000000, 262.000000)" fill="url(#linearGradient-6)" fill-rule="nonzero">
                <path d="M515.633063,60.1 L23.5278087,64.8571429 C9.82133172,63.8714286 -0.571924939,49.5928571 0.433874092,33.1285714 L0.433874092,33.1285714 C1.43967312,16.6642857 13.4698184,4 27.1762954,4.98571429 L519.28155,0.228571429 C532.988027,1.21428571 543.381283,15.4928571 542.375484,31.9571429 L542.375484,31.9571429 C541.376259,48.4214286 529.33954,61.0857143 515.633063,60.1 Z" id="Path"></path>
            </g>
            <path d="M512.858036,321.079545 L29.8985949,322 C16.4021321,320.989278 6.19295955,308.34478 7.05027326,293.701374 L7.05027326,293.701374 C7.98217169,279.063329 19.6405588,267.990626 33.1419644,268.920455 L516.101405,268 C529.597868,269.010722 539.80704,281.65522 538.949727,296.298626 L538.949727,296.298626 C538.017828,310.936671 526.359441,322.009374 512.858036,321.079545 Z" id="b140f40c-a8b2-4956-ad2e-452fd03b260d" fill="#37474F" fill-rule="nonzero"></path>
            <path d="M296.922041,144.777494 C292.423393,139.895852 279.857521,136.99693 271.796894,140.039009 C222.489867,113.898602 173.862254,132.086656 151.982466,141.849941 C149.304386,140.124903 149.080113,141.742573 146.078815,140.668898 C147.499237,137.94712 148.18501,134.846466 148.057693,131.721607 C148.02259,130.875502 147.92999,130.033363 147.78065,129.20205 C166.725103,123.3541 177.41104,108.150862 176.606297,85.8470544 C175.663032,59.6851744 154.977167,39.0061945 130.867845,40.0369225 C106.758522,41.0676505 85.3536655,55.497842 86.2837378,81.659722 C87.0225187,102.102493 96.0659883,121.557484 113.024967,127.469854 C112.780906,128.779737 116.177979,127.591537 116.230749,128.994472 C116.309904,131.106033 113.216259,135.644099 113.915462,137.447873 C92.4182576,138.900913 86.7652646,154.93446 86.442048,178.125839 C86.4157759,181.493655 86.0821354,184.850366 85.4460131,188.146805 L80.6967074,211.9466 C78.9087851,220.874462 79.5762341,230.175516 82.6162184,238.695423 C81.0595016,241.007403 48.3156775,290.575397 100.208438,298.950062 C106.153137,299.968377 112.204362,300.021449 118.163452,299.107534 C126.883705,301.605618 135.439052,308.348297 146.118393,323.83069 C167.298977,354.537794 142.734513,410.390366 136.738514,423.174255 C133.143554,422.515735 129.317724,422.938047 126.290042,425.092555 C122.87318,427.526218 120.861322,435.027627 122.332287,439.157697 C123.348111,441.985041 125.702975,443.939129 128.011665,445.657009 C135.280317,451.049402 143.131386,455.453374 151.388803,458.77016 C157.45736,461.203823 165.174982,462.671179 169.640649,457.596275 C174.106315,452.521371 174.548264,442.4503 169.818748,437.754762 C167.529201,435.655634 164.974778,433.922597 162.233051,432.60828 L180.53107,361.745732 C184.079857,340.916437 188.070593,328.869804 184.798849,314.940661 C187.437352,317.682111 185.544226,315.985705 188.202518,319.951144 C208.756458,350.42204 175.425567,409.101956 175.425567,409.101956 L174.040353,411.306568 C172.061475,412.122561 173.314764,411.163411 171.903165,412.917081 C169.211892,416.252631 165.379466,423.811303 167.833274,427.35443 C169.508723,429.780935 171.091825,433.524482 173.769906,434.512263 C182.094383,437.590131 195.458402,439.522746 204.224829,440.338739 C210.669373,440.918524 219.640283,437.532869 222.694351,431.348501 C225.748418,425.164133 221.731297,417.240412 216.012341,414.090965 C212.338226,412.072456 206.863332,411.005939 201.223531,410.47626 L216.157459,353.929378 C227.892202,282.895042 190.874003,260.376499 166.072073,253.855713 C168.05095,248.065026 168.420341,244.944211 168.420341,244.944211 L168.420341,244.944211 C172.656643,237.278004 174.697741,228.418533 174.284414,219.490956 L171.936146,180.03698 C171.731662,174.382292 172.655138,173.537668 170.762012,168.584447 C208.149602,146.294955 257.779846,159.587051 264.428874,161.147459 C266.11092,164.44722 270.09506,166.265309 273.663635,167.160039 C278.254666,168.300323 282.951186,168.864717 287.660895,168.842129 C291.981443,168.842129 297.014388,167.804244 298.986669,163.638385 C300.95895,159.472526 299.93653,148.048624 296.922041,144.777494 Z" id="Path" fill="url(#linearGradient-7)" fill-rule="nonzero"></path>
            <ellipse id="af98023a-ba84-4608-aef0-20973dc13f22" fill="#F5B89C" fill-rule="nonzero" transform="translate(131.256134, 131.935020) rotate(-2.240000) translate(-131.256134, -131.935020) " cx="131.256134" cy="131.93502" rx="12.5187238" ry="15.0677012"></ellipse>
            <ellipse id="b4eed79b-84f5-48c3-8b43-45013965af24" fill="#F8C198" fill-rule="nonzero" transform="translate(131.953825, 84.900344) rotate(-2.240000) translate(-131.953825, -84.900344) " cx="131.953825" cy="84.9003435" rx="42.086261" ry="45.8187396"></ellipse>
            <path d="M140,149.449558 C140,149.449558 207.372599,109.658753 270,143.905172 L263.480283,157.683865 C263.480283,157.683865 202.785137,142.209663 164.501517,168 L140,149.449558 Z" id="6c542327-4a8e-4472-a7f9-ed6ecee6a014" fill="#F8C198" fill-rule="nonzero"></path>
            <path d="M132.219678,266.699952 L125.783165,266.978568 C125.150209,267.007144 124.521618,267.007144 123.897391,266.978568 C98.1971746,266.799968 79.5096794,240.109941 84.9443749,212.684081 L89.5278531,189.723228 C90.1387226,186.54129 90.4589496,183.301113 90.4838357,180.050236 C90.7981313,157.33228 99.8603224,139.215067 121.193139,138.307777 L127.629652,138.029161 C150.458471,137.143479 169.656411,156.541286 170.596486,181.443319 L171.97153,219.77094 C172.809514,244.681494 155.046542,265.651555 132.219678,266.699952 Z" id="0ebf70c8-58f4-47d0-8dd9-012484bb2b5b" fill="#E0BE36" fill-rule="nonzero"></path>
            <path d="M146,251 C146,251 231.019265,252.321376 214.987588,349.288935 L192.804067,430 L176.423302,410.522206 C176.423302,410.522206 207.854348,345.910498 188.041987,316.490244 C168.229627,287.069989 147.600533,295.283947 147.600533,295.283947 L146,251 Z" id="6d92686d-3b67-484c-b7ef-b32c7ed24186" fill="#263238" fill-rule="nonzero"></path>
            <path d="M102,246 C102,246 199.085402,247.385627 180.678172,356.857336 L155.262085,448 L136.58051,426.030992 C136.58051,426.030992 172.539276,353.066605 149.945021,319.883352 C127.350767,286.7001 103.783241,295.997441 103.783241,295.997441 L102,246 Z" id="ccb820de-2904-4fa6-ba82-eb5ab7edc6f5" fill="#263238" fill-rule="nonzero"></path>
            <path d="M166,244.244212 L86.2682479,238 C86.2682479,238 51.9083809,287.946549 103.188029,296.219772 C154.467677,304.492995 166,244.244212 166,244.244212 Z" id="66820212-e288-4676-a68b-c89a617cd91c" fill="#263238" fill-rule="nonzero"></path>
            <g id="7a4f96e6-2723-4eb9-be60-4d9d5ff4e2f3" transform="translate(81.000000, 0.000000)" fill="url(#linearGradient-8)" fill-rule="nonzero">
                <path d="M102.635652,4.4505 C99.6334161,-2.15716667 90.4752795,0.731 89.0202484,6.98033333 C85.6888199,21.3136667 71.4874534,26.8176667 59.6562733,29.8133333 C45.9816149,33.2748333 31.753913,34.9375 19.652795,43.3655 C1.70521739,55.8713333 -2.1068323,78.131 1.83031056,99.0146667 C2.04868909,105.113176 3.39211933,111.101513 5.78062112,116.623167 C9.23714286,124.313 15.9987578,128.856667 22.8130435,128.2475 C25.9337888,129.293833 29.5154037,128.964167 33.4854658,126.592 C42.841118,120.973333 48.8653416,107.156 52.6115528,97.1656667 C56.7462112,86.1576667 61.3417391,74.906 68.7551553,66.005 C77.5511801,55.4413333 87.1043478,50.998 96.1637267,40.7568333 C104.959752,30.8668333 108.350435,17.0495 102.635652,4.4505 Z" id="Path"></path>
            </g>
            <path d="M180.370253,7.52387439 C177.566339,1.33602248 169.030124,4.04320769 167.674025,9.89445191 C164.562204,23.3157881 151.296021,28.4794932 140.283452,31.2797827 C127.534813,34.5241078 114.255528,36.0782327 102.941603,43.9706086 C86.2032832,55.6802589 82.6328784,76.5356116 86.3212048,96.1018286 C86.5348905,101.80877 87.7958653,107.410511 90.0291849,112.57412 C93.252376,119.778956 99.561183,124.033105 105.915848,123.460155 C108.824582,124.441331 112.165695,124.176342 115.867124,121.90603 C124.593324,116.642059 126.932103,103.700568 130.430444,94.3400096 C134.289102,84.0269231 138.573588,73.4918188 145.498208,65.1554072 C153.706863,55.2577088 165.885547,51.1038268 174.323494,41.5212506 C182.545252,32.2394727 185.702931,19.2908196 180.370253,7.52387439 Z" id="d00fa5cc-a731-4142-8ea9-b3c3212fb43d" fill="#263238" fill-rule="nonzero"></path>
            <path d="M116.809003,154.799304 C108.24511,174.496459 91.3544783,224.382504 111.459864,249.232107 C150.175248,275.705773 114.351825,249.109943 114.351825,249.109943 L152.487499,279.054505 C154.312179,280.484963 156.816368,280.272498 158.416348,278.551477 L172,263.91335 C172,263.91335 129.707544,242.390921 131.571837,229.046296 C133.436131,215.701671 139.0356,161.266812 139.0356,161.266812 C139.0356,161.266812 138.462477,147.383228 128.179218,147.002364 C123.811633,146.894572 118.679885,150.487632 116.809003,154.799304 Z" id="408e7116-a9b1-46e2-8d7c-02731267a18a" fill="#F8C198" fill-rule="nonzero"></path>
            <path d="M293.168009,147.821342 C296.081208,151.003521 298.163948,155.956776 296.278937,159.959698 C294.393925,163.96262 289.516623,164.999347 285.344553,164.999347 C280.796125,165.021628 276.260401,164.473274 271.826517,163.365061 C267.628083,162.313934 262.856236,159.945299 262.177369,155.301622 C259.580535,137.598054 286.247513,140.261868 293.168009,147.821342 Z" id="95055e69-9cf8-4727-b6e6-604bf17a6c9e" fill="#F8C198" fill-rule="nonzero"></path>
            <path d="M182.006118,410.121582 C178.042823,410.271916 173.980445,411.732301 171.377881,414.960896 C168.775318,418.189491 168.075135,423.372425 170.459718,426.794307 C172.084669,429.135217 174.746682,430.302093 177.309613,431.247048 C185.37869,434.213783 193.753175,436.096282 202.245346,436.852347 C208.487536,437.41073 216.031008,436.601791 218.983663,430.624237 C221.936318,424.646682 218.052288,416.986822 212.516886,413.944354 C205.138551,409.885344 190.243167,409.785121 182.006118,410.121582 Z" id="22e5ffa6-22c1-4fd4-9053-15aaed74771d" fill="#37474F" fill-rule="nonzero"></path>
            <path d="M138.82972,424.5608 C134.964047,423.56341 130.653357,423.789768 127.332332,426.109938 C124.011308,428.430108 122.018693,433.183627 123.493228,437.109524 C124.482893,439.804599 126.7744,441.679127 129.019413,443.313149 C136.091341,448.474169 143.731502,452.69098 151.768433,455.868946 C157.673215,458.19619 165.185373,459.59678 169.535916,454.74423 C173.886458,449.89168 172.033326,441.495211 167.423744,437.010492 C161.3197,431.012004 146.879884,426.633391 138.82972,424.5608 Z" id="1f797064-6c59-47bc-afa1-2a232eef37bf" fill="#37474F" fill-rule="nonzero"></path>
            <ellipse id="757ebdc3-d91a-4c9c-a19f-b15bec03743a" fill="#F8C198" fill-rule="nonzero" transform="translate(164.384052, 271.334364) rotate(-2.240000) translate(-164.384052, -271.334364) " cx="164.384052" cy="271.334364" rx="14.8067292" ry="9.38431138"></ellipse>
            <path d="M485.870641,86.6905912 C486.757576,74.2437824 483.057217,61.92397 475.583634,52.4414838 C468.110051,42.9589976 457.475469,37.0906292 446.019471,36.1274058 C422.164109,34.1232025 396.609028,56.0477547 394.790723,81.9377663 C393.302432,102.870575 404.750055,122.344694 422.855855,129.680751 C421.288578,133.523614 421.102896,137.864906 422.335399,141.849129 C420.082282,142.657968 420.253572,141.133342 418.184921,142.350179 C396.305977,131.749376 349.669106,113.854703 301.339104,136.294622 C294.177884,134.397787 286.687261,148.047843 287.010076,155.5135 C287.148425,158.67012 290.198696,165.534517 292.76804,167.00188 C299.356099,170.831339 308.045749,164.811572 310.338393,156.82339 C320.516945,154.990976 365.533153,145.886167 400.212696,167.925245 C399.500551,169.819178 398.914894,171.766385 398.460272,173.75175 C397.58406,177.588368 399.922821,181.625406 398.361451,185.469181 L406.333003,221.215578 C407.815316,233.255114 406.168301,243.362024 409.903731,252.280729 C408.941874,252.402413 407.452973,253.383041 406.392295,253.55483 C393.743222,253.95567 383.215503,254.320722 371.251588,258.644074 C355.616773,264.484395 342.644903,276.628146 335.017263,292.565215 C327.691341,308.212316 328.71249,328.970136 339.872662,341.668195 C342.095344,344.16015 344.593688,346.343234 347.310581,348.16754 C347.429166,349.255536 347.547751,350.314901 347.692689,351.46016 L362.390648,424.649368 C360.704105,427.133149 359.19544,429.488088 357.983237,431.456502 C355.730121,435.114173 354.412509,439.673735 355.348013,443.961299 C356.283518,448.248862 363.312977,455.864834 367.338281,455.757466 C370.111854,455.700204 372.608728,453.989473 374.855256,452.242953 C381.973064,446.743344 388.442605,440.315227 394.118741,433.102812 C395.64436,431.192428 396.986497,429.117822 398.124281,426.911255 L396.490443,432.064921 C393.907923,435.643855 391.608691,439.222789 389.902383,442.0072 C387.649267,445.664871 386.331655,450.224434 387.26716,454.511997 C388.202664,458.799561 395.258476,465.08417 399.310132,464.999146 C402.083705,464.941012 404.580579,463.230282 406.827107,461.483762 C413.944915,455.984153 420.414456,449.556036 426.090592,442.34362 C430.260834,437.046797 436.499726,422.108325 433.680036,415.859506 C431.637738,411.328575 426.696694,409.503318 421.979643,410.083105 C418.771259,401.701241 414.390199,397.914728 411.260871,384.021305 C427.467497,396.368629 443.384247,405.494911 462.647732,408.85911 C447.258026,393.033062 433.745917,374.608707 428.33712,352.311946 C426.011536,342.749033 425.11556,331.396653 431.216102,324.05268 C436.855481,317.26702 446.210525,316.536918 454.142548,313.487665 C468.636278,307.911686 479.579044,292.672583 481.015241,276.02338 C482.049567,264.026792 477.444513,253.726618 467.285726,253.017989 C472.16521,246.331169 475.094791,238.212993 475.698678,229.704811 L478.992707,183.643925 C480.359578,163.576275 468.825679,145.128961 451.151569,139.114823 C452.199179,135.889672 452.318665,132.394508 451.494148,129.093806 C470.35335,124.831258 484.35922,107.555094 485.870641,86.6905912 Z M393.809103,409.166898 C390.148065,407.873025 386.164609,408.204957 382.727987,410.090263 L382.629166,410.154684 C378.748799,400.133668 371.429466,379.218375 369.380579,358.668134 C371.910394,359.684551 374.427033,360.722442 376.877791,361.867701 C378.959617,362.841171 381.008504,363.907694 383.037626,365.031479 L393.809103,409.166898 Z" id="Shape" fill="url(#linearGradient-9)" fill-rule="nonzero"></path>
            <path d="M431,151.554202 C431,151.554202 364.926328,109.133891 301,140.646122 L307.046818,154.63413 C307.046818,154.63413 368.371301,141.73693 405.851034,169 L431,151.554202 Z" id="ca7c05dc-f404-4e8d-be4c-1e094d83bdb3" fill="#F8C198" fill-rule="nonzero"></path>
            <path d="M421,253.00412 C421,253.00412 335.61777,250.791206 348.281202,348.935378 L367.699788,431 L384.835779,412.104014 C384.835779,412.104014 355.565653,345.853105 376.492735,317.099593 C397.419817,288.346081 417.830834,297.492313 417.830834,297.492313 L421,253.00412 Z" id="12ac308f-d213-4b28-bd2d-66bb7ba00bd3" fill="#F8C198" fill-rule="nonzero"></path>
            <path d="M289.009827,158.211715 C289.141136,161.335887 290.539575,164.518319 293.027879,165.989374 C302.751301,171.727947 312.72421,151.519142 307.616295,143.297253 C299.770589,130.640351 288.622466,149.086802 289.009827,158.211715 Z" id="34d073ed-93e0-40d2-bf9d-1e0ec7d9c259" fill="#F8C198" fill-rule="nonzero"></path>
            <path d="M361.824632,430.161472 C359.668427,433.729327 358.405785,438.132061 359.279922,442.292181 C360.154059,446.4523 363.559956,450.077241 367.438534,449.998748 C370.086845,449.941663 372.469678,448.286178 374.632358,446.587879 C381.440437,441.257394 387.62937,435.026567 393.060461,428.03503 C397.049116,422.890182 400.778767,415.811557 398.08513,409.731931 C395.391493,403.652305 387.543685,402.59622 382.143461,405.678847 C374.930212,409.774745 366.318344,422.768875 361.824632,430.161472 Z" id="77e53b18-8135-4b7c-bf2d-9edc79e31a86" fill="#FFFFFF" fill-rule="nonzero"></path>
            <path d="M463,245.005783 C463,245.005783 364.734977,242.329147 379.514407,352.149909 L401.997656,444 L421.670498,422.901818 C421.670498,422.901818 387.879498,348.728969 411.903511,316.602192 C435.927523,284.475414 459.442357,294.738234 459.442357,294.738234 L463,245.005783 Z" id="a69cafd2-284f-43ab-88bc-2406ede4d0f3" fill="#F8C198" fill-rule="nonzero"></path>
            <path d="M431.10348,268.883393 L431.10348,268.883393 C452.409416,270.593191 470.988464,253.299905 472.691038,230.173902 L475.89262,185.278062 C477.467125,162.141361 461.542226,141.965861 440.246142,140.116989 L440.246142,140.116989 C421.386977,138.597046 404.255804,152.032867 399.655366,171.951961 C398.816356,175.699779 398.782477,179.606951 399.556348,183.371261 L407.332561,221.937383 C405.728469,244.991035 409.86082,267.091287 431.10348,268.883393 Z" id="7b46ea1d-b94b-4df1-9c01-ec19cbf90a19" fill="#FFFFFF" fill-rule="nonzero"></path>
            <ellipse id="151ca525-7bbb-4991-bd6d-1177d2357218" fill="#F5B89C" fill-rule="nonzero" transform="translate(436.958642, 136.545282) rotate(-85.570000) translate(-436.958642, -136.545282) " cx="436.958642" cy="136.545282" rx="15.0624218" ry="12.5239389"></ellipse>
            <path d="M417.694716,254.270208 C402.05091,254.205689 386.158062,255.030093 371.313814,260.435315 C356.469566,265.840538 342.621488,276.357065 335.530328,291.612122 C328.439169,306.86718 329.428785,327.104504 340.229368,339.477732 C349.535696,350.137634 363.672139,353.284706 376.052176,359.105715 C404.403707,372.432384 426.404652,401.63779 456.873045,407 C441.90206,391.448888 431.166848,371.661232 425.860691,349.836547 C423.612754,340.517198 422.741105,329.448679 428.646036,322.294286 C434.105311,315.677549 443.162596,314.967844 450.843593,311.992822 C464.888284,306.558924 475.472593,291.698147 476.861988,275.475311 C477.98268,262.399547 472.274362,251.388378 459.874663,253.194898 C445.902064,255.237986 431.778729,254.327558 417.694716,254.270208 Z" id="a5a77078-24df-4f4d-8a14-08c4c7dce91f" fill="#E0BE36" fill-rule="nonzero"></path>
            <path d="M459.631301,162.252885 C459.631301,162.252885 480.387964,235.31891 456.522432,247.446141 L419.282148,279 L406,261.173043 C406,261.173043 445.495868,237.516656 449.841671,221.50554 C454.187473,205.494425 439.641934,169.732425 439.641934,169.732425 C439.641934,169.732425 450.344381,151.847821 459.631301,162.252885 Z" id="19d16f3e-009b-494e-97c8-cb0e9a426660" fill="#F8C198" fill-rule="nonzero"></path>
            <ellipse id="8c292999-a151-4648-b572-b2157f0a066c" fill="#F8C198" fill-rule="nonzero" transform="translate(408.395137, 269.703280) rotate(-85.426079) translate(-408.395137, -269.703280) " cx="408.395137" cy="269.70328" rx="8.98754402" ry="14.748328"></ellipse>
            <path d="M392.824632,439.161472 C390.668427,442.729327 389.405785,447.132061 390.279922,451.292181 C391.154059,455.4523 394.559956,459.077241 398.438534,458.998748 C401.086845,458.941663 403.469678,457.286178 405.632358,455.587879 C412.440437,450.257394 418.62937,444.026567 424.060461,437.03503 C428.049116,431.890182 431.778767,424.811557 429.08513,418.731931 C426.391493,412.652305 418.543685,411.59622 413.143461,414.678847 C405.930212,418.76761 397.318344,431.768875 392.824632,439.161472 Z" id="1eb018fb-882d-4f3a-a894-42ca86384b42" fill="#FFFFFF" fill-rule="nonzero"></path>
            <ellipse id="2fa24866-a44f-4a1f-8078-b896818e272e" fill="#F8C198" fill-rule="nonzero" transform="translate(440.418621, 87.169114) rotate(-85.570000) translate(-440.418621, -87.169114) " cx="440.418621" cy="87.1691138" rx="45.8028107" ry="42.1036274"></ellipse>
            <g id="51f5ebe0-1999-43c0-a732-f2d97e0dabf6" transform="translate(403.000000, 19.000000)" fill="url(#linearGradient-10)" fill-rule="nonzero">
                <path d="M161.005811,92.1591549 C155.864604,86.6640845 149.843547,82.1890141 144.83366,76.5933803 C139.666189,70.8469014 136.297811,63.9798592 133.441585,56.61 C127.873585,42.2007042 124.045585,26.5846479 114.098038,14.8043662 C101.826113,0.265774648 85.5095094,-0.818873239 68.5363019,1.70239437 C53.5295466,3.96289698 38.6643361,7.23261076 24.0251321,11.4929577 C23.6114717,11.3061972 23.2109434,11.1122535 22.790717,10.9326761 C14.5700377,7.54943662 4.89826415,12.6853521 1.95667925,21.6426761 C1.14529969,24.1286219 0.864552628,26.784691 1.13592453,29.4076056 C-0.0262641509,31.8498592 0.0262641509,34.8739437 2.32437736,37.5316901 C13.2371321,50.1523944 22.0224906,62.0188732 25.7716981,79.193662 C29.2582642,95.1904225 34.0317736,108.199014 46.7830189,117.982394 C59.5342642,127.765775 74.6230189,135.487606 88.9501132,141.938028 C104.445962,148.912817 121.058038,153.430986 137.906491,152.07338 C150.237509,151.060563 163.980226,146.111408 170.375547,133.591268 C177.696679,119.203521 170.90083,102.725493 161.005811,92.1591549 Z" id="Path"></path>
            </g>
            <path d="M561.917922,110.099469 C556.928945,104.817343 551.110666,100.505986 546.220415,95.1096513 C541.205111,89.5848328 537.927392,82.975037 535.163051,75.8798567 C529.759423,62.0392583 526.040726,46.9994746 516.385279,35.6286272 C504.472286,21.6381307 488.62998,20.5959815 472.155824,23.0229043 C457.587987,25.1983398 443.157561,28.3450235 428.946543,32.4450754 C428.545056,32.2666252 428.156732,32.073899 427.748662,31.9097248 C419.764982,28.654793 410.379387,33.5942948 407.522901,42.2098709 C406.735259,44.6025388 406.462843,47.158932 406.726508,49.6833658 C405.594444,52.0389085 405.647098,54.944078 407.878317,57.535175 C418.474957,69.6697893 427.004923,81.0906028 430.644638,97.6436443 C434.027665,113.040328 438.661227,125.560395 451.048107,134.961152 C463.434987,144.361909 478.07283,151.806852 491.980097,158.009782 C507.019428,164.719509 523.14475,169.095109 539.500434,167.760301 C551.466081,166.782394 564.813898,162.049894 571.020502,149.972384 C578.115643,136.124648 571.520716,120.271131 561.917922,110.099469 Z" id="f5bb29f6-add4-4074-96f2-ee2c4929409b" fill="#FF6347" fill-rule="nonzero"></path>
        </g>
    </g>
</svg>