<?xml version="1.0" encoding="utf-8"?>
<!-- Generator: Adobe Illustrator 25.4.1, SVG Export Plug-In . SVG Version: 6.00 Build 0)  -->
<svg version="1.1" id="Warstwa_2" xmlns="http://www.w3.org/2000/svg" xmlns:xlink="http://www.w3.org/1999/xlink" x="0px" y="0px"
	 viewBox="0 0 267 321" style="enable-background:new 0 0 267 321;" xml:space="preserve">
<style type="text/css">
	.st0{fill:none;}
	.st1{fill:#D89A82;}
	.st2{fill:#63453F;}
	.st3{fill:#AA796E;}
	.st4{fill:#A9786D;}
	.st5{fill:#0C0C0C;}
	.st6{fill:#D6977F;}
	.st7{fill:#B78679;}
	.st8{fill:#B75656;}
	.st9{fill:#A04B4B;}
	.st10{fill:#B77862;}
	.st11{fill:#211F1F;}
	.st12{fill:#CE4278;}
	.st13{fill:#BC2E64;}
	.st14{fill:#AD6E60;}
	.st15{fill:#D48571;}
	.st16{fill:#963A1E;}
	.st17{fill:#C18776;}
	.st18{fill:#DE9C82;}
	.st19{fill:#B24444;}
	.st20{fill:#C95555;}
	.st21{fill:#A54A35;}
	.st22{fill:#7F2D1D;}
	.st23{fill:#352A27;}
	.st24{fill:#E08C77;}
	.st25{fill:#5A9180;}
</style>
<g>
	<path class="st0" d="M246.4,129.4v80.8c0,22.6-5.4,43.6-14.7,61.1c-6.1,11.5-13.9,21.5-22.9,29.5c-1,0.9-2.1,1.8-3.1,2.7h0
		c-5.4,4.4-11.2,8.1-17.4,11c-1.6,0.8-3.3,1.5-5,2.2c-2.3,0.9-4.7,1.7-7.2,2.4c-0.4,0.1-0.8,0.2-1.2,0.3h0c-1.9,0.5-3.9,1-5.9,1.3h0
		c-0.1,0-0.3,0-0.4,0.1c-18.1,0-36.3,0-54.4,0c-1,0-2.1,0-3.1,0c-3,0-5.9,0-8.9,0h-3.6l0,0h-13l0,0h0h0h0h0h0c0,0-0.1,0-0.1,0
		c-0.7-0.1-1.5-0.3-2.2-0.4l0,0c-0.2,0-0.4-0.1-0.7-0.1c-9.2-2-17.9-5.7-25.9-10.8c-1.6-1-3.2-2.1-4.8-3.3c-0.1-0.1-0.1-0.1-0.2-0.2
		c-13.1-9.7-24.1-23.5-31.8-39.9c-7.7-16.5-12.2-35.6-12.2-56.1v-80.8c0-61.7,40.5-111.8,90.5-111.8h57.7
		C205.9,17.7,246.4,67.7,246.4,129.4"/>
	<path class="st1" d="M211.5,203l-24.3-30.1l-17.3-4.1l-25.3,18.4c0,0,18.2,19.1,20.9,24.1c2.7,5.1,7.2,9.1,7.3,17
		c0.1,7.9,11.4,22.9,22,4.2C205.5,213.9,211.5,203,211.5,203"/>
	<path class="st2" d="M213,148.6c0.2-0.2,2.2-3.2,3.8-2.5c1,0.4,1.4,2.3,1.5,2.9c1.6,8.5-8.9,22-11.5,25.3c-1.4,1.8-2.6,3.9-4,5.7
		c-0.5,0.6-1.4,1.7-2.1,3.4c-0.4,1.1-0.7,2.1-0.8,2.8c1,1.9,2,4.1,1.6,4.5c-0.6,0.7-4.6-3.3-5.4-4.2c-4.1-4.2-6.4-6.6-7.1-10.5
		c-0.6-3.3,0.2-6,1.1-9.1c1.8-6.2,5-10.6,7.7-13.4L213,148.6z"/>
	<path class="st3" d="M164.7,210.1c2.2,3.8,5.4,9.2,7,12.1c-1.5-4.2-4.3-7.3-6.2-10.8C165.3,211,165,210.6,164.7,210.1 M153.4,196.7
		c-0.1,0.1-0.1,0.2-0.1,0.2s1.4,1.4,3.1,3.1C155.3,198.9,154.3,197.8,153.4,196.7C153.4,196.7,153.4,196.7,153.4,196.7"/>
	<path class="st4" d="M186.1,179.3c-1.2,2.9-2.8,6.7-5.4,9.8c-0.9,1.1-1.9,2.2-3.1,3.1c-1.3,1-3.1,2.2-12,3.7c0,0-5.1,0.9-12,0.9
		c-0.1,0-0.1,0-0.2,0c1,1.1,2,2.2,2.9,3.3c2.4,2.4,5.4,5.5,6,6.2c0.3,0.3,1.2,1.9,2.4,3.9c0.3,0.5,0.6,0.9,0.8,1.3
		c1.9,3.5,4.7,6.6,6.2,10.8c0.7,1.2,1.1,2,1.1,2s-1.3-5.4-1.8-7.3c-0.5-1.9-2.8-4.5-3.7-8c-0.9-3.4-1.6-4.1-1.4-7.2
		c0.3-3.1,6.7-3.1,9.2-4.5c2.5-1.4,7-4.7,8.7-8.9c1.8-4.2,2.2-5.6,2.2-8.8C186.1,179.4,186.1,179.3,186.1,179.3"/>
	<path class="st5" d="M158.8,137.6c-1.9-0.1-4.6-0.4-7.6-1.6c-2-0.8-3.7-1.8-5-2.7c-0.1,0-0.3,0.2-0.4,0.5c-0.2,0.4,0,0.8,0.1,0.9
		c0.4,0.5,1,1.1,1.8,1.8c2.4,1.9,4.7,2.1,5.8,2.2c0.5,0,1.5,0.1,2.8-0.1C157.2,138.2,158.1,137.9,158.8,137.6z"/>
	<path class="st6" d="M204.6,148.6c0.8,2.1,1.9,1.8,3.4,3.9c0.2,0.3,1.8,2.5,2,5.5c0.2,2.5-0.5,4.3-1.6,6.9
		c-2.8,6.6-6.9,9.7-7.8,10.3c-2,1.4-3.5,1.9-4.4,2.2c-1.4,0.3-3.2,0.8-4.9-0.2c-1.5-0.9-1.4-2-2.2-2.2c-2.5-0.6-3.7,10.3-10.3,16
		c-3.2,2.8-6.7,3.5-10.8,4.4c-2.4,0.5-4.8,0.7-9.5,1c-3.9,0.3-5.9,0.4-8,0.3c-6.3-0.3-10.8-0.5-13.1-4.4c-1-1.6-1.6-4.1-1.4-6.3
		c0.2-1.8,0.9-3.9,2-6.9c0.4-1.3,1.1-2.4,0.7-3.6c-0.3-0.9-0.8-1-1-2c-0.3-1.2,0.1-2.4,0.3-3c0.4-1.1,0.9-1.7,1.3-2.1
		c0-0.2-0.1-0.4-0.2-0.7c-0.3-1.1-0.6-1.6-0.8-2.1c-0.3-0.9-0.1-1.9,0-2.7c0.6-2.8,2.9-3.6,2.6-4.9c-0.1-0.4-0.4-0.5-1.4-1.3
		c-1.5-1.1-2.7-2-3.2-3.2c-0.8-1.7-0.3-3.8-0.2-4.3c0.4-1.8,1.3-2.6,4.6-6c3.1-3.2,0.9-1,4.1-4.4c1.9-2,3.6-3.7,3.8-6.4
		c0-0.1,0-0.3,0-0.5c0-2.7-3.1-4.4-2.3-7c0.2-0.8,0.2-1.9,1.4-4.3c1.2-2.4,2.2-3.9,2.6-5.5c0.7-2.5,0.8-2.8,1.6-5.1
		c1.2-3.2,2.8-5.3,3.6-6.4c3.2-4.2,6.7-6.1,8-6.7c7.6-3.8,14.8-1.4,18.6-0.2c7.1,2.4,11.6,6.9,14.6,9.9c3.8,3.7,7.4,7.4,9.6,14
		c0.7,2.1,2.1,6.8,1.4,12.8c-0.7,5.3-2.7,9-3.8,10.8C203.6,146.2,204.4,148.1,204.6,148.6"/>
	<path class="st7" d="M190,162.5c-0.4,2-1,5-1.9,8.5c-1.3,5.4-2,8.1-3.2,10.8c-0.7,1.6-3,6.9-7.4,10.4c-1.3,1-3.1,2.2-12,3.7
		c0,0-10.7,1.8-22.1,0.2c-1.3-0.2-3.7-0.6-5.5-2.9c-0.5-0.6-1.5-2-1.9-4.1c-0.7-4,1.1-8,1.4-8.7c0.8-1.8,1.6-2.7,1.3-4.1
		c-0.2-1-0.8-1.3-1-2.7c0-0.3-0.3-1.6,0.1-2.4c1-1.9,6.2-0.1,10,2.1c3.1,1.8,3.1,2.6,5,3.7c6.7,3.8,14.9-1.3,18.9-3.8
		c5.5-3.4,9.1-10,9.9-11.9c0.6-1.5,0.9-2.1,1.4-2.3c0.6-0.2,1,0.4,1.6,0.7c0.8,0.4,2.2,0.3,4.7-2.2
		C189.6,159.2,189.8,160.8,190,162.5"/>
	<path class="st2" d="M153,177c0.1-1.9,0-4.3-0.6-6.8c-1-4.4-2.9-7.2-3.4-7.8c-1.1-1.5-2-2.3-2.3-2.5c-0.9-0.7-1.6-1.3-2.8-1.6
		c-1.2-0.3-1.7,0-2.7-0.5c-0.9-0.5-0.9-1-1.5-1.1c-1.2-0.2-2.7,1.8-3.2,3.8c-0.4,1.3-0.3,2.3-0.1,4.1c0.3,3.3,1.3,6.4,1.6,6.4
		c0,0,0,0,0.1-0.4c0.3-1.1,0.4-1.1,0.6-2c0-0.1,0-0.2,0.1-0.2c0.3-0.5,2.2,1.1,3.1,1.8c1.3,1,3.2,2.2,6.1,3.1
		c0.8,0.9,1.9,1.8,3.2,2.7C151.7,176.4,152.4,176.8,153,177z"/>
	<path class="st8" d="M147.2,172.7c-0.7-0.7-2.7-2.4-4.7-3.8c-0.3-0.2-1-0.7-1.9-0.8c-0.6-0.1-1.3-0.2-1.9,0.3
		c-0.9,0.7-0.9,2.2-0.9,2.5c0,0.3,0,1.1,0.4,1.7c0.6,1,1.7,1.1,4.6,1.4c0.8,0.1,1.8,0.1,2.9-0.1c0.8-0.1,1.6-0.4,2.2-0.6
		C147.7,173.1,147.4,172.9,147.2,172.7z"/>
	<path class="st9" d="M147.9,173.3c-1.1-2.1-2.2-3.6-3-4.6c-0.3-0.3-1.8-2.2-4.2-3.6c-0.8-0.5-1.5-0.7-1.9-0.4
		c-0.6,0.5-0.4,1.8-0.4,2c0.1,0.7,0.3,1.2,0.5,1.5c1.9,0.4,3.3,1.1,4.2,1.6c1.6,0.9,3.1,2.1,3.5,2.4c0,0,0.3,0.2,0.6,0.5
		C147.5,173,147.8,173.2,147.9,173.3z"/>
	<path class="st10" d="M140.5,155.8c-0.1,0.4,0.1,0.9,0.4,1.1l1.3,0.6c0.8,0.3,1.6,0.2,1.9,0.4c0.1,0,0.2,0.1,0.3,0.1
		c0.2,0.2,0.4,0.4,0.6,0.5c0.1,0.1,0.5,0.4,1.2,0.7c0.4,0.2,0.7,0.3,1.2,0.3c0.4,0,0.8,0,1.3-0.3c0.5-0.3,0.7-0.8,0.9-1.2
		c0.1-0.1,0.3-0.6,0.4-1.4c0.1-0.8,0-1.4,0-1.8c-0.1-0.9-0.4-1.6-0.7-2.1c0.2,0.8,0.3,1.4,0.3,1.8c0,0.5,0,1.2-0.3,1.9
		c-0.1,0.3-0.3,0.8-0.7,1.2c-0.6,0.6-1.3,0.6-1.8,0.6c-0.8,0-1.5-0.3-2-0.6c-0.1,0-0.2-0.1-0.3-0.1l-0.8-0.8
		c-0.6-0.5-2.1-1.4-2.5-1.3C140.9,155.6,140.6,155.4,140.5,155.8z"/>
	<path class="st2" d="M173.5,139.5c0-0.1,0.1-0.2-0.9-1.9c-0.9-1.6-1.6-2.8-2.8-4.6c-1.2-1.7-2-2.7-3.2-3.8
		c-1.4-1.2-2.5-1.9-3.5-2.4c-3-1.6-5.2-1.9-6.5-1.9c-1.9-0.1-2.4,0.4-2.5,0.7c-0.4,0.7,0.4,4.4,0.4,4.4c0.8,0,1.9,0,3.2,0.3
		c2.1,0.4,3.7,1.1,5.1,1.8c2.5,1.2,4.4,2.5,5.4,3.2C171.4,137.6,173.3,139.9,173.5,139.5z"/>
	<path class="st2" d="M148.3,129.7c-0.3-0.8-0.5-1.6-0.7-2.5c-0.3-1.4-0.6-2.7-0.7-3.9c-0.3,0.4-0.6,1.1-0.8,2.1
		c-0.1,0.4-0.2,1.5,0.1,2.7c0.1,0.4,0.3,1.1,0.9,1.7c0.4,0.4,1,0.7,1.1,0.7c0.1,0.1,0.2,0.1,0.3,0.1
		C148.4,130.4,148.4,130,148.3,129.7z"/>
	<path class="st11" d="M168,142.7c-1.9-0.1-4.6-0.4-7.6-1.6c-2-0.8-3.7-1.8-5-2.7c-0.1,0-0.3,0.2-0.4,0.5c-0.2,0.4,0,0.8,0.1,0.9
		c0.4,0.5,1,1.1,1.8,1.8c2.4,1.9,4.7,2.1,5.8,2.2c0.5,0,1.5,0.1,2.8-0.1C166.4,143.3,167.3,143,168,142.7z"/>
	<path class="st2" d="M196.1,186.5c1.5-1.5,3.6-3.8,6-6.6c6.8-8.1,13.3-15.8,16.8-27.4c1.3-4.4,1.9-8.3,2.5-12.4
		c1.1-7.4,1.6-11.2,1.2-15.6c-1.3-13.1-10.3-21.7-11.9-23.2c-4.5-4.2-8.5-5.7-14.9-8.2c-6-2.3-13-4.8-21.8-3.5
		c-4.4,0.7-9.5,1.5-13.8,6.2c-3.8,4.2-6.3,10.8-6.3,10.8c0,0,0.2-0.4,0.7-1c0.3-0.4,0.5-0.8,0.9-1.2c0.4-0.5,1-1.2,1.6-2
		c1.3-1.4,2.7-2.6,3.4-3.2c0.6-0.6,1.5-1.4,2.5-1.1c0.9,0.2,1.2,1.2,2,2c1.4,1.4,3.3,0.7,4.9,0.6c3-0.4,5.3,0.7,7.9,1.9
		c1,0.5,6.6,3,9.4,9.4c0.9,2,1.1,3.6,1.7,7.5c1.6,11.4,2.8,17.1,2.4,19.8c-0.7,4.5-2.7,9.3-3.8,11.4c-0.7,1.3-1.2,2.2-1.2,2.2
		c-0.8,1.6-1.6,3.1-2.4,4.7c-0.9,1.7-1.2,2-1.1,2.4c0.1,0.3,0.4,1,3.8,1.8c1.5,0.4,2.8,0.6,3.6,0.7c0.3-1.2,0.8-3.1,1.9-4.9
		c0.8-1.3,1.6-2.1,2.5-2.9c1.5-1.5,3.1-3,5.4-3.7c0.8-0.2,2.2-0.6,3.8-0.1c0.7,0.2,1.8,0.7,2.9,1.9c0.5,0.5,1.5,1.6,1.9,3.5
		c0.4,1.8,0.1,3.4-0.3,5c-0.5,2-1.2,3.4-2.2,5.3c-1.8,3.4-3.6,5.5-4.3,6.3c-0.6,0.7-1.5,1.7-2.8,2.8c-2,1.7-2.7,1.7-3.3,2.6
		C194.7,179.4,194.4,181.6,196.1,186.5z"/>
	<path class="st12" d="M171.6,86.1c0,0,0.6,0.4,6.9-0.2c7.3-0.7,14.9,0.3,23,4c4.4,2,10,4.6,14.7,11.5c4.6,6.7,5.9,13.8,6.4,17.1
		c0.9,5,0.8,9,0.8,10c-0.1,3.1-2,15.8-3.6,16.4c-1.5,0.6-3.2-2.9-5.7-6c-2.3-2.7-5.9-5.9-11.7-7.8l-37.1-36.3l5.5-8.7L171.6,86.1z"
		/>
	<path class="st13" d="M213.4,168.2c0.8-0.7,2.2-1.9,3.2-4.1c0.3-0.7,0.6-1.6,0.8-2.6c0.6-3.5,2.4-7.2,3-8.5
		c0.6-1.3,3.1-6.4,1.3-10.3c-1.8-3.9-15.1-22.8-18.7-27.5c-3.7-4.7-16.4-19.3-20.9-23.1c-4.5-3.7-12.2-7.7-13.7-8
		c-2.2-0.3-4,2.1-7.7,5.5c-4,3.8-7.7,7.3-9.4,13.5c-0.8,3-0.9,5.7-0.9,7.4c0.1,0.4,0.2,0.8,0.4,1.3c0.1,0.4,0.2,0.8,0.4,1.3
		c0.7-2.2,1.5-3.6,2.1-4.4c0.4-0.5,0.7-0.7,0.8-0.8c0.7-0.5,1.9-0.6,4.2,0.5c3.3,1.7,8.9,4.7,13.5,9.4c4.6,4.7,12.4,12.5,13.4,13.6
		c0.9,1.1,9.5,10.6,10.9,11.6c1.3,1,6.9,7.3,6.9,7.3c0.1,0.1,0.3,0.2,0.5,0.4c0.7,0.5,0.9,0.3,1.4,0.6c0.2,0.1,0.1,0.1,1.5,1.4
		c0.3,0.3,0.3,0.3,0.3,0.3c0.2,0.2,0.8,0.9,1.4,2.6c0.2,0.7,0.3,1.2,0.4,1.3c0.8,3.5,4.4,6.9,3.7,9.2c-0.1,0.2-0.8,1.4-2.1,3.7
		c0,0-0.1,0.1-0.1,0.2C210.1,170.3,211.9,169.4,213.4,168.2z"/>
	<path class="st14" d="M203.3,163.5c0.2-0.3,0.4-0.7,0.6-1.1c0.1-0.4,0.2-0.8,0.2-1.3c0-0.1,0-0.2,0-0.3l0-0.2c0-0.1,0-0.1,0-0.2
		l0-0.2c0-0.1,0-0.1,0-0.2c0-0.1-0.1-0.2-0.1-0.3c-0.1-0.4-0.4-0.7-0.6-1c-0.5-0.5-1.2-0.9-1.8-1.1c-0.7-0.2-1.4-0.1-2,0.1
		c-0.3,0.1-0.6,0.3-0.9,0.5c-0.3,0.2-0.6,0.5-0.8,0.7c-0.5,0.6-1,1.2-1.4,1.9c-0.8,1.4-1.2,3.1-1.2,4.8l-0.1-0.2
		c0.3,0.2,0.6,0.4,0.9,0.7c0.3,0.3,0.5,0.7,0.6,1c0,0.1,0.1,0.2,0.1,0.3c0,0.1,0.1,0.2,0.1,0.3c0,0.2,0.1,0.4,0.1,0.6
		c0,0.4-0.1,0.9-0.2,1.3c-0.2,0.4-0.4,0.7-0.7,1c-0.3,0.3-0.6,0.5-0.9,0.6c-0.3,0.2-0.6,0.3-1,0.3c-0.3,0.1-0.7,0.1-1,0.1
		c0.7,0,1.3-0.2,1.9-0.6c0.3-0.2,0.6-0.4,0.8-0.6c0.2-0.3,0.4-0.6,0.5-0.9c0.1-0.3,0.2-0.7,0.1-1.1c0-0.2,0-0.4-0.1-0.6
		c0-0.1,0-0.2-0.1-0.3c0-0.1-0.1-0.2-0.1-0.3c-0.3-0.7-0.8-1.2-1.3-1.5l-0.1-0.1l0-0.2c0-0.9,0.1-1.8,0.3-2.7
		c0.2-0.9,0.5-1.7,0.9-2.5c0.4-0.8,0.9-1.4,1.5-2c0.3-0.3,0.6-0.6,0.9-0.8c0.3-0.2,0.7-0.4,1-0.6c0.7-0.3,1.5-0.3,2.2-0.1
		c0.4,0.1,0.7,0.3,1,0.5c0.3,0.2,0.6,0.5,0.9,0.8c0.3,0.3,0.5,0.7,0.6,1.1c0,0.1,0.1,0.2,0.1,0.3c0,0.1,0,0.1,0,0.2l0,0.2
		c0,0.1,0,0.1,0,0.2l0,0.2c0,0.1,0,0.2,0,0.3c0,0.5-0.1,0.9-0.3,1.3C203.8,162.8,203.5,163.2,203.3,163.5z"/>
	<path class="st15" d="M166.6,155.7c-3.3,0-6.4,2.7-7.4,6.8c-1.2,5,1.1,10.3,5.2,11.8c0.7,0.3,1.4,0.4,2.2,0.4
		c3.3,0,6.4-2.7,7.4-6.8c1.2-5-1.1-10.3-5.2-11.8C168,155.8,167.3,155.7,166.6,155.7"/>
	<path class="st1" d="M48.5,205L72.9,175l17.3-4.1l25.3,18.4c0,0-18.2,19.1-20.9,24.1c-2.7,5.1-7.2,9.1-7.3,17
		c-0.1,7.9,6.7,18.1,7.1,21c0.4,2.8,8.3,8.9-3.1,5.2c-11.4-3.7-15.4-3.3-26.1-21.9C54.5,215.9,48.5,205,48.5,205"/>
	<path class="st16" d="M50.3,148.2c-3.2-5.4-7-11.3-8.6-10.3c-1.5,0.9-0.1,8.1,0.3,10c0.6,3.2,3.2,16.2,10.6,24.6
		c0.9,1,3.8,4.1,5.1,8.4c0.7,2.6,0.9,4.4,0.9,4.4c0.3,3.1-0.3,4.4,0.3,5c0.4,0.5,1.4,0.4,5.7-2.8c3.7-2.8,5.6-4.2,6.5-5.6
		c2.9-4.6,2.2-10.6,1.9-12.8c-0.9-8-5.3-12.9-6.8-14.3L50.3,148.2z"/>
	<path class="st17" d="M72.9,175c0,0,1.6,3.5,1.6,6.7c0,3.1,0.4,4.5,2.2,8.8c1.8,4.2,6.2,7.5,8.7,8.9c2.5,1.4,9,1.4,9.2,4.5
		c0.3,3.1-0.5,3.8-1.4,7.2c-0.9,3.4-3.2,6.1-3.7,8c-0.5,1.9-1.8,7.3-1.8,7.3s9.6-16.8,10.6-18c1-1.2,9-9.3,9-9.3s-5.9-9.4-8-9.7
		c-2.2-0.3-17.3-8.6-20.6-11.1c-3.3-2.5-5.4-4.9-5.4-4.9L72.9,175z"/>
	<path class="st5" d="M104.1,138.9c2,0.1,4.7,0,7.8-0.9c2.1-0.6,3.9-1.4,5.3-2.2c0.1,0,0.3,0.2,0.4,0.5c0.1,0.4-0.1,0.8-0.1,0.9
		c-0.4,0.4-1,1.1-1.9,1.6c-2.5,1.7-4.9,1.6-6,1.6c-0.5,0-1.5-0.1-2.8-0.4C105.6,139.7,104.7,139.3,104.1,138.9z"/>
	<path class="st18" d="M58.3,145.2c-1,2-2.1,1.7-3.7,3.6c-0.2,0.3-1.9,2.4-2.4,5.4c-0.4,2.5,0.3,4.4,1.2,7.1
		c2.4,7,6.4,10.5,7.2,11.2c1,0.8,2.1,1.4,4.3,2.6c2.1,1.2,3.1,1.5,4.2,1.3c0.4-0.1,1.3-0.3,2.1-1.1c0.8-0.9,0.7-1.8,1-1.9
		c1.2-0.5,3.1,10.7,9.4,17.2c3.1,3.1,6.6,4.3,10.6,5.6c2.4,0.8,4.8,1.2,9.5,2c4.2,0.7,6.3,1.1,8.1,1.1c4.6,0.1,10,0.3,13.2-4.1
		c0.6-0.8,2-2.7,2.1-5.2c0.1-1.6-0.3-3.3-1.1-6.7c-0.4-1.5-0.6-2.2-0.5-3.3c0-0.5,0.1-0.6,0.5-3.5c0.2-1.4,0.3-1.8,0.2-2.3
		c-0.2-1.1-0.8-1.8-1.2-2.3c0-0.2,0.1-0.4,0.2-0.7c0.4-1.1,0.7-1.5,1-2.1c0.4-0.9,0.3-1.9,0.1-2.7c-0.4-2.9-2.7-3.9-2.4-5.2
		c0-0.1,0.1-0.2,0.1-0.2c0-0.2,0.1-0.6,0.3-1c0.3-0.7,0.7-1,1-1.2c0.7-0.6,1.7-1.4,2.1-1.8c0.9-0.9,1.4-2.2,1.5-2.9
		c0.3-1.9-1.2-3.3-4.5-7.6c-2.9-3.8-5-7-5.8-10.6c-0.2-0.8-0.3-1.4-0.3-2.1c0.2-2.9,2.5-3.9,2.4-6.6c0-0.6-0.2-1.2-0.3-1.7
		c-0.1-0.7-0.4-1.6-0.9-2.8c-1.1-2.5-2-4.2-2.3-5.8c-0.6-2.6-0.6-2.9-1.3-5.3c-1-3.4-2.4-5.6-3.2-6.9c-3-4.6-6.4-6.8-7.7-7.6
		c-7.4-4.6-14.9-2.9-18.8-2c-7.4,1.7-12.2,5.9-15.5,8.6c-4.1,3.4-8,6.8-10.6,13.3c-0.8,2.1-2.6,6.6-2.2,12.8
		c0.3,5.4,2.1,9.4,3.1,11.3h0C59.4,142.9,58.5,144.7,58.3,145.2"/>
	<path class="st16" d="M101,173.3c2.4,2.2,3.8,2.1,4.7,1.8c2.8-1.2,4.1-8,6.4-11.1c0.7-1,1.6-1.8,1.6-1.8c0.1-0.1,0.3-0.3,0.6-0.6
		c0.1-0.1,0.8-0.7,1.2-1c0.2-0.2,0.4-0.2,0.6-0.3c0.5-0.1,0.8-0.1,1-0.1c1,0.1,2.8-0.5,3.3-0.7c1.2-0.4,1.7-0.8,3-1
		c0.5-0.1,0.7,0,0.7,0c1.4,0.4,1.8,3.4,1.9,4.3c0.1,0.4,0.3,2-0.1,4.7c-0.5,3.8-1.6,7.2-1.9,7c0,0,0,0-0.1-0.5
		c-0.2-1.3-0.3-1.3-0.5-2.4c0-0.2,0-0.2-0.1-0.2c-0.1-0.1-2.4,1.2-3.2,1.6c-1,0.5-2.6,0.8-4.8-0.1c-0.4,1-1.4,2.9-3.2,4.3
		c-1.4,1.1-2.6,1.4-2.8,1.4c-0.6,0.1-2.6,0.6-4.7-0.7C102.2,176.6,101.3,174,101,173.3z"/>
	<path class="st19" d="M114.4,175.5c0.9-0.6,3.2-2.3,5.5-3.6c0.3-0.2,1.1-0.6,2.2-0.7c0.7-0.1,1.4-0.1,2,0.4
		c0.9,0.8,0.8,2.3,0.8,2.6c0,0.3-0.1,1.1-0.6,1.7c-0.7,1-2,1-5.2,1.1c-0.9,0-2,0-3.2-0.3c-0.9-0.2-1.7-0.5-2.3-0.8
		C113.8,175.8,114.1,175.7,114.4,175.5z"/>
	<path class="st20" d="M113.7,175.9c1.3-2.4,2.6-4.3,3.6-5.5c1.3-1.7,2.1-2.4,2.8-2.9c0.6-0.4,3.2-2.2,4.2-1.1
		c0.6,0.7,0.5,2.1,0.4,2.8c-0.1,1.1-0.5,1.9-0.7,2.3c-0.2-0.1-0.6-0.3-1-0.3c-0.3-0.1-0.9-0.1-1.8,0.1c-0.3,0.1-0.8,0.3-2,1.1
		c-1.6,1-2.2,1.7-3.2,2.2c-0.2,0.1-0.5,0.3-1,0.5c-0.3,0.2-0.5,0.3-0.8,0.5C114,175.7,113.8,175.8,113.7,175.9z"/>
	<path class="st10" d="M121.7,157.4c0.1,0.4-0.1,0.9-0.5,1.1l-1.3,0.5c-0.8,0.3-1.6,0.1-1.9,0.2c-0.1,0-0.2,0.1-0.4,0.1
		c-0.2,0.2-0.4,0.3-0.6,0.5c-0.1,0.1-0.5,0.4-1.2,0.6c-0.4,0.1-0.8,0.3-1.3,0.3c-0.4,0-0.9,0-1.3-0.4c-0.5-0.4-0.7-0.9-0.8-1.3
		c-0.1-0.1-0.3-0.7-0.3-1.4c-0.1-0.8,0-1.5,0.1-1.8c0.2-0.9,0.5-1.6,0.8-2c-0.3,0.8-0.3,1.4-0.4,1.8c0,0.5-0.1,1.2,0.2,2
		c0.1,0.3,0.3,0.9,0.7,1.3c0.6,0.6,1.3,0.7,1.8,0.7c0.8,0,1.5-0.2,2-0.4c0.1,0,0.2-0.1,0.3-0.1l0.8-0.8c0.6-0.4,2.2-1.2,2.6-1.1
		C121.2,157.1,121.6,157,121.7,157.4z"/>
	<path class="st21" d="M90.3,139.1c0-0.1,0-0.2,1-1.9c1-1.6,1.8-2.7,3.2-4.3c1.4-1.6,2.2-2.5,3.5-3.6c1.5-1.1,2.7-1.7,3.7-2.1
		c3.1-1.4,5.4-1.4,6.7-1.3c1.9,0.1,2.4,0.6,2.5,0.9c0.3,0.7-0.7,4.4-0.7,4.4c-0.8-0.1-1.9-0.2-3.2-0.1c-2.2,0.2-3.8,0.7-5.3,1.3
		c-2.6,0.9-4.6,2.1-5.7,2.7C92.6,137.3,90.5,139.5,90.3,139.1z"/>
	<path class="st21" d="M116.5,131.7c0.3-0.8,0.7-1.7,1-2.9c0.4-1.6,0.6-3.1,0.6-4.2c0.3,0.5,0.7,1.3,0.8,2.3c0.1,0.4,0.3,1.6-0.1,3
		c-0.1,0.4-0.3,1.2-0.9,1.9c-0.2,0.3-0.5,0.3-1.1,0.7c-0.3,0.2-0.5,0.4-0.6,0.5C116.3,132.6,116.4,132.2,116.5,131.7z"/>
	<path class="st11" d="M95.7,142.8c2,0.1,4.7,0,7.8-0.9c2.1-0.6,3.9-1.4,5.3-2.2c0.1,0,0.3,0.2,0.4,0.5c0.1,0.4-0.1,0.8-0.1,0.9
		c-0.4,0.4-1,1.1-1.9,1.6c-2.5,1.7-4.9,1.6-6,1.6c-0.5,0-1.5-0.1-2.8-0.4C97.3,143.7,96.4,143.2,95.7,142.8z"/>
	<path class="st14" d="M59.1,159.1c-0.2-0.3-0.4-0.6-0.5-0.9c-0.1-0.3-0.2-0.7-0.2-1.1c0-0.4,0.1-0.8,0.3-1.1
		c0.2-0.3,0.4-0.6,0.6-0.9c0.2-0.2,0.5-0.4,0.8-0.6c0.3-0.2,0.6-0.3,0.9-0.4c0.3-0.1,0.6-0.1,0.9-0.1l0.2,0c0.1,0,0.2,0,0.2,0
		c0.2,0,0.3,0.1,0.5,0.1c0.6,0.2,1.1,0.6,1.6,1.1c0.5,0.5,0.9,1.1,1.2,1.8c0.2,0.3,0.3,0.7,0.4,1c0.1,0.4,0.2,0.7,0.2,1.1
		c0.1,0.8,0.1,1.5,0,2.3l0,0.2l-0.1,0.1c-0.5,0.2-0.9,0.6-1.2,1.1c0,0.1-0.1,0.1-0.1,0.2c0,0.1-0.1,0.1-0.1,0.2
		c-0.1,0.1-0.1,0.3-0.1,0.4c-0.1,0.3-0.1,0.6,0,0.9c0.1,0.3,0.2,0.6,0.4,0.8c0.2,0.2,0.4,0.4,0.6,0.6c0.5,0.3,1,0.5,1.5,0.5
		c-0.3,0-0.5,0-0.8-0.1c-0.3-0.1-0.5-0.2-0.8-0.3c-0.3-0.1-0.5-0.3-0.7-0.6c-0.2-0.2-0.4-0.5-0.5-0.9c-0.1-0.4-0.1-0.7,0-1.1
		c0-0.2,0.1-0.4,0.1-0.5c0-0.1,0.1-0.2,0.1-0.3c0-0.1,0.1-0.2,0.1-0.2c0.2-0.3,0.4-0.6,0.6-0.8c0.2-0.2,0.5-0.4,0.8-0.5l-0.1,0.2
		c0.1-1.4-0.1-2.8-0.6-4c-0.3-0.6-0.6-1.2-1.1-1.6c-0.2-0.2-0.4-0.4-0.7-0.6c-0.1-0.1-0.2-0.2-0.4-0.2c-0.1,0-0.1-0.1-0.2-0.1
		c-0.1,0-0.1-0.1-0.2-0.1c-0.5-0.2-1.1-0.2-1.6-0.1c-0.6,0.1-1.1,0.4-1.6,0.8c-0.5,0.4-0.8,1-0.9,1.7
		C58.6,157.7,58.8,158.5,59.1,159.1z"/>
	<path class="st16" d="M42.2,121.4c-0.1,1.6-0.2,4.1-0.4,7c-0.6,8.8-0.7,9.7-0.7,11.4c0,5.1,1,8.9,3.8,15.3c1.4,3.1,4.5,11.7,10,19
		c2.8,3.8,4.5,7,6.8,9.8c1.3,1.6,3.5,0.1,3.9-1.4c0.2-0.8,0.3-0.8,0.6-2c0.8-2.4,1.1-3.6,0.7-4.2c-0.2-0.3-0.4-0.2-1.2-0.5
		c-0.8-0.3-1.3-0.8-1.9-1.2c-0.9-0.7-1.5-1.5-2.1-2.2c-2.2-3.1-3.4-4.7-4.3-6.7c-1.3-2.8-2.3-5-2.3-8.1c0-0.7,0.1-6.4,3.1-8.3
		c2.8-1.7,6.6,1,8.5,3c2.9,3.1,2.7,6.2,4.9,6.8c1.8,0.5,3.9-1,4.8-3c0.7-1.7,0.3-3.3-0.6-7.3c-1-4.8-1.6-8.6-1.7-9.7
		c-0.2-1.9-0.1-2.1,0.5-12.4c0.4-7.5,0.4-8,0.8-9.5c1.5-5.9,4.6-7.7,4-9c-1.2-2.7-13,3.9-18.8,2.5c-0.6-0.1-2.9-0.7-6-0.3
		c-0.5,0.1-1,0.2-1.6,0.4c-5.1,1.7-8.4,6.5-9,7.4C43.2,119.5,42.6,120.6,42.2,121.4z"/>
	<path class="st22" d="M39.7,124.5c1.5-7.5,4-12.9,5.8-16.1c4.5-8.2,9.9-12.6,14-16c1.3-1.1,5.3-4.3,11-7.2
		c6.4-3.3,11.1-5.8,17.4-5.5c2.3,0.1,9,0.5,14.8,6.2c4.2,4.1,5.5,8.7,5.9,10.9c0.8,4.3,0.8,5.4,0.5,5.5c-0.1,0.1-0.3-0.2-0.8-0.6
		c-0.8-0.5-1.5-0.6-2.1-0.6c-0.7-0.1-1.2,0-1.4,0c-0.6,0.1-3.2,0-4.6,0.2c-2,0.3-3.7,0.9-5.1,1.6c-0.5,0.2-1.1,0.5-2,0.8
		c-2.6,1.1-6.6,3.1-11.3,6.5c-8.9,6.6-8.5,9.8-15.4,13.3c-3.6,1.8-6.8,2.5-7.3,2.6c-6.3,1.3-9.7,0.8-14.7,3.1
		c-1.3,0.6-2.1,1.7-2.1,1.7c-0.5,0.7-0.8,1.4-1,2c-0.4-0.8-1-2.2-1.4-4C39.6,127.1,39.6,125.5,39.7,124.5z"/>
	<path class="st23" d="M70.9,170.8c0.4,1.8-0.5,3.7-2,4.2c-1.5,0.5-3-0.6-3.4-2.5c-0.4-1.8,0.5-3.7,2-4.2
		C69,167.9,70.5,169,70.9,170.8z"/>
	<path class="st24" d="M93.2,154.6c-0.4,0-0.7,0-1.1,0.1c-4.3,0.7-7.3,5.7-6.7,11c0.6,4.9,3.9,8.4,7.8,8.4c0.4,0,0.7,0,1.1-0.1
		c4.3-0.7,7.3-5.7,6.7-11C100.4,158.1,97,154.6,93.2,154.6"/>
	<path class="st25" d="M52.1,193.4c0,0-10.5,12-18.5,26.5c-7.9,14.5-17.8,38.5-22.4,65.6C6.7,312.6,5.4,321,5.4,321
		c35.5-0.1,71-0.2,106.5-0.3c-1.7-13-4.1-27.1-7.3-42.1c-3.7-17.3-8-32.9-12.4-46.8C78.8,219,65.5,206.2,52.1,193.4z"/>
	<path class="st12" d="M208.2,193.2c0,0,11,12,19.2,26.5c8.2,14.5,18.5,38.5,23.3,65.6s6.2,35.5,6.2,35.5c-37-0.1-74-0.2-111-0.3
		c1.8-13,4.3-27.1,7.7-42.1c3.9-17.3,8.4-32.9,12.9-46.8C180.4,218.8,194.3,206,208.2,193.2z"/>
</g>
</svg>
